<svg width="261" height="132" viewBox="0 0 261 132" fill="none" xmlns="http://www.w3.org/2000/svg">
<mask id="mask0_1156_3902" style="mask-type:alpha" maskUnits="userSpaceOnUse" x="23" y="21" width="216" height="91">
<path d="M64.9356 48.339H55.879V40.6566H74.8537V61.4334H67.2585V55.5462C65.1444 59.9022 61.125 62.1462 54.9654 62.1462C43.7946 62.1462 36.4867 53.6718 36.4867 41.6334C36.4867 29.727 44.7082 21.1206 56.3749 21.1206C65.9275 21.1206 73.2877 26.6646 74.5144 35.535L64.8574 35.931C64.0744 31.575 60.7335 28.935 56.3226 28.935C50.0586 28.935 46.1697 33.8982 46.1697 41.6334C46.1697 49.5534 49.902 54.411 56.3226 54.411C60.5247 54.4374 63.8916 52.167 64.9356 48.339Z" fill="black"/>
<path d="M104.843 45.8574L114.343 61.4598H103.903L95.8642 47.7318H89.1826V61.4598H79.917V21.9126H99.7008C107.792 21.9126 113.221 27.219 113.221 34.6902C113.221 39.9174 109.984 43.983 104.843 45.8574ZM98.3176 39.9174C101.45 39.9174 103.746 37.8318 103.746 34.8222C103.746 31.7598 101.45 29.6214 98.3176 29.6214H89.1826V39.891H98.3176V39.9174Z" fill="black"/>
<path d="M118.232 21.9126H147.386V30.0966H127.628V37.383H145.846V45.303H127.628V53.2758H147.673V61.4598H118.232V21.9126Z" fill="black"/>
<path d="M151.953 21.9126H181.107V30.0966H161.349V37.383H179.567V45.303H161.349V53.2758H181.394V61.4598H151.953V21.9126Z" fill="black"/>
<path d="M185.674 21.9126H195.044V37.6206L209.451 21.9126H221.014L203.266 40.7358L221.248 61.4598H209.477L195.07 45.0126V61.4598H185.674V21.9126Z" fill="black"/>
<path d="M32.8849 71.0166V102.248H50.2153V110.564H23.4888V71.0166H32.8849Z" fill="black"/>
<path d="M54.7306 71.0166H83.8842V79.2006H64.1265V86.487H82.3444V94.407H64.1265V102.38H84.1713V110.564H54.7306V71.0166Z" fill="black"/>
<path d="M114.526 97.443H105.469V89.7606H124.444V110.537H116.849V104.65C114.734 109.006 110.715 111.25 104.555 111.25C93.3846 111.25 86.0767 102.776 86.0767 90.7374C86.0767 78.831 94.2982 70.2246 105.965 70.2246C115.517 70.2246 122.878 75.7686 124.104 84.639L114.447 85.035C113.664 80.679 110.324 78.039 105.913 78.039C99.6486 78.039 95.7597 83.0022 95.7597 90.7374C95.7597 98.6574 99.492 103.515 105.913 103.515C110.115 103.541 113.482 101.271 114.526 97.443Z" fill="black"/>
<path d="M129.298 71.0166H158.452V79.2006H138.694V86.487H156.912V94.407H138.694V102.38H158.739V110.564H129.298V71.0166Z" fill="black"/>
<path d="M163.019 110.537V70.9902H173.903L189.694 98.4462V70.9902H198.072V110.537H187.136L171.398 83.1342V110.537H163.019Z" fill="black"/>
<path d="M202.665 110.537V70.9902H219.474C230.749 70.9902 238.788 79.1214 238.788 90.7638C238.788 102.353 230.749 110.537 219.474 110.537H202.665ZM218.926 102.749C225.242 102.749 229.366 98.1294 229.366 90.7638C229.366 83.4246 225.242 78.7782 218.873 78.7782H212.061V102.723H218.926V102.749Z" fill="black"/>
</mask>
<g mask="url(#mask0_1156_3902)">
<path d="M64.9356 48.339H55.879V40.6566H74.8537V61.4334H67.2585V55.5462C65.1444 59.9022 61.125 62.1462 54.9654 62.1462C43.7946 62.1462 36.4867 53.6718 36.4867 41.6334C36.4867 29.727 44.7082 21.1206 56.3749 21.1206C65.9275 21.1206 73.2877 26.6646 74.5144 35.535L64.8574 35.931C64.0744 31.575 60.7335 28.935 56.3226 28.935C50.0586 28.935 46.1697 33.8982 46.1697 41.6334C46.1697 49.5534 49.902 54.411 56.3226 54.411C60.5247 54.4374 63.8916 52.167 64.9356 48.339Z" fill="#2C2C2C"/>
<path d="M104.843 45.8574L114.343 61.4598H103.903L95.8642 47.7318H89.1826V61.4598H79.917V21.9126H99.7008C107.792 21.9126 113.221 27.219 113.221 34.6902C113.221 39.9174 109.984 43.983 104.843 45.8574ZM98.3176 39.9174C101.45 39.9174 103.746 37.8318 103.746 34.8222C103.746 31.7598 101.45 29.6214 98.3176 29.6214H89.1826V39.891H98.3176V39.9174Z" fill="#2C2C2C"/>
<path d="M118.232 21.9126H147.386V30.0966H127.628V37.383H145.846V45.303H127.628V53.2758H147.673V61.4598H118.232V21.9126Z" fill="#2C2C2C"/>
<path d="M151.953 21.9126H181.107V30.0966H161.349V37.383H179.567V45.303H161.349V53.2758H181.394V61.4598H151.953V21.9126Z" fill="#2C2C2C"/>
<path d="M185.674 21.9126H195.044V37.6206L209.451 21.9126H221.014L203.266 40.7358L221.248 61.4598H209.477L195.07 45.0126V61.4598H185.674V21.9126Z" fill="#2C2C2C"/>
<path d="M32.8849 71.0166V102.248H50.2153V110.564H23.4888V71.0166H32.8849Z" fill="#2C2C2C"/>
<path d="M54.7306 71.0166H83.8842V79.2006H64.1265V86.487H82.3444V94.407H64.1265V102.38H84.1713V110.564H54.7306V71.0166Z" fill="#2C2C2C"/>
<path d="M114.526 97.443H105.469V89.7606H124.444V110.537H116.849V104.65C114.734 109.006 110.715 111.25 104.555 111.25C93.3846 111.25 86.0767 102.776 86.0767 90.7374C86.0767 78.831 94.2982 70.2246 105.965 70.2246C115.517 70.2246 122.878 75.7686 124.104 84.639L114.447 85.035C113.664 80.679 110.324 78.039 105.913 78.039C99.6486 78.039 95.7597 83.0022 95.7597 90.7374C95.7597 98.6574 99.492 103.515 105.913 103.515C110.115 103.541 113.482 101.271 114.526 97.443Z" fill="#2C2C2C"/>
<path d="M129.298 71.0166H158.452V79.2006H138.694V86.487H156.912V94.407H138.694V102.38H158.739V110.564H129.298V71.0166Z" fill="#2C2C2C"/>
<path d="M163.019 110.537V70.9902H173.903L189.694 98.4462V70.9902H198.072V110.537H187.136L171.398 83.1342V110.537H163.019Z" fill="#2C2C2C"/>
<path d="M202.665 110.537V70.9902H219.474C230.749 70.9902 238.788 79.1214 238.788 90.7638C238.788 102.353 230.749 110.537 219.474 110.537H202.665ZM218.926 102.749C225.242 102.749 229.366 98.1294 229.366 90.7638C229.366 83.4246 225.242 78.7782 218.873 78.7782H212.061V102.723H218.926V102.749Z" fill="#2C2C2C"/>
</g>
</svg>
