<svg width="298" height="124" viewBox="0 0 298 124" fill="none" xmlns="http://www.w3.org/2000/svg">
<path d="M57.5664 37.9168H45.0746V27.4408H71.2466V55.7728H60.7705V47.7448C57.8545 53.6848 52.3104 56.7448 43.8144 56.7448C28.4064 56.7448 18.3266 45.1888 18.3266 28.7728C18.3266 12.5368 29.6666 0.800781 45.7586 0.800781C58.9346 0.800781 69.0866 8.36078 70.7786 20.4568L57.4586 20.9968C56.3786 15.0568 51.7705 11.4568 45.6865 11.4568C37.0465 11.4568 31.6824 18.2248 31.6824 28.7728C31.6824 39.5728 36.8305 46.1968 45.6865 46.1968C51.4825 46.2328 56.1264 43.1368 57.5664 37.9168Z" fill="white"/>
<path d="M112.611 34.5328L125.714 55.8088H111.314L100.227 37.0888H91.0106V55.8088H78.2304V1.88078H105.518C116.678 1.88078 124.166 9.11677 124.166 19.3048C124.166 26.4328 119.703 31.9768 112.611 34.5328ZM103.611 26.4328C107.931 26.4328 111.098 23.5888 111.098 19.4848C111.098 15.3088 107.931 12.3928 103.611 12.3928H91.0106V26.3968H103.611V26.4328Z" fill="white"/>
<path d="M131.079 1.88078H171.291V13.0408H144.039V22.9768H169.166V33.7768H144.039V44.6488H171.686V55.8088H131.079V1.88078Z" fill="white"/>
<path d="M177.591 1.88078H217.803V13.0408H190.551V22.9768H215.679V33.7768H190.551V44.6488H218.199V55.8088H177.591V1.88078Z" fill="white"/>
<path d="M224.102 1.88078H237.027V23.3008L256.898 1.88078H272.847L248.366 27.5488L273.17 55.8088H256.934L237.063 33.3808V55.8088H224.102V1.88078Z" fill="white"/>
<path d="M13.3586 68.8408V111.429H37.2626V122.769H0.398438V68.8408H13.3586Z" fill="white"/>
<path d="M43.4906 68.8408H83.7025V80.0008H56.4505V89.9368H81.5786V100.737H56.4505V111.609H84.0984V122.769H43.4906V68.8408Z" fill="white"/>
<path d="M125.966 104.877H113.475V94.4008H139.647V122.733H129.171V114.705C126.255 120.645 120.71 123.705 112.214 123.705C96.8064 123.705 86.7266 112.149 86.7266 95.7328C86.7266 79.4968 98.0666 67.7608 114.159 67.7608C127.335 67.7608 137.487 75.3208 139.179 87.4168L125.859 87.9568C124.779 82.0168 120.17 78.4168 114.086 78.4168C105.446 78.4168 100.082 85.1848 100.082 95.7328C100.082 106.533 105.23 113.157 114.086 113.157C119.882 113.193 124.526 110.097 125.966 104.877Z" fill="white"/>
<path d="M146.343 68.8408H186.555V80.0008H159.302V89.9368H184.43V100.737H159.302V111.609H186.95V122.769H146.343V68.8408Z" fill="white"/>
<path d="M192.855 122.733V68.8048H207.866L229.647 106.245V68.8048H241.202V122.733H226.118L204.411 85.3648V122.733H192.855Z" fill="white"/>
<path d="M247.539 122.733V68.8048H270.723C286.275 68.8048 297.363 79.8928 297.363 95.7688C297.363 111.573 286.275 122.733 270.723 122.733H247.539ZM269.966 112.113C278.678 112.113 284.366 105.813 284.366 95.7688C284.366 85.7608 278.679 79.4248 269.895 79.4248H260.498V112.077H269.966V112.113Z" fill="white"/>
</svg>
