<svg width="90" height="68" viewBox="0 0 90 68" fill="none" xmlns="http://www.w3.org/2000/svg">
<path d="M51.5122 26.9713L47.9384 23.457H35.2316L31.6578 26.9713C30.5995 28.031 29.9982 29.4681 29.9844 30.9713V60.3711C29.9982 61.8743 30.5995 63.3114 31.6578 64.3711L33.5582 66.2282C34.6218 67.2908 36.0594 67.8866 37.5574 67.8854H45.5559C47.07 67.8833 48.5241 67.2891 49.6119 66.2282L51.4838 64.3711C52.5491 63.3044 53.151 61.8556 53.1573 60.3425V30.9142C53.1363 29.4349 52.5466 28.0215 51.5122 26.9713Z" fill="#2C2C2C"/>
<path d="M46.4893 7.22949H36.7891V19.2866H46.4893V7.22949Z" fill="#2C2C2C"/>
<path d="M19.0318 39.9707L15.7984 36.7422H4.62325L1.41818 39.9707C0.517496 40.8703 0.00753325 42.093 5.61714e-06 43.3707V61.3134C-0.000965547 61.9468 0.124003 62.574 0.367575 63.158C0.611147 63.7419 0.968386 64.2708 1.41818 64.7134L3.23343 66.542C3.67423 66.9912 4.20015 67.3466 4.77997 67.5871C5.35978 67.8276 5.98167 67.9483 6.60868 67.942H13.8414C14.4638 67.9461 15.0808 67.8243 15.6557 67.5838C16.2306 67.3433 16.7517 66.9891 17.1882 66.542L19.0318 64.7134C19.9221 63.8091 20.4216 62.587 20.4216 61.3134V43.3707C20.4126 42.0989 19.9144 40.8801 19.0318 39.9707Z" fill="#2C2C2C"/>
<path d="M15.0518 20.4561H5.35156V32.5131H15.0518V20.4561Z" fill="#2C2C2C"/>
<path d="M87.2227 20.3713L83.2234 16.3428H68.7581L64.7305 20.3713C63.4791 21.6513 62.7764 23.3748 62.7734 25.1713V59.1997C62.7725 60.0855 62.9449 60.9628 63.2807 61.7815C63.6165 62.6002 64.1091 63.3443 64.7305 63.9711L66.7726 66.0283C67.394 66.6554 68.1324 67.1525 68.9454 67.4908C69.7583 67.8292 70.6297 68.0022 71.5093 67.9997H80.4438C81.3241 68.007 82.1969 67.8362 83.0105 67.4975C83.8241 67.1589 84.562 66.6593 85.1805 66.0283L87.2227 63.9711C87.853 63.3495 88.3533 62.6071 88.6943 61.7876C89.0353 60.9682 89.21 60.0882 89.2081 59.1997V25.1142C89.1918 23.3316 88.4784 21.6274 87.2227 20.3713Z" fill="#2C2C2C"/>
<path d="M80.8487 0H71.1484V12.0571H80.8487V0Z" fill="#2C2C2C"/>
</svg>
