<svg width="90" height="68" viewBox="0 0 90 68" fill="none" xmlns="http://www.w3.org/2000/svg">
<path d="M87.9468 26.9713L84.373 23.457H71.6662L68.0924 26.9713C67.034 28.031 66.4327 29.4681 66.4189 30.9713V60.3711C66.4327 61.8743 67.034 63.3114 68.0924 64.3711L69.9928 66.2282C71.0563 67.2908 72.494 67.8866 73.992 67.8854H81.9905C83.5045 67.8833 84.9587 67.2891 86.0464 66.2282L87.9184 64.3711C88.9837 63.3044 89.5855 61.8556 89.5919 60.3425V30.9142C89.5709 29.4349 88.9812 28.0215 87.9468 26.9713Z" fill="#DBD6D5"/>
<path d="M82.9239 7.22949H73.2236V19.2866H82.9239V7.22949Z" fill="#DBD6D5"/>
<path d="M19.0318 39.9707L15.7984 36.7422H4.62325L1.41818 39.9707C0.517496 40.8703 0.00753325 42.093 5.61714e-06 43.3707V61.3134C-0.000965547 61.9468 0.124003 62.574 0.367575 63.158C0.611147 63.7419 0.968386 64.2708 1.41818 64.7134L3.23343 66.542C3.67423 66.9912 4.20015 67.3466 4.77997 67.5871C5.35978 67.8276 5.98167 67.9483 6.60868 67.942H13.8414C14.4638 67.9461 15.0808 67.8243 15.6557 67.5838C16.2306 67.3433 16.7517 66.9891 17.1882 66.542L19.0318 64.7134C19.9221 63.8091 20.4216 62.587 20.4216 61.3134V43.3707C20.4126 42.0989 19.9144 40.8801 19.0318 39.9707Z" fill="#DBD6D5"/>
<path d="M15.0518 20.4561H5.35156V32.5131H15.0518V20.4561Z" fill="#DBD6D5"/>
<path d="M54.4336 20.3713L50.4344 16.3428H35.9691L31.9414 20.3713C30.6901 21.6513 29.9874 23.3748 29.9844 25.1713V59.1997C29.9835 60.0855 30.1558 60.9628 30.4916 61.7815C30.8274 62.6002 31.3201 63.3443 31.9414 63.9711L33.9836 66.0283C34.6049 66.6554 35.3434 67.1525 36.1563 67.4908C36.9693 67.8292 37.8407 68.0022 38.7203 67.9997H47.6548C48.5351 68.007 49.4079 67.8362 50.2215 67.4975C51.0351 67.1589 51.773 66.6593 52.3914 66.0283L54.4336 63.9711C55.0639 63.3495 55.5643 62.6071 55.9053 61.7876C56.2463 60.9682 56.421 60.0882 56.419 59.1997V25.1142C56.4028 23.3316 55.6894 21.6274 54.4336 20.3713Z" fill="#DBD6D5"/>
<path d="M48.0597 0H38.3594V12.0571H48.0597V0Z" fill="#DBD6D5"/>
</svg>
