<svg width="620" height="221" viewBox="0 0 620 221" fill="none" xmlns="http://www.w3.org/2000/svg">
<path fill-rule="evenodd" clip-rule="evenodd" d="M611.14 103.982C614.238 101.56 616.96 98.5238 617.555 93.499C614.676 93.1013 614.426 93.499 613.174 95.8126C612.917 96.2803 612.555 96.6616 612.194 97.0406C611.413 97.8625 610.641 98.6735 610.984 100.331C611.004 100.426 610.744 100.597 610.474 100.776C610.331 100.87 610.185 100.967 610.076 101.054C609.778 101.284 609.488 101.522 609.201 101.757C608.587 102.262 607.984 102.757 607.323 103.151C607.193 103.231 607.062 103.314 606.929 103.399C606.093 103.93 605.191 104.505 604.381 104.38C602.566 104.127 601.252 104.127 600.344 106.441C600.112 107.027 599.718 107.502 599.323 107.979C598.549 108.912 597.771 109.852 598.185 111.646C598.342 112.333 597.528 113.634 596.902 114.249C596.559 114.59 596.207 114.923 595.855 115.256C593.671 117.319 591.497 119.374 591.551 123.359C591.551 123.612 591.395 123.901 591.27 124.118C588.485 129.07 578.91 129.576 576.062 124.588C574.529 121.913 572.995 121.985 570.899 122.527C568.521 123.142 566.111 123.648 564.109 121.081C563.796 120.647 562.857 120.72 562.262 120.828C561.627 120.967 560.996 121.158 560.365 121.35C559.348 121.659 558.329 121.968 557.287 122.057C554.596 122.31 552.562 123.322 551.373 126.576C550.809 128.166 549.558 130.046 548.306 130.48C546.704 131.024 545.123 131.716 543.541 132.41C539.126 134.344 534.694 136.286 529.719 135.035C528.999 134.854 527.653 135.722 527.278 136.517C525.4 140.638 522.803 143.422 518.892 144.614C517.796 144.94 516.732 146.277 516.075 147.47C515.425 148.656 514.897 149.939 514.367 151.225C513.928 152.291 513.488 153.359 512.977 154.375C511.319 157.628 509.003 158.641 505.937 157.628C504.81 157.267 503.684 156.797 502.62 156.219C499.491 154.52 496.361 152.82 492.732 153.327C492.137 153.399 491.104 152.604 490.823 151.881C489.477 148.555 488.225 145.157 487.099 141.723C486.755 140.71 486.504 138.939 486.942 138.397C488.726 136.155 488.132 134.131 487.381 131.709C486.129 127.769 486.849 125.564 489.696 123.286C490.948 122.274 491.386 121.117 490.729 119.238C489.728 116.418 490.166 115.767 492.7 114.9C493.264 114.719 494.077 113.924 494.108 113.345C494.202 111.863 494.108 110.309 493.795 108.899C493.662 108.258 493.261 107.707 492.861 107.158C492.697 106.933 492.533 106.708 492.387 106.477C492.2 106.796 492 107.105 491.802 107.414C491.437 107.981 491.075 108.543 490.792 109.152C490.692 109.382 490.733 109.693 490.775 110.011C490.812 110.291 490.85 110.577 490.792 110.815C490.604 111.465 490.197 112.514 489.884 112.514C489.321 112.55 488.57 112.044 488.163 111.502C487.819 110.995 487.693 110.128 487.693 109.405C487.6 104.85 487.756 100.44 491.855 97.9816C492.638 97.4755 493.326 96.5356 493.827 95.5957C494.262 94.8016 494.563 93.8912 494.865 92.978C494.976 92.6441 495.086 92.3098 495.204 91.9807C494.926 91.8465 494.649 91.6857 494.372 91.5244C493.677 91.1213 492.977 90.7155 492.262 90.7155C490.527 90.7155 488.786 90.7901 487.045 90.8648C484.953 90.9544 482.861 91.0441 480.778 91.0047C479.359 90.9806 477.941 90.6673 476.522 90.354C475.813 90.1973 475.104 90.0407 474.394 89.9202C474.167 89.875 473.939 89.8185 473.71 89.762C473.023 89.5926 472.337 89.4231 471.703 89.5587C469.607 89.9925 467.542 90.5348 465.539 91.33C462.874 92.3804 460.204 93.4147 457.533 94.4491C449.633 97.5086 441.729 100.57 433.965 104.055C426.925 107.236 421.136 104.669 415.503 100.151C414.564 99.3914 413.907 98.0538 413.406 96.8247C412.624 94.9088 411.498 93.8605 409.745 93.9328C407.73 94.0325 405.712 94.1231 403.694 94.2137C397.66 94.4845 391.622 94.7556 385.619 95.2703C384.742 95.3428 383.865 95.4426 382.991 95.5422C378.192 96.0888 373.474 96.6262 369.16 92.5591C368.44 91.8361 367.063 91.8361 365.999 91.9084C364.99 91.972 363.991 92.16 362.99 92.3484C362.285 92.4811 361.579 92.614 360.867 92.7037C354.077 93.5713 347.255 94.0412 340.528 92.1976C334.676 90.607 333.299 87.0283 336.115 80.7744C336.96 78.8585 336.553 77.7739 335.114 76.9425C334.619 76.6628 334.104 76.4145 333.59 76.1659C332.64 75.7077 331.69 75.249 330.858 74.5928C328.14 72.4676 325.06 72.1515 322 71.8373C321.573 71.7934 321.145 71.7495 320.72 71.7008C320.231 71.6495 319.68 72.1619 319.133 72.6705C318.909 72.8791 318.685 73.0871 318.467 73.2553C318.102 73.5246 317.737 73.8736 317.371 74.2235C316.607 74.954 315.839 75.689 315.056 75.7134C311.082 75.8941 307.014 75.7857 303.446 73.1468C301.788 71.9539 300.286 72.1708 298.628 73.3637C298.42 73.5142 298.209 73.6708 297.996 73.8292C296.569 74.8892 295.028 76.0341 293.558 76.0026C287.957 75.8942 282.356 75.3158 276.786 74.6289C275.084 74.4046 273.378 73.9781 271.679 73.5532C268.722 72.8139 265.785 72.0794 262.924 72.4238C254.882 73.3998 247.371 77.0871 240.581 82.618C239.142 83.8109 237.389 84.6424 235.7 85.1123C231.87 86.1283 228.04 86.9065 224.187 87.6895C223.79 87.7702 223.392 87.8509 222.995 87.932C219.961 88.5477 216.929 89.172 213.897 89.7962C203.043 92.0309 192.192 94.2651 181.283 96.1018C178.482 96.5678 175.568 96.014 172.668 95.463C171.519 95.2446 170.372 95.0266 169.235 94.8727C164.01 94.1858 162.946 92.5591 162.758 86.1968C162.712 84.8857 162.814 83.5561 162.915 82.226C163.161 79.0085 163.406 75.7883 161.569 72.8214C161.35 72.4238 161.381 71.6647 161.506 71.1586C162.351 67.5436 161.099 64.9047 159.159 62.2658C157.751 60.386 156.844 60.7475 155.467 62.1573C154.729 62.9061 153.848 63.4152 152.971 63.9216C152.621 64.1242 152.271 64.3263 151.931 64.5432C151.754 64.6637 151.552 64.7641 151.35 64.8645C150.947 65.0654 150.544 65.2662 150.335 65.6277C148.457 69.0258 145.766 68.8089 143.545 67.0375C139.821 64.0733 135.941 62.6996 131.56 61.6512C129.705 61.1862 127.924 60.2635 126.118 59.3282C123.992 58.2274 121.833 57.1092 119.481 56.6987C117.51 56.3373 117.134 53.9875 118.73 52.5054C119.825 51.4932 121.421 50.5172 122.704 50.6618C125.031 50.8921 127.33 51.3059 129.627 51.7192C131.656 52.0842 133.682 52.4488 135.722 52.6861C137.318 52.8669 139.383 52.7223 140.509 51.6378C141.946 50.2429 143.147 48.48 144.352 46.711C144.958 45.821 145.566 44.9295 146.204 44.0825C147.8 41.9859 147.644 39.8892 146.424 37.684C146.1 37.0959 145.744 36.5219 145.387 35.9477C144.603 34.6866 143.818 33.4244 143.388 32.0086C142.105 27.8152 139.571 26.55 136.191 25.1763C131.028 23.0796 126.616 23.405 121.891 26.3693C119.825 27.6706 119.012 29.0082 119.387 31.5748C119.465 32.0985 119.57 32.6178 119.674 33.1357C119.865 34.0834 120.056 35.0267 120.076 35.9851C120.107 37.3949 120.138 39.2024 118.073 38.6963C114.443 37.7925 114.162 38.1179 113.63 42.7089C113.348 45.0948 112.816 47.589 110.438 47.9867C105.713 48.782 100.956 49.505 96.2 49.7942C94.7795 49.8742 93.3591 49.6109 91.9388 49.3475C90.7933 49.1351 89.6478 48.9227 88.5023 48.8904C85.5325 48.7941 82.5626 48.7799 79.5975 48.7658C77.0015 48.7534 74.4092 48.741 71.8236 48.6735L71.7704 48.6721C70.3988 48.6363 68.56 48.5882 67.8495 47.589C65.8871 44.8553 63.419 44.5197 60.8625 44.1721C60.6469 44.1428 60.4308 44.1134 60.2142 44.0825C56.3966 43.5041 54.8321 41.7328 54.0185 37.2864C53.9015 36.6446 53.8324 35.995 53.7632 35.3447C53.6843 34.6033 53.6053 33.8611 53.4553 33.1292C53.1612 31.6523 52.8202 30.1874 52.4791 28.7223C51.9853 26.6014 51.4913 24.4799 51.1397 22.3205C51.0173 21.5801 50.883 20.8334 50.7481 20.0833C50.1585 16.8047 49.5569 13.4599 49.8879 10.2827C49.9563 9.64165 50.0252 9.08416 50.0858 8.59345C50.4969 5.26548 50.5287 5.00865 47.4471 2.58283C46.6648 1.96829 45.8825 1.3176 45.1315 0.666905C43.8485 -0.417582 42.816 -0.164561 41.9085 1.31757C41.6486 1.72911 41.4005 2.15435 41.1523 2.57958C40.5941 3.53638 40.0358 4.49319 39.3426 5.29405C36.276 8.87285 35.9005 11.4756 37.4338 16.3919C37.5888 16.8967 37.7915 17.4032 37.9963 17.9153C38.7011 19.6773 39.4322 21.5049 38.3412 23.5496C37.1834 25.7547 37.8093 27.4537 38.8107 29.4781C40.1875 32.2616 41.5017 35.262 42.065 38.3709C42.4694 40.6033 42.4221 42.9662 42.3749 45.3258C42.3564 46.2521 42.3378 47.1779 42.3467 48.0951C42.4092 52.3608 41.6581 53.9875 38.3099 55.1805C35.2746 56.265 32.0828 57.1325 28.9223 57.494C27.7645 57.6386 26.2313 56.3734 25.3238 55.2166C25.2213 55.0853 25.1207 54.9546 25.0212 54.8253C23.9974 53.4949 23.0894 52.315 21.3497 52.2162C18.3457 52.0716 17.4381 50.8064 17.1565 47.1914C17.0926 46.3475 17.066 45.485 17.0394 44.6221C16.9748 42.528 16.9101 40.431 16.3117 38.5878C15.1539 35.009 14.9661 31.5387 15.0287 27.8514C15.0512 26.7084 14.912 25.5468 14.7739 24.3933C14.7198 23.9416 14.6659 23.4911 14.6219 23.0435C14.5123 23.0435 14.4106 23.0345 14.3089 23.0254C14.2072 23.0164 14.1055 23.0073 13.996 23.0073C13.7928 24.9324 12.9092 26.5051 12.0257 28.0775C10.8686 30.1369 9.71186 32.1958 10.0845 35.0451C10.1154 35.3134 10.1515 35.5885 10.1881 35.8672C10.3731 37.279 10.5704 38.7841 10.1785 39.9615C8.70773 44.3356 7.67517 48.6012 7.70646 53.4453C7.70646 53.4933 7.70644 53.5408 7.70642 53.5879C7.70569 55.4911 7.70524 56.6579 8.9267 57.9278C11.0858 60.1691 11.0234 60.8921 8.89557 63.1695C5.51604 66.7845 5.20303 70.5802 8.0193 74.5566C9.74036 76.9787 9.14587 80.7382 7.29965 83.0518C5.57859 85.1846 3.70111 87.7874 3.23173 90.5348C2.83735 92.99 3.0873 95.6047 3.33707 98.2176C3.44402 99.3364 3.55093 100.455 3.60722 101.56C3.61382 101.698 3.62459 101.838 3.63543 101.979C3.67598 102.508 3.71743 103.048 3.54458 103.476C2.73099 105.537 3.51321 107.019 4.63972 108.501C6.57982 111.068 6.26704 111.755 3.60722 113.237C2.19909 113.996 0.540467 115.442 0.133672 116.996C-0.398291 119.057 0.728196 121.009 2.2615 122.744C5.20294 126.106 8.45734 128.564 12.275 130.227C12.9182 130.506 13.3548 131.455 13.8004 132.425C14.0486 132.965 14.2995 133.511 14.5905 133.95C14.7266 134.16 14.864 134.39 15.0039 134.624C15.5395 135.519 16.1111 136.475 16.781 136.589C18.3381 136.863 19.9075 136.892 21.4816 136.921C22.4066 136.939 23.3332 136.956 24.2598 137.023C26.0261 137.155 27.7859 137.324 29.5452 137.493C31.6506 137.695 33.7553 137.897 35.8692 138.035C36.8393 138.108 37.8719 137.963 38.8107 137.565C43.9112 135.469 49.1681 135.939 54.3 136.553C56.7408 136.842 58.7122 136.987 60.5584 135.071C62.9679 132.577 65.8156 131.781 68.8822 132.432C70.6572 132.814 72.4179 133.297 74.178 133.779C76.0791 134.301 77.9796 134.821 79.897 135.216C81.1001 135.464 82.2951 135.799 83.4908 136.135C86.9909 137.117 90.4967 138.1 94.2286 136.915C96.3564 136.228 98.7973 136.228 100.988 136.625C104.868 137.348 108.717 138.397 110.657 143.422C111.064 144.47 112.409 145.554 113.411 145.663C116.016 145.961 118.64 146.015 121.268 146.07C122.143 146.088 123.018 146.106 123.893 146.133C124.112 146.133 124.363 145.988 124.519 145.807C126.427 143.317 128.748 143.592 131.076 143.868C131.688 143.941 132.3 144.014 132.905 144.036C133.975 144.072 135.048 144.131 136.122 144.189C139.354 144.366 142.596 144.543 145.766 144.108C149.146 143.638 151.931 144 154.935 145.952C161.6 150.254 168.578 150.832 175.744 147.398C177.147 146.727 178.719 146.51 180.271 146.296C180.726 146.233 181.18 146.17 181.627 146.097C182.424 145.967 183.232 145.902 184.04 145.838C185.485 145.723 186.927 145.608 188.292 145.121C191.609 143.964 192.767 144.217 194.832 147.615C194.889 147.711 194.946 147.81 195.004 147.909C195.487 148.742 196.011 149.646 196.71 150.001C197.618 150.459 198.517 150.941 199.416 151.424C203.411 153.566 207.388 155.699 212.011 155.64C219.772 155.532 226.406 158.713 231.131 166.521C231.221 166.671 231.31 166.822 231.399 166.974C231.806 167.669 232.219 168.373 232.758 168.907C233.415 169.558 234.26 170.389 235.074 170.425C239.736 170.678 244.43 170.751 249.124 170.823C251.108 170.869 253.092 170.876 255.074 170.883C257.718 170.892 260.357 170.9 262.986 171.004C266.146 171.112 269.088 172.088 271.529 174.908C275.002 178.92 276.536 184.09 278.006 189.332C278.945 192.657 279.446 196.091 277.349 199.236C277.036 199.706 276.911 200.502 276.974 201.116C277.07 202.129 277.149 203.148 277.229 204.166C277.432 206.783 277.636 209.401 278.131 211.925C278.663 214.636 278.538 216.624 276.379 218.143C276.026 218.397 275.798 218.921 275.573 219.436C275.479 219.652 275.385 219.866 275.284 220.059C275.435 220.157 275.591 220.284 275.75 220.414C276.118 220.714 276.499 221.024 276.848 220.999C277.643 220.945 278.44 220.9 279.238 220.855C282.244 220.685 285.265 220.514 288.207 219.914C289.734 219.599 291.23 219.003 292.72 218.41C294.652 217.641 296.573 216.876 298.534 216.733C300.948 216.557 303.391 217.184 305.845 217.814C306.922 218.09 308 218.367 309.079 218.577C309.333 218.631 309.586 218.695 309.84 218.759C310.431 218.908 311.022 219.057 311.614 219.083C315.463 219.227 319.28 219.3 323.129 219.336C323.891 219.336 324.652 219.13 325.391 218.931C325.472 218.909 325.552 218.887 325.633 218.866C326.175 218.721 326.717 218.54 327.26 218.36C328.345 217.998 329.429 217.637 330.514 217.564C334.347 217.347 338.18 217.194 342.013 217.04C345.847 216.887 349.68 216.733 353.514 216.516C354.922 216.444 356.611 215.938 357.644 214.889C361.962 210.515 366.907 209.539 372.195 210.551C375.668 211.238 378.86 210.587 382.083 209.25C382.205 209.198 382.328 209.145 382.45 209.092C383.429 208.669 384.43 208.238 385.431 207.949C388.873 206.936 392.19 205.635 394.663 202.273C395.069 201.731 395.664 201.261 396.227 201.08C397.81 200.603 399.39 200.104 400.971 199.605C405.141 198.289 409.311 196.973 413.532 196.055C420.452 194.567 427.269 195.834 434.084 197.101C435.713 197.404 437.342 197.706 438.972 197.971C441.256 198.369 443.76 198.803 445.919 198.116C450.268 196.706 454.649 194.935 458.655 192.513C462.754 190.055 466.79 188.934 471.297 189.874C474.645 190.561 477.962 190.488 481.216 188.934C484.596 187.343 488.069 187.307 491.574 188.609C492.462 188.931 493.432 189.039 494.384 189.146C494.606 189.171 494.828 189.196 495.047 189.223C495.431 189.28 495.816 189.337 496.2 189.395C498.507 189.74 500.814 190.085 503.121 190.271C503.971 190.348 504.839 190.474 505.71 190.602C508.142 190.956 510.601 191.315 512.79 190.597C518.082 188.846 523.205 186.412 528.333 183.977C529.451 183.446 530.57 182.915 531.69 182.391C534.944 180.873 538.105 180.294 541.547 181.306C542.83 181.668 544.676 181.523 545.709 180.656C548.494 178.306 551.717 179.029 553.469 182.788C553.751 183.403 554.533 184.126 555.034 184.09C556.329 183.989 557.632 184.094 558.937 184.199C561.384 184.397 563.839 184.594 566.268 183.439C567.134 183.018 568.15 183.057 569.145 183.095C569.516 183.109 569.885 183.124 570.242 183.114C572.776 183.042 574.529 184.234 575.405 187.307C576.218 190.235 577.752 191.067 580.161 189.91C581.82 189.102 583.416 188.161 585.012 187.219C585.915 186.686 586.818 186.154 587.734 185.644C588.032 185.481 588.34 185.283 588.65 185.083C589.51 184.527 590.394 183.957 591.176 184.09C594.283 184.549 596.442 182.705 598.626 180.84C599.191 180.357 599.759 179.873 600.344 179.427C600.73 179.13 601.142 178.888 601.549 178.648C602.135 178.304 602.713 177.965 603.192 177.475C603.401 177.267 603.627 177.055 603.859 176.837C604.882 175.88 606.012 174.821 606.165 173.643C606.535 170.517 607.923 167.908 609.307 165.304C610.965 162.187 612.619 159.077 612.517 155.098C612.499 154.871 612.645 154.655 612.797 154.431C612.91 154.263 613.027 154.091 613.08 153.905C613.186 153.528 613.298 153.153 613.409 152.779C614.184 150.172 614.949 147.599 613.8 144.723C611.954 140.096 612.861 137.602 616.835 135.433C618.588 134.493 620.09 133.227 619.996 130.95C619.385 130.838 618.775 130.778 618.18 130.72C616.855 130.59 615.607 130.467 614.614 129.793C612.893 128.636 611.516 126.648 610.295 124.732C609.95 124.2 610.062 123.255 610.171 122.347C610.209 122.022 610.248 121.702 610.264 121.406C610.296 120.919 610.363 120.428 610.43 119.94C610.561 118.978 610.691 118.028 610.546 117.141C610.363 116.034 609.914 114.984 609.466 113.936C609.3 113.547 609.134 113.158 608.981 112.767C606.947 107.742 607.323 106.983 611.14 103.982ZM252.837 126.648C253.939 127.142 254.281 127.826 254.585 130.03C254.737 130.106 255.649 130.03 255.725 129.878C255.725 128.586 255.915 126.42 256.105 125.318C256.018 125.31 255.915 125.302 255.799 125.293C255.354 125.259 254.716 125.21 254.053 125.09C252.875 124.938 251.583 124.824 250.557 124.824C248.239 124.824 246.225 125.242 244.743 126.04C241.665 127.598 240.335 130.524 240.335 133.488C240.335 139.112 243.793 142.532 250.063 142.532C251.811 142.532 253.597 142.152 254.433 141.81C255.117 141.468 256.257 139.074 256.599 137.858C256.523 137.592 255.801 137.212 255.611 137.326C254.889 138.542 254.167 139.644 253.483 140.214C252.685 140.86 251.773 140.974 250.861 140.974C245.959 140.974 243.755 137.326 243.755 133.222C243.755 128.662 245.921 126.04 249.759 126.04C251.051 126.04 252.001 126.23 252.837 126.648ZM264.915 125.204C264.801 125.28 264.725 126.154 264.877 126.306C265.485 126.344 266.207 126.458 266.701 126.572C267.347 126.724 267.575 127.028 267.613 127.788C267.651 128.548 267.651 131.018 267.651 133.906C267.651 135.388 267.613 138.656 267.575 139.264C267.537 140.29 267.233 140.594 266.587 140.784C266.301 140.855 265.513 140.96 264.946 141.036L264.839 141.05C264.687 141.126 264.725 141.962 264.839 142.114C265.071 142.114 265.502 142.097 266.036 142.077C266.9 142.044 268.032 142 269.019 142C270.15 142 271.296 142.044 272.166 142.077C272.699 142.098 273.129 142.114 273.389 142.114C273.503 142 273.579 141.164 273.427 141.05C272.705 140.974 271.983 140.86 271.603 140.746C270.957 140.556 270.767 140.366 270.691 139.454C270.615 138.542 270.615 136.414 270.615 134.932C270.615 134.894 270.653 134.78 270.729 134.78C270.858 134.78 271.021 134.776 271.195 134.772C271.582 134.764 272.025 134.754 272.287 134.78C272.591 134.78 272.933 134.932 273.123 135.236C273.258 135.431 273.407 135.647 273.566 135.879C274.616 137.403 276.113 139.576 277.037 140.632C277.531 141.202 277.987 141.506 278.405 141.696C279.393 142.19 281.977 142.228 283.193 142.19C283.383 142.152 283.459 141.202 283.345 141.126C281.863 140.898 281.255 140.784 280.267 139.758C278.861 138.39 276.657 135.578 275.707 134.058C275.707 134.05 275.705 134.04 275.703 134.027C275.696 133.976 275.684 133.891 275.745 133.83C277.379 133.184 279.013 131.854 279.013 129.536C279.013 127.218 277.341 125.28 273.921 125.28C273.434 125.28 272.76 125.287 271.988 125.295C270.952 125.306 269.738 125.318 268.563 125.318C268.042 125.318 267.191 125.284 266.421 125.253C265.786 125.227 265.207 125.204 264.915 125.204ZM270.653 127.028C270.653 126.952 270.805 126.686 270.881 126.686C271.185 126.534 271.679 126.534 271.907 126.534C274.529 126.534 276.011 127.712 276.011 130.296C276.011 132.12 275.099 132.994 274.149 133.26C273.427 133.488 271.641 133.45 270.805 133.412C270.691 133.412 270.615 133.298 270.615 133.184C270.615 131.208 270.615 127.978 270.653 127.028ZM289.988 125.204C289.836 125.28 289.798 126.192 289.912 126.306C290.558 126.382 291.356 126.496 291.774 126.61C292.42 126.8 292.534 127.066 292.61 127.94C292.648 128.434 292.648 130.486 292.648 132.956C292.648 135.996 292.648 138.58 292.61 139.226C292.534 140.214 292.382 140.518 291.698 140.708C291.166 140.822 290.064 140.936 289.19 141.012C289.076 141.126 289.114 142 289.19 142.114C289.58 142.114 290.065 142.096 290.652 142.075C291.551 142.042 292.689 142 294.092 142C296.514 142 298.043 142.03 299.266 142.054C300.422 142.077 301.306 142.094 302.414 142.076C303.63 142.076 303.82 141.962 304.048 141.506C304.504 140.48 305.074 138.352 305.188 137.516C305.15 137.288 304.276 137.06 304.124 137.098C303.782 137.934 303.326 138.846 302.832 139.492C302.3 140.214 301.92 140.518 300.78 140.556C299.602 140.594 297.018 140.556 296.41 140.404C296.106 140.29 295.764 139.872 295.726 139.226C295.688 137.896 295.688 135.768 295.688 134.514C295.688 134.438 295.764 134.286 295.84 134.286C297.056 134.286 298.918 134.286 299.792 134.362C300.362 134.4 300.59 134.78 300.742 135.198C300.767 135.312 300.792 135.413 300.819 135.52C300.873 135.734 300.932 135.971 301.008 136.376C301.16 136.49 302.034 136.452 302.186 136.338C302.148 135.578 302.11 134.324 302.11 133.564C302.11 132.728 302.224 131.322 302.3 130.79C302.186 130.676 301.312 130.6 301.122 130.676C301.046 131.094 300.97 131.474 300.856 131.816C300.704 132.234 300.514 132.69 299.792 132.728C298.842 132.766 297.246 132.766 295.84 132.766C295.764 132.766 295.688 132.652 295.688 132.576C295.662 131.742 295.671 130.471 295.679 129.188C295.683 128.542 295.688 127.892 295.688 127.294C295.688 127.142 295.84 126.8 296.068 126.762C296.41 126.686 299.716 126.686 300.21 126.762C301.122 126.838 301.502 127.18 301.692 127.902C301.844 128.32 301.958 128.852 302.072 129.498C302.148 129.612 303.022 129.612 303.174 129.422C303.25 128.092 303.402 126.154 303.63 125.356C303.63 125.318 303.516 125.166 303.478 125.166C302.832 125.28 301.502 125.318 300.172 125.318H294.168C293.241 125.318 292.193 125.278 291.344 125.245C290.766 125.223 290.28 125.204 289.988 125.204ZM317.997 140.746L315.907 141.012C315.793 141.126 315.793 142 315.907 142.114C316.15 142.114 316.509 142.1 316.971 142.081C317.808 142.047 318.984 142 320.429 142C321.802 142 323.588 142.059 324.799 142.099C324.962 142.104 325.115 142.109 325.255 142.114C325.407 142.038 325.483 141.126 325.369 141.012C324.381 140.898 323.735 140.822 323.279 140.708C322.633 140.518 322.443 140.062 322.367 139.53C322.274 138.419 322.282 133.471 322.288 129.514C322.289 128.6 322.291 127.739 322.291 126.99C322.291 126.914 322.329 126.762 322.443 126.724C323.051 126.724 324.723 126.724 325.673 126.762C326.281 126.8 326.661 127.066 326.927 127.712C327.155 128.32 327.383 129.346 327.535 130.372C327.611 130.486 328.561 130.486 328.675 130.372C328.789 128.928 329.017 126.154 329.283 125.128C329.283 125.014 328.979 124.9 328.903 124.938C328.067 125.242 327.535 125.318 326.509 125.318H315.679C314.653 125.318 314.045 125.204 313.437 124.938C313.361 124.862 313.019 124.976 312.981 125.014C312.905 126.23 312.677 129.004 312.411 130.182C312.525 130.334 313.361 130.524 313.551 130.41C313.969 129.232 314.311 128.358 314.653 127.75C314.995 127.142 315.489 126.8 316.021 126.762C316.781 126.724 318.567 126.686 319.061 126.724C319.137 126.724 319.213 126.876 319.213 126.952C319.213 131.436 319.213 136.718 319.137 138.808C319.099 140.062 318.871 140.556 317.997 140.746ZM337.644 125.204C337.492 125.28 337.454 126.192 337.568 126.306C338.214 126.382 339.012 126.496 339.43 126.61C340.076 126.8 340.19 127.066 340.266 127.94C340.304 128.434 340.304 130.486 340.304 132.956C340.304 135.996 340.304 138.58 340.266 139.226C340.19 140.214 340.038 140.518 339.354 140.708C338.822 140.822 337.72 140.936 336.846 141.012C336.732 141.126 336.77 142 336.846 142.114C337.236 142.114 337.721 142.096 338.308 142.075C339.207 142.042 340.345 142 341.748 142C344.17 142 345.699 142.03 346.922 142.054C348.078 142.077 348.962 142.094 350.07 142.076C351.286 142.076 351.476 141.962 351.704 141.506C352.16 140.48 352.73 138.352 352.844 137.516C352.806 137.288 351.932 137.06 351.78 137.098C351.438 137.934 350.982 138.846 350.488 139.492C349.956 140.214 349.576 140.518 348.436 140.556C347.258 140.594 344.674 140.556 344.066 140.404C343.762 140.29 343.42 139.872 343.382 139.226C343.344 137.896 343.344 135.768 343.344 134.514C343.344 134.438 343.42 134.286 343.496 134.286C344.712 134.286 346.574 134.286 347.448 134.362C348.018 134.4 348.246 134.78 348.398 135.198C348.423 135.312 348.448 135.413 348.475 135.52C348.528 135.734 348.588 135.971 348.664 136.376C348.816 136.49 349.69 136.452 349.842 136.338C349.804 135.578 349.766 134.324 349.766 133.564C349.766 132.728 349.88 131.322 349.956 130.79C349.842 130.676 348.968 130.6 348.778 130.676C348.702 131.094 348.626 131.474 348.512 131.816C348.36 132.234 348.17 132.69 347.448 132.728C346.498 132.766 344.902 132.766 343.496 132.766C343.42 132.766 343.344 132.652 343.344 132.576C343.318 131.742 343.327 130.471 343.335 129.188C343.339 128.542 343.344 127.892 343.344 127.294C343.344 127.142 343.496 126.8 343.724 126.762C344.066 126.686 347.372 126.686 347.866 126.762C348.778 126.838 349.158 127.18 349.348 127.902C349.5 128.32 349.614 128.852 349.728 129.498C349.804 129.612 350.678 129.612 350.83 129.422C350.906 128.092 351.058 126.154 351.286 125.356C351.286 125.318 351.172 125.166 351.134 125.166C350.488 125.28 349.158 125.318 347.828 125.318H341.824C340.897 125.318 339.849 125.278 339 125.245C338.422 125.223 337.936 125.204 337.644 125.204Z" fill="#A2886F"/>
</svg>
