<svg width="50" height="50" viewBox="0 0 50 50" fill="none" xmlns="http://www.w3.org/2000/svg">
<path d="M24.5784 9.16669L18.4491 19.3859C18.1003 19.9763 17.9167 20.6459 17.9167 21.3276C17.9167 22.0092 18.1003 22.6789 18.4491 23.2692L19.788 25.5584C20.1374 26.1457 20.6377 26.6337 21.2394 26.9743C21.8411 27.3148 22.5233 27.496 23.2187 27.5H25.9172C26.6125 27.496 27.2947 27.3148 27.8964 26.9743C28.4981 26.6337 28.9984 26.1457 29.3479 25.5584L30.7076 23.2692C31.0627 22.681 31.25 22.0105 31.25 21.3276C31.25 20.6446 31.0627 19.9742 30.7076 19.3859L24.5784 9.16669Z" fill="#2C2C2C"/>
<path d="M38.75 31.6667H11.2501V34.3973C11.2471 34.8659 11.3378 35.3304 11.517 35.7643C11.6962 36.1982 11.9604 36.5928 12.2944 36.9256L14.342 38.9483C15.0204 39.62 15.941 39.9983 16.9016 40H33.0166C33.9825 39.9949 34.9082 39.6176 35.5966 38.9483L37.6443 36.9256C38.3244 36.2555 38.7074 35.3461 38.7091 34.3973L38.75 31.6667Z" fill="#2C2C2C"/>
</svg>
