<svg width="150" height="150" viewBox="0 0 150 150" fill="none" xmlns="http://www.w3.org/2000/svg">
<circle cx="75" cy="75" r="75" fill="#EEEEEE"/>
<path d="M111.802 116.469L115.81 130.834L113.603 132.365L101.398 123.765L103.29 122.459L110 127.277L111.892 128.719L114.368 130.744L114.053 131.015L112.927 127.952C112.657 127.096 112.432 126.332 112.207 125.746L109.91 117.819L111.802 116.469ZM111.802 120.972L112.837 122.459L106.847 126.645L105.812 125.161L111.802 120.972Z" fill="#7D942E"/>
<path d="M93.2914 126.961L95.0473 132.274L102.613 138.714L100.226 139.48L96.3084 136.058L95.1374 134.976C94.7771 134.616 94.4168 134.12 93.9665 133.58H94.597C94.597 134.3 94.597 134.931 94.597 135.427C94.597 135.922 94.5973 136.462 94.282 136.957L93.2012 142.048L90.8594 142.813L93.1111 133.175L91.3547 127.86L93.2914 126.961Z" fill="#7D942E"/>
<path d="M76.3585 129.845C77.504 129.792 78.6417 130.056 79.6459 130.61C80.607 131.21 81.3979 132.048 81.9427 133.042C82.5616 134.237 82.871 135.568 82.8432 136.914C82.927 138.245 82.6792 139.575 82.1225 140.786C81.6397 141.819 80.8747 142.693 79.9158 143.309C78.9548 143.943 77.8249 144.273 76.6735 144.254C75.528 144.307 74.3903 144.043 73.3861 143.489C72.4249 142.888 71.6341 142.051 71.0893 141.057C70.4907 139.854 70.1824 138.528 70.1888 137.185C70.1278 135.855 70.374 134.528 70.9089 133.31C71.3917 132.278 72.1567 131.406 73.1156 130.79C74.0854 130.175 75.21 129.847 76.3585 129.845ZM76.3585 131.78C75.6038 131.803 74.8703 132.037 74.2414 132.455C73.5764 132.892 73.0587 133.522 72.7555 134.258C72.39 135.173 72.2213 136.154 72.2602 137.138C72.2569 138.134 72.4722 139.118 72.8907 140.021C73.2382 140.731 73.7661 141.337 74.4218 141.778C75.0857 142.137 75.8289 142.321 76.5833 142.317C77.3542 142.307 78.1054 142.073 78.7449 141.642C79.3951 141.2 79.8976 140.572 80.1863 139.841C80.5767 138.933 80.7464 137.944 80.6816 136.958C80.7006 135.961 80.4846 134.975 80.0511 134.078C79.7278 133.364 79.1935 132.765 78.52 132.365C77.8858 131.969 77.1508 131.766 76.4036 131.78H76.3585ZM73.7011 137.95V136.283H79.2853V137.904L73.7011 137.95Z" fill="#7D942E"/>
<path d="M64.5605 129.214L60.7772 142.725L52.2656 140.383L52.7615 138.582L59.2011 140.383L60.3269 136.33L54.3376 134.707L54.8329 132.906L60.8223 134.573L61.9932 130.384L55.4634 128.583L55.9587 126.826L64.5605 129.214Z" fill="#7D942E"/>
<path d="M51.013 124.8L43.5823 136.734L41.4658 135.428V124.393C41.4658 123.943 41.4658 123.449 41.4658 122.909C41.4658 122.369 41.4658 121.782 41.4658 121.196C41.2529 121.675 41.0121 122.141 40.7451 122.592L40.0244 123.899L39.4389 124.89L35.2059 131.689L33.3594 130.52L40.7902 118.586L42.9066 119.89V130.203C42.9066 130.698 42.9066 131.239 42.9066 131.87C42.9066 132.5 42.9066 133.221 42.9066 134.121H42.5916C42.9519 133.491 43.267 132.951 43.5372 132.411C43.8074 131.87 44.0778 131.42 44.348 131.014L44.8884 130.069L48.8515 123.718L51.013 124.8Z" fill="#7D942E"/>
<path d="M28.3595 123.538L26.9632 124.754L19.7578 116.558L21.1541 115.342L24.0364 118.63L33.0433 110.568L34.4841 112.189L25.4773 120.25L28.3595 123.538Z" fill="#7D942E"/>
<path d="M14.3594 107.777L26.6537 100.932L27.6894 102.825L15.4402 109.668L14.3594 107.777Z" fill="#7D942E"/>
<path d="M19.938 95.2577L17.8666 95.8888L16.335 95.3918L14.8941 94.8069L13.4076 94.1318L8.09391 91.6096L7.32812 88.9533L15.2993 92.8256L19.938 95.2577ZM23.9461 95.6623L10.4358 99.6709L9.80523 97.5995L14.3087 96.3373L17.4158 95.438L18.4069 95.1213L23.4958 93.5909L23.9461 95.6623ZM21.514 87.3766L16.2448 93.9053L14.3087 93.0961L20.7483 84.8984L21.514 87.3766Z" fill="#7D942E"/>
<path d="M20.4199 75.171C20.4849 76.3233 20.2023 77.4685 19.6091 78.4584C19.0593 79.46 18.2089 80.2624 17.1776 80.7541C15.9764 81.3576 14.6489 81.6672 13.3047 81.6557C11.9718 81.7042 10.646 81.4425 9.43181 80.8905C8.3997 80.4077 7.52508 79.6416 6.90962 78.6827C6.31473 77.7062 6.00312 76.5849 6.00916 75.4415C5.94417 74.2892 6.22625 73.144 6.81947 72.1541C7.39552 71.1731 8.23921 70.3753 9.2515 69.8562C10.4593 69.2712 11.7824 68.9648 13.1244 68.9568C14.4553 68.9312 15.7762 69.1919 16.9973 69.722C18.0325 70.2211 18.9067 71.0014 19.5195 71.9737C20.1269 72.9281 20.44 74.0399 20.4199 75.171ZM18.4832 75.171C18.4722 74.4142 18.2376 73.6767 17.8081 73.0534C17.3766 72.4005 16.7671 71.8845 16.0517 71.5669C15.1426 71.1798 14.1557 71.0108 13.1695 71.0722C12.1771 71.0503 11.1924 71.2498 10.2872 71.6571C9.56155 71.98 8.94958 72.5149 8.53079 73.1898C8.12703 73.8369 7.92334 74.5888 7.94532 75.3513C7.96905 76.1136 8.18606 76.8573 8.57587 77.5129C9.04102 78.1415 9.66196 78.6374 10.3774 78.9532C11.3037 79.339 12.3017 79.5238 13.3047 79.4941C14.2854 79.4967 15.2545 79.2808 16.1419 78.863C16.8604 78.5291 17.4689 77.9988 17.8977 77.3326C18.293 76.6983 18.4964 75.9622 18.4832 75.215V75.171Z" fill="#7D942E"/>
<path d="M21.0626 64.1377L19.5316 63.6429L16.8741 58.825L16.3337 57.7893L15.8835 56.7075L15.5234 55.896L16.5141 56.2127L15.7483 56.7075L14.8027 57.2924L13.767 57.8773L9.26359 60.129L7.6875 59.6342L10.8397 49.5917L12.5961 50.1326L11.02 55.221L10.5247 56.7514C10.5247 57.2468 10.209 57.6985 10.0288 58.1038H9.53351L10.3444 57.5628L11.2899 56.9317L12.4609 56.3028L16.0187 54.4997H16.7394L18.7207 58.0136C18.9815 58.4452 19.2075 58.8961 19.3963 59.3638C19.6042 59.7407 19.7848 60.1331 19.9367 60.5358C20.0935 60.8413 20.2288 61.1571 20.3419 61.4814L19.9818 61.2109L20.3869 59.7244C20.3869 59.184 20.7021 58.6441 20.8823 58.0136L22.5034 52.8351L24.3049 53.3739L21.0626 64.1377Z" fill="#7D942E"/>
<path d="M23.1283 27.3008L33.8014 42.5219L32.5403 44.0523L21.8672 28.8312L23.1283 27.3008Z" fill="#7D942E"/>
<path d="M44.3316 29.2815L42.3047 14.465L44.6916 13.293L55.6347 23.4257L53.5633 24.5076L47.5739 18.7881L45.9077 17.1213L43.701 14.7795H44.0611C44.3399 15.818 44.5655 16.8711 44.7367 17.9327C44.7367 18.8334 45.0518 19.598 45.187 20.2284L46.403 28.3799L44.3316 29.2815ZM45.0517 24.778L44.1963 23.2014L50.7261 19.8238L51.5369 21.4444L45.0517 24.778Z" fill="#7D942E"/>
<path d="M65.4598 21.3549C64.4695 21.6046 63.4325 21.6046 62.4423 21.3549C61.5687 21.1259 60.7842 20.6392 60.1905 19.9586C59.6028 19.2643 59.2138 18.4239 59.0647 17.5265L57.3984 8.51968L59.5155 8.11507L61.1366 17.1219C61.2376 17.7005 61.4854 18.2437 61.8568 18.6986C62.2136 19.1502 62.7014 19.4803 63.2531 19.6441C63.8732 19.8063 64.5247 19.8063 65.1448 19.6441C65.7677 19.5278 66.3542 19.2658 66.8561 18.8789C67.2981 18.5321 67.6271 18.0606 67.8016 17.5265C67.9618 16.9674 67.9618 16.375 67.8016 15.8158L66.1805 6.8089L68.2969 6.4043L69.9632 15.4112C70.2112 16.2948 70.2112 17.2301 69.9632 18.1137C69.6471 18.9533 69.101 19.6856 68.3871 20.229C67.5173 20.8366 66.5125 21.223 65.4598 21.3549Z" fill="#7D942E"/>
<path d="M76.5469 7.84491V6L87.4003 7.12586V8.97077L82.8969 8.51999L81.6358 20.6801L79.5193 20.4558L80.7353 8.2957L76.5469 7.84491Z" fill="#7D942E"/>
<path d="M91 22.3014L96.3588 9.33203L98.3857 10.1434L96.0889 15.6364L102.529 18.2949L104.78 12.7998L106.807 13.6552L101.403 26.6245L99.4214 25.7691L101.808 20.0057L95.3682 17.3472L92.9812 23.1128L91 22.3014Z" fill="#7D942E"/>
<path d="M105.992 29.6863L114.999 18.7422L121.889 24.2813L120.719 25.7238L115.494 21.5348L112.883 24.7783L117.701 28.6946L116.575 30.0909L111.712 26.2186L109.01 29.5962L114.278 33.8291L113.107 35.2716L105.992 29.6863Z" fill="#7D942E"/>
<path d="M117.117 39.3247L128.691 31.3535L130.087 33.3787L126.214 42.3856L125.719 43.4675C125.719 43.8728 125.313 44.2783 125.043 44.7737C124.773 45.269 124.503 45.7197 124.143 46.2601V46.0337L125.404 45.0441L126.574 44.1426L127.52 43.4675L134.095 38.9641L135.356 40.765L123.782 48.7362L122.341 46.7087L125.809 38.5594C126.034 38.1091 126.214 37.6586 126.395 37.2533C126.575 36.848 126.845 36.3072 127.16 35.7668L128.196 33.7394V34.0098C127.656 34.4602 127.115 34.8205 126.664 35.2259L125.359 36.1714L124.458 36.8025L118.288 41.0794L117.117 39.3247Z" fill="#7D942E"/>
<path d="M137.524 49.5468L139.28 49.0059L142.568 59.4091L140.811 59.95L139.505 55.805L127.841 59.4992L127.211 57.4718L138.83 53.7336L137.524 49.5468Z" fill="#7D942E"/>
<path d="M144.004 71.4787L129.953 72.4264V70.3088L143.959 69.3633L144.004 71.4787Z" fill="#7D942E"/>
<path d="M128.997 84.7645C129.16 83.6313 129.645 82.5677 130.394 81.7014C131.132 80.8458 132.102 80.221 133.186 79.9004C134.487 79.5799 135.847 79.5799 137.149 79.9004C138.479 80.0732 139.746 80.5693 140.841 81.3429C141.763 82.021 142.48 82.9397 142.913 83.9993C143.32 85.0614 143.414 86.2168 143.183 87.3307C143.09 88.0371 142.877 88.7234 142.553 89.3581C142.221 89.9227 141.811 90.4373 141.337 90.8886C140.828 91.3273 140.25 91.6774 139.625 91.9243C138.958 92.1484 138.257 92.2565 137.554 92.2409L137.914 90.1233C138.349 90.1296 138.781 90.037 139.175 89.8529C139.536 89.6962 139.871 89.485 140.166 89.224C140.445 88.9242 140.687 88.5905 140.886 88.2322C141.08 87.8525 141.202 87.4402 141.246 87.0162C141.471 86.2978 141.471 85.529 141.246 84.8107C140.953 84.0685 140.433 83.4362 139.761 83.0075C138.934 82.461 137.995 82.1071 137.013 81.9718C136.051 81.7422 135.048 81.7422 134.086 81.9718C133.328 82.1672 132.642 82.5743 132.105 83.1439C131.583 83.7077 131.238 84.4111 131.114 85.1691C131.069 85.5882 131.069 86.0122 131.114 86.4313C131.165 86.8253 131.287 87.2067 131.474 87.5572C131.642 87.9345 131.887 88.2709 132.194 88.5467C132.497 88.8428 132.869 89.06 133.276 89.1778L132.87 91.3393C132.23 91.1166 131.635 90.7823 131.114 90.3498C130.613 89.929 130.187 89.4262 129.853 88.8633C129.521 88.2765 129.292 87.6369 129.178 86.9722C129.001 86.2508 128.94 85.505 128.997 84.7645Z" fill="#7D942E"/>
<path d="M132.345 116.649L119.961 102.778L121.087 101.111L133.426 114.982L132.345 116.649Z" fill="#7D942E"/>
<path d="M105.724 42.7469C91.6287 28.6511 66.0947 31.3536 48.7114 48.7368C31.3282 66.1201 28.6257 91.6552 42.7215 105.751C56.8172 119.847 82.3519 117.188 99.7802 99.805C117.208 82.4218 119.82 56.8426 105.724 42.7469ZM92.2142 66.6164H88.5667V63.6874C88.1056 64.7247 87.3137 65.58 86.315 66.1194C85.1498 66.7285 83.8461 67.0232 82.5322 66.9748C80.9463 66.9584 79.3927 66.5243 78.0288 65.7148C76.6544 64.8673 75.546 63.6509 74.831 62.2031C74.0892 60.5789 73.72 58.8077 73.7502 57.0224C73.6156 55.7153 73.7689 54.3962 74.1988 53.1545C74.6287 51.9128 75.3248 50.7803 76.2389 49.8363C77.1529 48.8922 78.2623 48.1577 79.4895 47.6879C80.7166 47.2181 82.0318 47.0239 83.3425 47.1162C85.4857 46.8754 87.6372 47.4937 89.3253 48.8358C91.0135 50.1778 92.1008 52.1337 92.3494 54.2759H87.846C87.6873 53.3009 87.1743 52.4198 86.4051 51.7999C85.6154 51.1692 84.6224 50.848 83.613 50.8984C82.6761 50.8751 81.7524 51.1262 80.9556 51.6196C80.1564 52.1365 79.5421 52.8931 79.1997 53.7812C78.7669 54.8223 78.5522 55.9412 78.5692 57.0686C78.5476 58.2256 78.7622 59.3749 79.1997 60.4462C79.5382 61.3113 80.136 62.0494 80.9111 62.5616C81.7169 63.0769 82.6566 63.345 83.613 63.329C84.3979 63.3482 85.1741 63.1614 85.8647 62.788C86.5191 62.4712 87.0668 61.969 87.4408 61.3455C87.6633 61.0199 87.8165 60.6532 87.8911 60.2659H83.3876V56.6178H92.665L92.2142 66.6164ZM96.1772 66.6164V47.4768H100.681V62.6517H109.688V66.6164H96.1772Z" fill="#7D942E"/>
</svg>
