<svg width="81" height="80" viewBox="0 0 81 80" fill="none" xmlns="http://www.w3.org/2000/svg">
<path d="M63.0577 29.4307L59.5884 25.9497C58.4205 24.7789 56.9676 23.9351 55.3742 23.5021C53.7807 23.0691 52.102 23.062 50.505 23.4814L43.4401 25.3801C41.5238 25.9075 39.775 26.921 38.3622 28.3231L34.2306 32.4686C32.8332 33.8861 31.823 35.6407 31.2974 37.5635L29.405 44.652C28.987 46.2544 28.9941 47.9387 29.4257 49.5375C29.8573 51.1364 30.6982 52.594 31.8651 53.7658L35.3345 57.2468C36.5055 58.412 37.9598 59.2499 39.5531 59.6773C41.1465 60.1047 42.8234 60.1068 44.4178 59.6834L51.4827 57.7848C53.4064 57.2752 55.1595 56.2592 56.5605 54.8417L60.6607 50.7279C62.0674 49.3175 63.079 47.5602 63.5938 45.633L65.4862 38.5445C65.9082 36.9448 65.9061 35.2621 65.4801 33.6635C65.0541 32.0648 64.219 30.6057 63.0577 29.4307ZM60.3768 36.0129L59.1468 37.247C58.951 37.4505 58.7036 37.5963 58.4312 37.6688C58.1588 37.7413 57.8719 37.7378 57.6014 37.6584L55.5513 37.0888C55.2144 37.0088 54.9078 36.833 54.6682 36.5825L52.2712 34.0825C52.0256 33.8263 51.8516 33.5099 51.7665 33.1648L51.1988 31.1079C51.1382 30.8353 51.1438 30.5522 51.2151 30.2823C51.2865 30.0125 51.4215 29.7637 51.6088 29.5572L52.8389 28.3231C53.0365 28.1225 53.2841 27.9786 53.5558 27.9063C53.8275 27.834 54.1135 27.8358 54.3843 27.9117L56.4344 28.4813C56.7832 28.5537 57.102 28.7302 57.349 28.9876L59.7145 31.4876C59.9692 31.7419 60.1539 32.0581 60.2507 32.4053L60.7868 34.4622C60.8812 34.7473 60.8928 35.0534 60.8202 35.3448C60.7476 35.6362 60.5938 35.9008 60.3768 36.1078V36.0129Z" fill="#BC8565"/>
<path d="M34.3567 23.8929L31.4866 21.0449C30.5203 20.0689 29.3117 19.3697 27.9857 19.0196L23.0971 17.6904C21.9887 17.3942 20.8221 17.3962 19.7148 17.6962C18.6074 17.9962 17.5983 18.5836 16.7892 19.3993L14.3922 21.8043C13.582 22.6176 13.0006 23.6315 12.707 24.743C12.4134 25.8546 12.4181 27.0242 12.7206 28.1334L14.0137 33.0384C14.3664 34.3835 15.0747 35.608 16.0638 36.5826L18.9023 39.4307C19.8686 40.4067 21.0773 41.1059 22.4032 41.456L25.5572 42.3104L27.4495 35.2219C27.9574 33.2917 28.97 31.5328 30.3827 30.127L34.4829 26.0131C34.7517 25.7435 35.036 25.4899 35.3344 25.2537C35.0416 24.7771 34.7148 24.3223 34.3567 23.8929ZM22.3717 24.4309C22.3012 24.683 22.1835 24.9193 22.0248 25.1271L20.1955 26.9309C20.0249 27.1364 19.7925 27.2807 19.5331 27.3422L18.0192 27.8169C17.8167 27.8735 17.603 27.877 17.3987 27.8271C17.1945 27.7773 17.0063 27.6757 16.8523 27.5321L16.253 27.0258C16.1044 26.8811 15.9969 26.6993 15.9415 26.4991C15.8861 26.2989 15.8847 26.0875 15.9376 25.8866L16.2845 24.336C16.3479 24.0839 16.4788 23.8541 16.663 23.6714L18.4608 21.836C18.6401 21.6409 18.8691 21.4986 19.1231 21.4246L20.6686 20.9499C21.047 20.9499 21.2993 20.7601 21.6147 20.9499L22.4032 21.6145C22.5574 21.7558 22.6708 21.9361 22.7319 22.1365C22.7929 22.3369 22.7992 22.55 22.7502 22.7537L22.3717 24.4309Z" fill="#BC8565"/>
</svg>
