<svg width="1281" height="127" viewBox="0 0 1281 127" fill="none" xmlns="http://www.w3.org/2000/svg">
<path d="M59.8555 83.6122H88.4675C87.838 86.0911 86.836 88.4579 85.4943 90.6353C83.0129 94.5908 79.4554 97.7583 75.2388 99.7641C70.879 101.938 66.0596 103.026 61.1888 102.941C55.1333 103.128 49.157 101.523 44.0103 98.327C39.064 95.0097 35.2376 90.2727 33.0362 84.7389C30.3414 78.0299 29.0501 70.8393 29.2417 63.6119C29.0777 56.4768 30.4051 49.3857 33.1388 42.7929C35.4059 37.2391 39.2815 32.491 44.2669 29.1548C49.3103 25.9289 55.2038 24.2863 61.1888 24.4376C67.556 24.2607 73.7821 26.3283 78.7766 30.2815C83.6499 34.2152 86.9151 39.7969 87.9555 45.9727H117.132C113.44 16.8471 91.4934 0.796875 60.7268 0.796875C24.2684 0.796875 0.013694 24.3857 0.013694 63.4592C-0.205916 74.7005 2.2186 85.8354 7.09065 95.9684C11.4642 105.135 18.3898 112.845 27.0371 118.172C36.0718 123.588 46.4524 126.342 56.9836 126.119C65.2182 126.422 73.397 124.659 80.7759 120.991C87.1089 117.563 92.1503 112.162 95.1339 105.608V123.966H118.106V60.6374H59.5475L59.8555 83.6122Z" fill="white"/>
<path d="M221.366 70.7919C226.041 67.5836 229.889 63.3127 232.595 58.3305C235.296 53.3246 236.673 47.7108 236.595 42.0234C236.742 34.9981 234.969 28.0676 231.467 21.9755C227.937 16.1196 222.863 11.3455 216.802 8.17964C210.107 4.70197 202.654 2.94006 195.111 3.05188H133.578V123.915H161.729V81.6108H183.112L208.444 123.915H240.03L210.546 76.0724C214.375 74.8106 218.016 73.0349 221.366 70.7919ZM205.572 50.7416C204.101 53.12 202.009 55.0516 199.522 56.33C196.838 57.7508 193.84 58.4746 190.803 58.4332H161.729V26.4874H190.803C195.3 26.3136 199.684 27.9167 203.008 30.9491C204.563 32.4424 205.786 34.2457 206.599 36.2421C207.411 38.2385 207.795 40.3823 207.725 42.5366C207.744 45.4342 206.945 48.2786 205.418 50.7416H205.572Z" fill="white"/>
<path d="M280.088 74.3251H336.545V50.6862H280.088V27.7138H341.365V3.20312H251.578V124.064H342.237V99.5537H280.088V74.3251Z" fill="white"/>
<path d="M384.026 74.3251H440.483V50.6862H384.026V27.7138H445.303V3.20312H355.516V124.064H446.174V99.5537H384.026V74.3251Z" fill="white"/>
<path d="M569.649 124.064L513.807 60.7879L568.931 3.20312H532.985L487.963 51.5066V3.20312H459.453V124.064H487.963V73.4534L532.985 124.064H569.649Z" fill="white"/>
<path d="M640.87 3.20312H612.359V124.013H696.916V99.1948H640.87V3.20312Z" fill="white"/>
<path d="M739.537 74.3251H796.045V50.6862H739.537V27.7138H800.865V3.20312H739.537H732.666H711.078V124.013H732.666H739.537H801.737V99.5024H739.537V74.3251Z" fill="white"/>
<path d="M971.354 74.3251H1027.81V50.6862H971.354V27.7138H1032.63V3.20312H971.354H964.432H942.844V124.013H964.432H971.354H1033.5V99.5024H971.354V74.3251Z" fill="white"/>
<path d="M1129.34 87.8624L1079.75 3.20312H1046.78V124.013H1072.16V39.5077L1121.54 124.013H1154.67V3.20312H1129.34V87.8624Z" fill="white"/>
<path d="M1273.3 32.2777C1268.36 23.3098 1261.03 15.8885 1252.12 10.8428C1242.73 5.60527 1232.11 2.9513 1221.36 3.15113H1169.72V124.014H1221.36C1232.11 124.214 1242.73 121.56 1252.12 116.322C1261.05 111.274 1268.38 103.832 1273.3 94.8373C1278.52 85.2676 1281.17 74.5067 1280.99 63.6076C1281.19 52.6731 1278.54 41.8753 1273.3 32.2777ZM1248.33 83.1972C1245.9 88.5276 1241.94 93.0091 1236.94 96.0667C1231.7 99.1141 1225.72 100.658 1219.66 100.528H1198.28V26.6367H1219.51C1225.63 26.4856 1231.67 28.048 1236.94 31.1485C1241.95 34.1939 1245.92 38.6814 1248.33 44.0205C1251.12 50.1654 1252.48 56.8604 1252.33 63.6076C1252.48 70.3543 1251.11 77.0507 1248.33 83.1972Z" fill="white"/>
<path d="M869.368 83.6122H897.93C897.318 86.0887 896.332 88.4556 895.006 90.6353C892.582 94.5439 889.121 97.7049 885.008 99.7641C880.626 101.929 875.792 103.017 870.906 102.941C864.853 103.113 858.881 101.509 853.728 98.3269C848.795 94.9954 844.973 90.263 842.755 84.7389C840.084 78.0232 838.793 70.8374 838.96 63.6119C838.823 56.479 840.15 49.3933 842.858 42.7929C845.159 37.2596 849.026 32.5207 853.984 29.1548C859.028 25.9289 864.921 24.2863 870.906 24.4376C877.289 24.2618 883.531 26.3286 888.545 30.2815C893.4 34.2237 896.646 39.8043 897.673 45.9727H926.85C923.209 16.8471 901.211 0.796875 870.444 0.796875C833.986 0.796875 809.732 24.3857 809.732 63.4592C809.513 74.7005 811.936 85.8354 816.808 95.9684C821.199 105.124 828.122 112.829 836.756 118.172C845.791 123.588 856.17 126.342 866.701 126.119C874.953 126.428 883.151 124.665 890.546 120.991C896.865 117.56 901.887 112.158 904.851 105.608V123.966H927.824V60.6374H869.316L869.368 83.6122Z" fill="white"/>
</svg>
