<svg width="1281" height="127" viewBox="0 0 1281 127" fill="none" xmlns="http://www.w3.org/2000/svg">
<path d="M59.8555 83.6151H88.4675C87.838 86.094 86.836 88.4609 85.4943 90.6382C83.0129 94.5937 79.4554 97.7612 75.2388 99.7671C70.879 101.941 66.0596 103.029 61.1888 102.944C55.1333 103.131 49.157 101.526 44.0103 98.3299C39.064 95.0126 35.2376 90.2757 33.0362 84.7418C30.3414 78.0329 29.0501 70.8422 29.2417 63.6149C29.0777 56.4797 30.4051 49.3886 33.1388 42.7958C35.4059 37.242 39.2815 32.494 44.2669 29.1577C49.3103 25.9318 55.2038 24.2893 61.1888 24.4406C67.556 24.2637 73.7821 26.3313 78.7766 30.2844C83.6499 34.2181 86.9151 39.7998 87.9555 45.9757H117.132C113.44 16.85 91.4934 0.799805 60.7268 0.799805C24.2684 0.799805 0.013694 24.3886 0.013694 63.4621C-0.205916 74.7034 2.2186 85.8383 7.09065 95.9713C11.4642 105.138 18.3898 112.848 27.0371 118.175C36.0718 123.591 46.4524 126.345 56.9836 126.122C65.2182 126.425 73.397 124.662 80.7759 120.994C87.1089 117.566 92.1503 112.165 95.1339 105.611V123.969H118.106V60.6404H59.5475L59.8555 83.6151Z" fill="#2C2C2C"/>
<path d="M221.369 70.7948C226.044 67.5866 229.892 63.3156 232.598 58.3335C235.299 53.3276 236.676 47.7137 236.598 42.0263C236.745 35.001 234.972 28.0705 231.47 21.9785C227.94 16.1225 222.866 11.3484 216.804 8.18257C210.11 4.7049 202.657 2.94299 195.114 3.05481H133.581V123.918H161.732V81.6137H183.115L208.447 123.918H240.033L210.549 76.0753C214.378 74.8135 218.019 73.0378 221.369 70.7948ZM205.575 50.7445C204.104 53.123 202.012 55.0545 199.525 56.3329C196.841 57.7538 193.842 58.4776 190.806 58.4361H161.732V26.4903H190.806C195.302 26.3165 199.687 27.9196 203.011 30.952C204.565 32.4454 205.789 34.2486 206.602 36.245C207.414 38.2414 207.798 40.3852 207.728 42.5396C207.747 45.4371 206.948 48.2816 205.421 50.7445H205.575Z" fill="#2C2C2C"/>
<path d="M280.092 74.333H336.549V50.694H280.092V27.7216H341.369V3.21094H251.582V124.072H342.241V99.5615H280.092V74.333Z" fill="#2C2C2C"/>
<path d="M384.028 74.333H440.485V50.694H384.028V27.7216H445.305V3.21094H355.518V124.072H446.176V99.5615H384.028V74.333Z" fill="#2C2C2C"/>
<path d="M569.649 124.072L513.807 60.7957L568.931 3.21094H532.985L487.963 51.5144V3.21094H459.453V124.072H487.963V73.4612L532.985 124.072H569.649Z" fill="#2C2C2C"/>
<path d="M640.875 3.21094H612.364V124.021H696.921V99.2026H640.875V3.21094Z" fill="#2C2C2C"/>
<path d="M739.534 74.333H796.042V50.694H739.534V27.7216H800.862V3.21094H739.534H732.663H711.075V124.021H732.663H739.534H801.734V99.5102H739.534V74.333Z" fill="#2C2C2C"/>
<path d="M971.356 74.333H1027.81V50.694H971.356V27.7216H1032.63V3.21094H971.356H964.433H942.845V124.021H964.433H971.356H1033.5V99.5102H971.356V74.333Z" fill="#2C2C2C"/>
<path d="M1129.34 87.8702L1079.76 3.21094H1046.78V124.021H1072.17V39.5155L1121.55 124.021H1154.67V3.21094H1129.34V87.8702Z" fill="#2C2C2C"/>
<path d="M1273.29 32.287C1268.36 23.319 1261.02 15.8978 1252.12 10.852C1242.72 5.61454 1232.11 2.96058 1221.35 3.16041H1169.71V124.023H1221.35C1232.11 124.223 1242.72 121.569 1252.12 116.332C1261.04 111.283 1268.37 103.842 1273.29 94.8466C1278.51 85.2768 1281.16 74.516 1280.99 63.6169C1281.19 52.6823 1278.54 41.8845 1273.29 32.287ZM1248.32 83.2065C1245.9 88.5369 1241.93 93.0183 1236.94 96.076C1231.7 99.1234 1225.72 100.668 1219.66 100.538H1198.28V26.6459H1219.5C1225.62 26.4949 1231.66 28.0573 1236.94 31.1578C1241.94 34.2031 1245.91 38.6906 1248.32 44.0297C1251.11 50.1746 1252.48 56.8697 1252.32 63.6169C1252.47 70.3636 1251.11 77.06 1248.32 83.2065Z" fill="#2C2C2C"/>
<path d="M869.373 83.6151H897.935C897.323 86.0916 896.337 88.4585 895.011 90.6382C892.587 94.5468 889.125 97.7078 885.012 99.767C880.631 101.932 875.797 103.02 870.911 102.944C864.857 103.116 858.885 101.512 853.733 98.3299C848.799 94.9984 844.978 90.2659 842.76 84.7418C840.088 78.0261 838.798 70.8404 838.965 63.6148C838.828 56.4819 840.154 49.3962 842.862 42.7958C845.164 37.2626 849.031 32.5236 853.989 29.1577C859.033 25.9318 864.926 24.2893 870.911 24.4406C877.294 24.2647 883.536 26.3315 888.55 30.2844C893.405 34.2266 896.651 39.8073 897.678 45.9757H926.855C923.214 16.85 901.216 0.799805 870.449 0.799805C833.991 0.799805 809.737 24.3886 809.737 63.4621C809.518 74.7034 811.941 85.8383 816.813 95.9713C821.204 105.127 828.126 112.832 836.761 118.175C845.795 123.591 856.175 126.345 866.706 126.122C874.958 126.431 883.156 124.668 890.551 120.994C896.869 117.563 901.892 112.161 904.856 105.611V123.969H927.829V60.6403H869.321L869.373 83.6151Z" fill="#2C2C2C"/>
</svg>
