<svg width="214" height="80" viewBox="0 0 214 80" fill="none" xmlns="http://www.w3.org/2000/svg">
<path d="M211.191 40.2767C210.655 40.0451 210.119 39.8521 209.506 39.8393C208.421 39.8264 207.374 39.9422 206.34 40.2638C205.651 40.4696 204.974 40.714 204.246 40.6754C204.157 40.6754 204.055 40.7655 203.953 40.8041C203.416 40.997 202.88 41.2157 202.357 40.7655C202.306 40.7269 202.242 40.6754 202.191 40.6754C201.501 40.7655 200.978 40.3667 200.416 40.0708C199.918 39.8136 199.407 39.5434 198.999 39.1575C198.488 38.6687 197.927 38.2699 197.326 37.8969C197.173 37.7939 197.046 37.7168 196.905 37.5495C196.535 37.0607 196.101 36.5847 195.59 36.2374C194.914 35.7872 194.096 35.6843 193.292 35.62C192.335 35.5428 191.428 35.8001 190.547 36.1088C190.139 36.2503 189.705 36.2631 189.334 36.5204C189.002 36.7648 188.658 37.035 188.275 37.1508C187.636 37.3437 187.215 37.7425 186.807 38.2184C186.653 38.3985 186.411 38.4886 186.206 38.6044C186.079 38.6815 185.913 38.733 185.836 38.8488C185.479 39.3119 185.172 39.8136 184.789 40.2638C184.036 41.1385 183.257 41.9747 182.491 42.8237C182.274 43.0681 182.044 43.3125 181.891 43.5955C181.712 43.9043 181.317 43.93 181.163 44.303C181.023 44.6761 180.755 45.0234 180.295 45.1134C180.219 45.1263 180.168 45.2678 180.117 45.345C179.67 45.9753 179.185 46.5799 178.61 47.1073C178.419 47.2746 178.176 47.4032 177.946 47.5061C177.844 47.5447 177.64 47.5318 177.576 47.4547C177.372 47.2488 177.218 47.0044 177.04 46.7729C176.861 46.5285 176.682 46.2712 176.516 46.0268C176.44 45.8981 176.363 45.7695 176.287 45.6409C176.197 45.4736 176.133 45.2807 176.018 45.1263C175.789 44.779 175.469 44.4831 175.316 44.1101C175.035 43.3768 174.627 42.7208 174.269 42.0261C174.142 41.7817 173.963 41.5373 173.886 41.2672C173.669 40.4696 173.491 39.6592 173.286 38.8616C173.235 38.6558 173.095 38.4629 173.082 38.257C173.069 37.8068 172.891 37.408 172.763 36.9964C172.635 36.5847 172.342 36.1602 172.533 35.7229C172.788 35.1697 173.12 34.6552 173.439 34.1406C173.848 33.4588 174.282 32.7899 174.691 32.1081C174.972 31.6193 175.214 31.1176 175.469 30.6159C175.725 30.1143 175.929 29.5868 176.248 29.1237C176.963 28.0689 177.346 26.8468 177.87 25.702C178.24 24.9173 178.419 24.0425 178.814 23.2836C179.185 22.5632 179.44 21.8042 179.695 21.0453C180.04 20.0033 180.321 18.9356 181.036 18.0737C181.444 18.4339 181.547 18.0223 181.815 17.7907C181.636 17.6621 181.508 17.5206 181.368 17.4949C180.972 17.4048 180.806 17.289 180.946 16.9932C181.215 16.4658 181.125 15.874 181.278 15.3337C181.495 14.4847 181.802 13.61 181.738 12.6838C181.725 12.5809 181.789 12.478 181.815 12.3622C181.942 11.7447 182.198 11.153 182.147 10.4969C182.121 10.2011 182.223 9.89235 182.3 9.59648C182.364 9.32634 182.504 9.0562 182.53 8.78606C182.606 7.71837 182.683 6.65067 182.708 5.59584C182.721 5.1842 182.657 4.74683 182.491 4.37378C182.325 4.00073 182.121 3.61481 181.649 3.42186C180.793 3.07453 180.104 3.42186 179.453 3.87209C178.917 4.23228 178.47 4.7211 178.074 5.24852C177.525 5.98175 176.899 6.66354 176.363 7.39677C176.095 7.75696 175.929 8.19433 175.738 8.60597C175.623 8.83752 175.546 9.09479 175.431 9.32634C175.342 9.49357 175.189 9.63507 175.099 9.81517C174.716 10.5484 174.346 11.2816 173.976 12.0149C173.746 12.4651 173.491 12.9025 173.337 13.3784C173.095 14.1117 172.903 14.8706 172.712 15.6296C172.507 16.4272 172.367 17.2504 172.099 18.0351C171.946 18.4725 171.844 19.0514 171.269 19.1929C171.039 19.2443 170.771 19.1543 170.529 19.18C169.929 19.2572 169.367 19.5273 168.741 19.5016C168.307 19.4887 167.86 19.5531 167.452 19.6946C166.954 19.8747 166.469 19.9904 165.945 20.0805C165.537 20.1577 165.115 20.1448 164.707 20.2863C164.362 20.4021 163.979 20.4149 163.622 20.4664C163.494 20.4793 163.328 20.4407 163.226 20.505C162.536 20.8909 161.681 20.7494 161.017 21.2254C160.953 21.264 160.826 21.2768 160.762 21.2382C160.124 20.878 159.536 21.4055 158.923 21.354C158.272 21.83 157.455 21.6885 156.74 21.8943C156.268 22.0358 155.732 21.9972 155.247 22.113C154.864 22.2159 154.506 22.4346 154.174 22.5889C153.97 22.5632 153.689 22.4474 153.574 22.5375C153.268 22.7947 152.936 22.6661 152.617 22.7176C152.119 22.7819 151.582 22.7819 151.136 22.962C150.574 23.1935 150.025 23.3222 149.425 23.2964C149.246 23.2836 149.067 23.3093 148.901 23.3608C148.506 23.4637 148.123 23.6438 147.727 23.6952C146.731 23.8239 145.786 24.0683 144.854 24.4027C144.267 24.6085 143.667 25.0588 143.054 24.5056C142.812 24.66 142.633 24.8401 142.416 24.9044C141.611 25.136 140.807 25.4061 139.977 25.5219C139.224 25.6248 138.471 25.6891 137.743 25.9464C137.654 25.9721 137.539 25.9078 137.347 25.8692C137.449 25.5862 137.577 25.3546 137.615 25.1102C137.717 24.3899 137.947 23.6952 138.266 23.0649C138.547 22.5246 138.458 21.83 138.969 21.4055C139.007 21.3669 139.007 21.2768 139.007 21.2125C139.045 20.4407 139.275 19.7203 139.633 19.0385C139.901 18.524 139.824 17.9065 140.194 17.3919C140.411 17.0961 140.424 16.6587 140.501 16.2728C140.577 15.874 140.858 15.5782 140.999 15.2308C141.152 14.8578 141.267 14.4461 141.292 14.0345C141.318 13.6486 141.177 13.2498 141.624 13.0054C141.65 12.9925 141.637 12.8768 141.637 12.8124C141.611 12.478 141.662 12.195 141.931 11.9634C142.007 11.8862 142.02 11.7319 142.033 11.6032C142.058 11.4231 142.02 11.2302 142.084 11.0758C142.416 10.1754 142.697 9.27489 142.863 8.32297C142.926 7.98851 143.118 7.67978 143.233 7.35818C143.297 7.17809 143.412 6.98513 143.399 6.79217C143.399 6.17471 143.692 5.64729 143.858 5.08129C143.986 4.60533 144.139 4.12937 144.203 3.62768C144.292 2.97162 144.05 2.4828 143.22 2.23839C143.029 2.46993 142.773 2.75294 142.556 3.06167C142.403 3.26749 142.326 3.52477 142.199 3.75632C142.122 3.88495 142.007 3.98786 141.918 4.1165C141.611 4.56674 141.254 4.99124 141.037 5.48007C140.807 5.98175 140.335 6.32908 140.22 6.88222C140.182 7.04945 140.143 7.22954 140.067 7.37104C139.671 8.13001 139.224 8.85038 138.879 9.62221C138.42 10.6513 138.1 11.7447 137.603 12.7481C137.347 13.2627 137.488 13.9959 136.849 14.3175C136.824 14.3304 136.824 14.459 136.862 14.5105C136.99 14.6648 136.9 14.7806 136.824 14.9221C136.722 15.0765 136.658 15.2694 136.607 15.4495C136.505 15.8354 136.466 16.2213 136.339 16.6073C136.007 17.675 135.56 18.7169 135.381 19.8361C135.317 20.222 135.1 20.5693 135.062 20.9552C134.998 21.4955 134.768 21.9586 134.551 22.4346C134.513 22.5117 134.462 22.6275 134.487 22.679C134.768 23.0649 134.436 23.3479 134.347 23.6695C134.309 23.811 134.219 23.9525 134.194 24.094C134.117 24.8015 134.079 25.509 134.002 26.2037C133.977 26.4095 133.887 26.6282 133.76 26.7954C133.696 26.8854 133.504 26.8983 133.364 26.9498C132.509 27.2456 131.525 27.0655 130.759 27.6701C130.747 27.683 130.708 27.6959 130.696 27.6959C130.287 27.4386 129.904 27.8245 129.496 27.773C129.189 27.7344 128.87 27.9017 128.564 27.9789C128.308 28.0432 128.066 28.1075 127.81 28.159C127.517 28.2233 127.223 28.249 126.929 28.339C126.751 28.3905 126.585 28.5063 126.406 28.5706C125.997 28.7121 125.563 28.7764 125.193 28.9951C124.861 29.1881 124.529 29.2138 124.184 29.2009C123.304 29.1623 122.448 29.291 121.695 29.7927C121.529 29.9084 121.299 29.9599 121.095 30.0113C120.418 30.1657 119.742 30.3072 119.065 30.4358C118.784 30.4873 118.516 30.5774 118.235 30.5902C117.635 30.5902 117.086 30.796 116.55 31.0276C116.256 31.1562 115.988 31.2463 115.669 31.2334C115.299 31.2077 114.967 31.3106 114.711 31.5807C114.494 31.7994 114.265 31.838 113.984 31.8251C113.69 31.8123 113.396 31.7865 113.116 31.8509C112.745 31.9409 112.324 32.0181 112.043 32.2496C111.647 32.5841 111.328 32.404 110.958 32.3268C110.932 32.3268 110.894 32.3911 110.856 32.404C110.179 32.7642 109.413 32.9314 108.685 33.0086C107.613 33.1244 106.668 33.6389 105.596 33.729C105.123 33.7676 104.651 33.9477 104.166 34.0506C104.191 33.819 104.217 33.6132 104.242 33.4074C104.345 32.6999 104.804 32.0696 104.715 31.3106C104.702 31.2334 104.753 31.1434 104.779 31.0533C104.957 30.3973 105.149 29.7541 105.123 29.0594C105.085 28.0303 105.123 26.9883 105.111 25.9592C105.111 25.7663 105.085 25.5605 105.008 25.3804C104.83 24.943 104.83 24.5442 105.021 24.1069C105.226 23.6309 105.404 23.1292 105.494 22.6147C105.609 21.9586 105.621 21.2897 105.685 20.6336C105.698 20.5436 105.685 20.4407 105.736 20.3764C106.055 19.939 105.902 19.3987 106.055 18.9099C106.196 18.4468 106.158 17.9322 106.26 17.4177C106.426 16.6201 106.375 15.784 106.451 14.9736C106.528 14.0988 106.592 13.1983 106.323 12.3107C106.196 11.8862 106.336 11.4103 106.106 10.96C105.953 10.6642 105.979 10.2783 105.902 9.93094C105.8 9.46784 105.723 8.99188 105.557 8.55451C105.072 7.30673 104.166 6.3934 103.119 5.59584C103.119 5.54438 103.106 5.4672 103.145 5.42861C103.783 4.73396 104.396 4.01359 105.328 3.71772C105.404 3.692 105.468 3.62768 105.532 3.57622C105.953 3.19031 106.375 2.81726 106.809 2.41848C106.758 2.22552 106.706 1.99397 106.643 1.77529C105.915 1.68524 105.481 1.8782 105.111 2.44421C105.034 2.55998 104.919 2.63716 104.804 2.72721C104.128 3.26749 103.464 3.85923 102.749 4.33519C102.264 4.65678 101.791 5.26138 101.076 4.74683C100.974 4.66965 100.77 4.73396 100.617 4.73396C99.5059 4.73396 98.3824 4.70824 97.2717 4.74683C96.9525 4.75969 96.6717 4.60533 96.3142 4.69537C95.7907 4.83688 95.2545 4.77256 94.7055 4.91406C94.0672 5.08129 93.3522 4.92692 92.6756 5.11988C92.1394 5.27424 91.5393 5.22279 91.0159 5.40288C90.5946 5.54438 90.135 5.39002 89.7903 5.58298C89.2413 5.89171 88.6285 5.76307 88.0667 5.90457C87.505 6.03321 86.9305 6.16185 86.3687 6.30335C85.9985 6.3934 85.6155 6.56062 85.2452 6.56062C84.4154 6.57349 83.6366 6.84363 82.8706 7.06231C82.1556 7.26813 81.4407 7.40964 80.7257 7.564C80.3044 7.65405 79.9214 7.93705 79.449 7.85987C79.1554 8.28437 78.6958 8.11715 78.3 8.20719C77.751 8.33583 77.2659 8.68315 76.6786 8.64456C76.3722 9.08193 75.9126 8.99188 75.4657 9.01761C75.3381 9.01761 75.2232 9.12052 75.1082 9.15911C74.4571 9.3778 73.8188 9.67367 73.1421 9.78944C72.4144 9.90521 71.7761 10.1882 71.1505 10.5484C70.7419 10.78 70.2313 10.8057 69.861 11.1659C69.7589 11.2688 69.4652 11.1659 69.2737 11.1916C68.6482 11.2302 68.163 11.719 67.4991 11.5775C67.397 11.5518 67.231 11.7833 67.0906 11.8862C66.9757 11.9763 66.8608 12.1435 66.7331 12.1564C65.7501 12.285 64.8691 12.6709 64.0265 13.1855C63.8478 13.2884 63.6307 13.3141 63.4265 13.3913C63.1839 13.4814 62.9413 13.5714 62.6987 13.6872C62.5072 13.7772 62.3285 13.9059 62.137 13.9702C61.6774 14.1374 61.0901 14.1631 60.7454 14.4719C60.1071 15.0379 59.3155 15.2051 58.5878 15.5138C58.1282 15.7197 57.7962 15.9126 57.6175 16.35C56.6344 16.44 56.6344 16.44 56.0089 16.8131C55.8301 16.9289 55.6641 17.0832 55.4726 17.199C55.0896 17.4305 54.6811 17.6235 54.3108 17.8808C53.8129 18.2152 53.5065 18.8584 52.7788 18.8456C52.7405 18.8456 52.6894 18.8841 52.6767 18.9099C52.0894 19.6946 51.1574 20.1191 50.6084 20.9424C50.5701 21.0067 50.468 21.0581 50.3914 21.0581C50.085 21.071 49.9573 21.2511 49.8041 21.5084C49.6892 21.6885 49.3828 21.7528 49.1658 21.8686C49.1402 21.8814 49.1147 21.8943 49.1147 21.9071C48.8849 22.6018 48.1955 22.7433 47.6848 23.0649C47.1996 23.3608 46.6124 23.4894 46.0889 23.7338C45.2718 24.1197 44.5952 24.7886 43.7398 25.0588C43.4206 25.1617 43.4589 25.4961 43.2291 25.6119C42.7823 25.8306 42.412 26.0879 42.0673 26.4738C41.5694 27.0398 40.9055 27.4643 40.3182 27.9531C40.2544 28.0046 40.1778 28.0689 40.1267 28.1461C39.8969 28.5191 39.6288 28.8665 39.4501 29.2652C39.2714 29.6769 38.9905 29.947 38.6075 30.1528C38.467 30.23 38.2883 30.3587 38.2245 30.5002C37.867 31.3749 36.8967 31.4135 36.2966 31.928C35.7604 31.7737 35.3391 32.1853 34.8157 32.1982C34.4327 32.2111 33.9731 32.3783 33.6794 32.6356C33.0666 33.1887 32.2878 33.4074 31.6239 33.8576C31.5346 33.9219 31.4452 33.9734 31.3431 33.9991C30.7941 34.1792 30.1685 34.1406 29.7727 34.6809C29.7472 34.7195 29.6323 34.6552 29.5685 34.6809C29.3642 34.771 29.1599 34.861 28.9684 34.9768C28.8918 35.0282 28.8535 35.1826 28.7769 35.1955C28.1896 35.2855 27.6662 35.5685 27.13 35.8001C26.6959 35.993 26.2746 36.2117 25.8533 36.4175C25.5979 36.5462 25.3809 36.7391 25.1128 36.8163C24.3978 37.0093 23.7467 37.3051 23.1467 37.7296C23.0828 37.7811 22.9807 37.8197 22.9041 37.8197C22.3168 37.8197 21.87 38.2313 21.321 38.36C20.7337 38.5143 20.3507 39.1318 19.674 39.0546C19.6485 39.0546 19.623 39.0675 19.6102 39.0803C19.0995 39.6849 18.2824 39.6849 17.6569 40.0708C17.3122 40.2895 16.9292 40.4182 16.5078 40.5082C15.9972 40.624 15.5631 40.997 15.0652 41.2029C14.3119 41.5244 13.5331 41.7946 12.7671 42.0905C11.8862 42.4378 10.9542 42.6693 10.0988 43.081C9.79241 43.2353 9.47324 43.3897 9.16683 43.5312C8.89872 43.647 8.38805 43.6598 8.27314 43.6084C7.96674 43.8013 7.7114 43.9686 7.51989 44.0843C7.77523 44.9462 8.42635 44.9719 8.96256 45.062C9.30727 45.1134 9.72858 45.1134 10.0478 44.7275C10.252 44.4703 10.584 44.2902 10.8904 44.1358C11.2223 43.9814 11.5798 43.9043 11.9245 43.7885C12.3458 43.6341 12.7671 43.4669 13.2012 43.3125C13.4821 43.2096 13.8523 43.1967 14.031 43.0166C14.4524 42.5793 15.1418 42.7722 15.5248 42.2834C16.061 42.2705 16.444 41.7817 17.0185 41.8332C17.1973 41.846 17.3888 41.6274 17.5803 41.5244C17.8867 41.3701 18.1931 41.2157 18.4995 41.0614C18.7293 40.9456 18.9591 40.8169 19.1889 40.7012C19.3421 40.624 19.4953 40.5468 19.6485 40.4825C19.9294 40.3796 20.223 40.2895 20.5039 40.1866C21.6402 39.775 22.6998 39.1832 23.8489 38.7845C24.9851 38.3857 26.0065 37.691 27.13 37.2408C27.7811 36.9835 28.3811 36.5976 29.0067 36.2889C29.1727 36.2117 29.3897 36.1088 29.5429 36.1345C29.8493 36.1988 29.76 35.8515 30.0025 35.7872C30.743 35.5685 31.458 35.2598 32.1346 34.9124C32.7091 34.6166 33.2836 34.3207 33.8326 33.9863C34.3561 33.6518 35.071 33.6518 35.4413 33.0472C35.4796 32.9829 35.6455 32.9829 35.7604 32.9957C36.1562 33.0343 36.4882 32.8928 36.8073 32.687C36.8839 32.6356 36.9988 32.6484 37.101 32.6356C37.101 32.7513 37.1265 32.88 37.0882 32.9829C36.8712 33.4974 36.4754 33.9477 36.552 34.578C36.5648 34.6552 36.5265 34.7581 36.4754 34.8224C35.9136 35.5556 35.5562 36.4047 35.2625 37.2665C35.071 37.8454 34.854 38.4243 34.8029 39.0289C34.7518 39.6335 34.5348 40.1737 34.4327 40.7526C34.3305 41.3572 34.0752 41.9232 34.139 42.5664C34.1901 43.0938 34.1263 43.6212 34.0241 44.1487C33.9348 44.6375 33.8709 45.1392 33.7433 45.628C33.6667 45.911 33.9603 46.104 33.8326 46.4127C33.7305 46.67 33.7688 46.9787 33.7688 47.2746C33.7688 48.4194 33.7433 49.5643 33.7688 50.7092C33.7816 51.674 33.6411 52.6645 33.9731 53.6164C34.0752 53.9123 33.8709 54.1567 33.6028 54.2339C33.0538 54.414 32.5049 54.5426 31.9686 54.7999C31.0239 55.2501 29.9515 55.3916 29.0705 56.022C29.0322 56.0477 28.9812 56.0477 28.9429 56.0477C28.5854 56.0348 28.2662 56.1892 27.9343 56.2535C26.8874 56.4207 25.9809 56.961 25.0106 57.3212C24.8702 57.3727 24.7425 57.4498 24.6021 57.5013C23.9382 57.7586 23.2871 58.0287 22.6232 58.286C22.2657 58.4275 21.9083 58.6076 21.538 58.6976C21.1678 58.7877 20.9124 59.3537 20.4401 58.9678C20.4401 58.9678 20.389 59.0192 20.3635 59.045C20.0954 59.4437 19.6485 59.5338 19.2655 59.701C19.1761 59.5724 19.1123 59.4695 18.9974 59.3151C18.8953 59.6624 18.9336 60.1255 18.5378 60.0869C17.9888 60.0226 17.7207 60.6272 17.21 60.5629C16.7249 60.9874 16.0865 61.1032 15.5248 61.3604C15.1801 61.5148 14.8226 61.682 14.5034 61.8879C14.0566 62.1709 13.6097 62.4024 13.1118 62.5825C12.4735 62.814 11.9245 63.2643 11.2861 63.5216C10.7499 63.7402 10.3159 64.2419 9.77964 64.3834C9.12853 64.5507 8.82212 65.1295 8.27314 65.3868C8.20931 65.4125 8.15824 65.464 8.10717 65.4769C7.60926 65.5798 7.25178 65.8885 6.93261 66.2487C6.90708 66.2873 6.88154 66.3387 6.84324 66.3516C5.64315 66.8661 4.95373 68.0368 3.90684 68.7443C3.6132 68.9372 3.45999 69.336 3.21742 69.6061C2.59184 70.2879 2.40034 71.1369 2.32373 72.0117C2.31097 72.1918 2.42587 72.3847 2.50247 72.5519C2.56631 72.7063 2.66844 72.8478 2.71951 73.015C2.89825 73.5682 3.24296 74.0184 3.6132 74.4429C3.79193 74.6487 4.08558 74.7517 4.28985 74.9575C4.83883 75.4978 5.45164 75.9866 6.15383 76.2696C7.16242 76.6812 8.23484 76.9642 9.26897 77.3244C9.97115 77.5688 10.7244 77.4916 11.4521 77.6975C12.2181 77.9033 13.0608 77.8518 13.8778 77.9162C13.9927 77.929 14.1332 77.8904 14.2098 77.9419C14.5417 78.2249 14.9247 78.1734 15.295 78.122C15.6908 78.0705 16.0865 78.0577 16.4695 78.1348C16.827 78.212 17.1973 78.0962 17.5037 78.0191C17.7845 77.9547 17.8739 78.2506 18.0909 78.1348C18.4357 77.9676 18.7931 77.7489 19.1506 78.1091C19.1634 78.122 19.2527 78.1091 19.2783 78.0834C19.5464 77.7747 19.9039 77.8904 20.223 77.9033C21.5125 77.9933 22.7764 77.7232 24.0659 77.7103C24.1553 77.7103 24.2319 77.6846 24.3212 77.6589C24.551 77.6074 24.7681 77.5174 24.9979 77.4916C25.8277 77.4145 26.6704 77.363 27.5002 77.2987C27.564 77.2987 27.6406 77.2987 27.6917 77.2601C28.2407 76.9385 28.879 77.0671 29.4663 76.9128C30.0536 76.7584 30.6664 76.7455 31.2665 76.6555C31.5473 76.6169 31.841 76.5783 32.0835 76.4497C32.8113 76.0895 33.6411 76.141 34.4071 75.8837C34.7008 75.7808 35.02 75.6907 35.3902 75.755C35.6711 75.7936 35.9902 75.5492 36.2966 75.472C37.0499 75.2919 37.8032 75.1247 38.633 74.9446C38.6075 75.5363 38.5564 76.1024 38.5564 76.6555C38.5564 76.9771 38.5692 77.3116 38.6713 77.6074C38.7224 77.7875 38.9266 77.9933 39.1309 77.8518C39.2458 77.5302 39.2714 77.2215 39.4373 77.0157C39.6033 76.8099 39.6416 76.6298 39.6416 76.4111C39.6416 75.8579 39.6416 75.2919 39.6416 74.7002C40.0757 74.5973 40.4587 74.533 40.8162 74.3915C41.263 74.1985 41.7098 74.0699 42.2078 74.0827C42.4376 74.0827 42.6674 73.9927 42.8972 73.9284C43.3185 73.8126 43.6887 73.8126 44.0462 74.1471C44.4292 74.4944 44.8505 74.8288 45.2974 75.0732C46.3315 75.6135 47.4039 76.0895 48.4636 76.5912C48.5785 76.6426 48.7189 76.6555 48.8338 76.6941C49.5105 76.9256 50.1871 77.2086 50.9276 77.1186C50.9531 77.1186 50.9787 77.1315 50.9914 77.1443C51.1957 77.4016 51.4766 77.3116 51.7319 77.3244C52.2681 77.3373 52.8043 77.3244 53.3406 77.3244C53.4938 77.3244 53.698 77.363 53.8002 77.273C54.1321 76.9642 54.5534 77.0414 54.8726 77.1315C55.2939 77.2601 55.6003 77.0929 55.945 76.9642C56.5706 76.7327 57.1962 76.5011 57.8345 76.2953C58.3707 76.1281 58.9197 76.0123 59.4432 75.8194C60.1198 75.5878 60.7582 75.2919 61.4348 75.0347C61.8178 74.8932 62.2136 74.7903 62.5966 74.6616C62.737 74.6102 62.8775 74.5458 63.0052 74.4815C63.5158 74.2114 63.9627 73.8255 64.5372 73.6582C65.0096 73.5296 65.3287 73.0536 65.8522 72.9893C65.9543 72.5519 66.3884 72.5905 66.6565 72.4104C66.9757 72.1918 67.3459 72.1017 67.6779 71.883C68.6099 71.2656 69.644 70.8025 70.5887 70.1979C70.9207 69.9792 71.2909 69.8763 71.6101 69.6576C71.9548 69.426 72.2995 69.2074 72.6442 68.9887C72.9889 68.77 73.3336 68.5127 73.7166 68.3712C74.0997 68.2297 74.3678 67.9338 74.6997 67.7409C75.1465 67.4707 75.6317 67.2263 75.9636 66.8404C76.3339 66.4288 76.9467 66.3902 77.2148 65.8628C77.3169 65.6569 77.5595 65.5154 77.7638 65.3868C78.0957 65.1681 78.4404 65.0009 78.7724 64.7822C78.9256 64.6793 79.0149 64.4477 79.1554 64.4092C79.7299 64.2934 79.998 63.7274 80.4959 63.5216C80.5342 63.1742 80.8789 63.1485 81.0832 62.9684C81.3002 62.7626 81.5428 62.5825 81.7598 62.3767C81.8492 62.2995 81.9258 62.1966 82.0152 62.1194C82.3216 61.8621 82.6535 61.6434 82.9089 61.309C83.1642 60.9745 83.4706 60.6401 83.8919 60.4471C84.1345 60.3313 84.326 60.0741 84.5175 59.8554C84.7473 59.5852 84.9516 59.3151 85.1431 59.0192C85.4495 58.5304 85.7687 58.0673 86.2283 57.6942C86.573 57.4112 86.8283 56.9996 87.1092 56.6394C87.2879 56.4207 87.4284 56.1763 87.6071 55.9448C87.8752 55.5975 88.105 55.2115 88.4114 54.9157C88.8838 54.4526 89.203 53.8737 89.6243 53.372C89.9052 53.0504 89.7775 52.4587 90.3265 52.3429C90.7478 51.6354 91.3734 51.1337 92.0245 50.632C92.8416 49.9888 93.5693 49.2556 94.3353 48.5609C94.463 48.4452 94.5779 48.3423 94.7438 48.2008C94.9098 48.6381 95.1269 49.0112 95.1779 49.41C95.2673 50.066 95.5354 50.5806 96.0588 50.9793C96.1993 51.0823 96.2759 51.2623 96.4036 51.3781C96.7355 51.674 97.0164 52.0599 97.5398 52.0084C98.242 51.9441 99.008 52.24 99.6081 51.6097C100.374 51.6225 100.744 50.825 101.447 50.6835C101.459 50.6835 101.472 50.6449 101.498 50.632C101.855 50.349 102.213 50.0532 102.57 49.7701C102.953 49.4486 103.336 49.1141 103.732 48.8054C104.217 48.4323 104.728 48.1107 105.187 47.7119C105.443 47.4933 105.609 47.1588 105.826 46.8887C106.668 45.8981 107.651 45.0363 108.762 44.3545C109.171 44.1101 109.681 44.02 110.154 43.8528C110.281 44.1487 110.371 44.3673 110.46 44.5989C110.588 44.8819 110.805 45.152 110.817 45.435C110.83 45.8596 110.958 46.2069 111.149 46.5542C111.239 46.7214 111.43 46.9015 111.418 47.0687C111.315 48.0335 112.298 48.458 112.477 49.2813C112.503 49.3714 112.618 49.4614 112.707 49.5129C113.652 49.9888 114.431 50.6835 115.184 51.4296C115.235 51.481 115.273 51.5196 115.337 51.5582C116.256 52.1371 117.239 52.6516 117.929 53.5521C117.967 53.5907 118.044 53.6036 118.107 53.6164C118.733 53.8094 119.308 54.1052 119.754 54.6198C119.946 54.8385 120.239 54.98 120.482 55.1601C120.699 55.3144 120.916 55.456 121.12 55.5975C121.35 55.7647 121.554 55.9705 121.81 56.0863C122.41 56.3564 123.035 56.6266 123.661 56.8324C123.955 56.9353 124.299 56.8838 124.478 56.5494C124.619 56.2792 124.746 56.0091 124.861 55.739C124.951 55.546 125.002 55.3273 125.065 55.1344C125.334 54.4011 125.729 53.7193 126.061 53.0247C126.291 52.5616 126.457 52.0599 126.7 51.6097C126.929 51.1852 127.21 50.7992 127.491 50.4133C127.912 49.8345 128.295 49.2685 128.64 48.6124C129.113 47.6862 129.623 46.7986 129.917 45.7824C130.108 45.1392 130.428 44.5346 130.619 43.8914C130.734 43.5312 130.964 43.2482 131.091 42.9009C131.385 42.1162 131.487 41.2543 131.896 40.4953C132.151 40.0194 132.292 39.492 132.521 39.016C132.598 38.8488 132.726 38.5915 133.109 38.7459C133.019 39.5434 133.326 40.3667 132.943 41.19C132.879 41.3186 132.879 41.5502 132.955 41.6274C133.185 41.8589 133.109 42.129 133.109 42.3863C133.172 44.0586 133.223 45.7309 133.287 47.4032C133.287 47.5061 133.326 47.6219 133.351 47.7248C133.453 48.1236 133.568 48.5224 133.683 48.9083C133.824 49.3842 133.977 49.8602 134.155 50.3233C134.207 50.4391 134.385 50.5163 134.513 50.5934C134.717 50.7092 134.922 50.8378 135.151 50.915C135.33 50.9793 135.547 51.0179 135.726 50.9665C136.313 50.7992 136.798 50.3104 137.449 50.3104C137.5 50.3104 137.564 50.2332 137.603 50.1818C138.381 49.2299 139.467 48.6639 140.424 47.9563C140.616 47.8148 140.794 47.6219 140.999 47.519C141.356 47.3389 141.65 47.0945 141.943 46.8243C142.275 46.5027 142.671 46.2455 143.029 45.9625C143.08 46.0011 143.118 46.0268 143.169 46.0654C143.003 46.5285 142.901 47.0173 142.671 47.4418C142.377 48.0207 142.365 48.6124 142.301 49.2299C142.211 50.0146 142.786 50.3233 143.195 50.7607C143.284 50.8636 143.373 50.9793 143.475 51.0308C143.629 51.108 143.82 51.1852 143.961 51.1466C144.254 51.0694 144.51 50.8893 144.803 50.825C145.263 50.7092 145.467 50.3233 145.786 50.0403C146.182 49.693 146.782 49.59 146.999 49.0112C147.599 48.8054 147.931 48.2651 148.352 47.8406C148.633 47.5704 149.016 47.3775 149.233 47.0687C149.476 46.7214 149.706 46.387 150.101 46.2197C150.472 45.3193 151.455 45.0491 152.004 44.3416C152.042 44.2902 152.157 44.303 152.272 44.2773C152.374 44.586 152.425 44.8304 152.234 45.1134C152.157 45.2292 152.093 45.4865 152.157 45.538C152.451 45.7824 152.042 46.0011 152.17 46.2455C152.297 46.4641 152.387 46.7214 152.451 46.9658C152.514 47.1845 152.463 47.4547 152.578 47.6348C152.948 48.1879 153.178 48.8311 153.842 49.1527C154.404 49.4228 154.902 49.8859 155.591 49.5515C155.668 49.5129 155.77 49.5643 155.859 49.5386C156.089 49.4871 156.319 49.4357 156.549 49.3585C156.779 49.2942 156.996 49.2041 157.213 49.127C157.647 48.9726 157.979 48.5481 158.502 48.651C158.604 48.1879 158.974 48.3809 159.255 48.3165C159.485 48.2651 159.728 48.2008 159.932 48.0721C160.532 47.6991 161.132 47.2874 161.719 46.8887C162.345 46.4513 162.958 45.9753 163.571 45.538C164.617 44.7919 165.473 43.8528 166.481 43.0938C167.158 42.5793 167.413 41.6274 168.269 41.2929C168.32 41.2672 168.358 41.2029 168.397 41.1385C168.818 40.4182 169.52 39.9036 169.826 39.1189C169.839 39.0803 169.89 39.0675 169.916 39.0289C170.133 38.733 170.375 38.45 170.567 38.1284C170.758 37.8325 171.001 37.6138 171.295 37.3823C171.461 38.0769 171.588 38.7073 171.767 39.3376C171.971 40.0837 172.214 40.8298 172.444 41.5759C172.584 42.0133 172.661 42.4892 172.903 42.8623C173.401 43.6212 173.695 44.496 174.193 45.2678C174.282 45.4093 174.384 45.5637 174.474 45.7052C174.614 45.9239 174.767 46.1297 174.92 46.3484C175.227 46.7986 175.533 47.2488 175.84 47.6991C175.967 47.8792 176.108 48.0464 176.223 48.2265C176.58 48.8182 177.767 49.3071 178.316 48.934C178.891 48.5481 179.517 48.2522 180.027 47.7248C180.755 46.953 181.189 45.9239 182.134 45.345C182.198 45.3064 182.198 45.1906 182.249 45.1134C182.415 44.8562 182.53 44.496 182.759 44.3674C183.398 44.0072 183.64 43.364 184.011 42.8237C184.317 42.3735 184.598 41.9361 185.032 41.6016C185.172 41.4987 185.3 41.3572 185.402 41.2286C185.594 40.997 185.734 40.7012 185.951 40.5082C186.653 39.8907 187.381 39.299 188.122 38.7201C188.53 38.3985 189.041 38.257 189.436 37.884C189.641 37.691 189.973 37.6139 190.266 37.5624C190.866 37.4466 191.339 37.0221 191.99 37.0221C192.667 37.0221 193.33 37.1122 194.007 37.0478C194.045 37.0478 194.096 37.0478 194.135 37.0607C194.799 37.4338 195.501 37.7425 195.884 38.4886C195.973 38.6558 196.177 38.8102 196.356 38.8874C196.956 39.1446 197.288 39.6463 197.62 40.1866C197.199 40.3024 196.854 40.4696 196.497 40.4825C195.552 40.5211 194.62 40.5597 193.764 41.0356C193.688 41.0742 193.586 41.0871 193.509 41.0742C192.986 41.0228 192.769 41.4601 192.526 41.7689C192.143 42.2705 192.169 42.3349 192.462 42.9523C192.513 43.0552 192.552 43.1581 192.615 43.2353C192.871 43.5569 193.152 43.8657 193.586 43.9043C194.875 44.0072 196.152 43.8142 197.429 43.7242C197.467 43.7242 197.531 43.7242 197.556 43.6984C197.786 43.4412 198.092 43.5441 198.373 43.5055C198.629 43.4797 198.884 43.3768 199.139 43.3768C199.688 43.364 200.212 43.1581 200.748 43.1324C201.718 43.0681 202.612 42.8237 203.493 42.4121C203.953 42.1934 204.463 42.0004 204.961 41.9232C205.676 41.8203 206.378 41.7045 207.055 41.4987C207.259 41.4344 207.476 41.3444 207.68 41.3315C208.281 41.3058 208.881 41.3315 209.481 41.3186C209.774 41.3186 209.991 41.4087 210.106 41.7303C209.953 41.9875 209.838 42.2963 209.621 42.4892C208.753 43.2739 208.025 44.2001 207.068 44.8948C206.174 45.5508 205.408 46.3998 204.565 47.1588C204.387 47.3132 204.144 47.4161 204.004 47.5962C203.787 47.8663 203.391 47.892 203.238 48.2651C203.123 48.5481 202.982 48.8697 202.548 48.8311C202.472 48.8182 202.382 49.0112 202.293 49.1141C202.395 49.2041 202.497 49.3456 202.548 49.3328C202.816 49.2685 203.084 49.1784 203.314 49.0369C203.965 48.6381 204.591 48.2265 205.216 47.802C205.829 47.3903 206.429 46.953 207.017 46.5156C207.234 46.3612 207.4 46.1426 207.604 45.9753C208.14 45.538 208.727 45.1392 209.238 44.6761C209.8 44.1744 210.336 43.6341 210.847 43.0681C211.46 42.3992 211.562 41.563 211.447 40.7012C211.549 40.5339 211.357 40.3538 211.191 40.2767ZM101.498 6.59922C101.689 6.49631 102.034 6.52203 102.251 6.62494C102.659 6.8179 103.017 7.11377 103.349 7.46109C103.834 7.94992 104.064 8.54165 104.357 9.12052C104.702 9.8023 104.843 10.5227 104.855 11.2816C104.855 11.6547 104.932 12.0149 104.97 12.3879C104.983 12.4651 104.932 12.5423 104.919 12.6195C104.881 12.7353 104.817 12.8639 104.855 12.9411C105.277 13.8544 104.996 14.8321 105.06 15.7711C105.098 16.4529 105.047 17.1347 104.881 17.8165C104.715 18.4468 104.753 19.1286 104.664 19.7846C104.625 20.0805 104.511 20.3635 104.447 20.6594C104.37 21.071 104.332 21.4826 104.242 21.8943C104.217 22.0229 104.064 22.1387 103.974 22.2545C103.591 22.0101 103.566 21.547 103.259 21.2511C102.953 20.9681 102.889 20.4149 102.583 20.1577C102.238 19.8747 102.085 19.4502 101.715 19.2186C101.83 18.7941 101.919 18.3696 102.034 17.958C102.238 17.2762 102.34 16.5172 102.723 15.9383C103.055 15.4367 103.042 14.8578 103.336 14.369C103.604 13.9187 103.706 13.3527 103.911 12.851C104.013 12.5937 104.191 12.3493 104.281 12.0921C104.37 11.8476 104.408 11.5904 104.447 11.3331C104.485 11.0758 104.37 10.8571 104.153 10.7928C103.911 10.7156 103.617 10.6385 103.413 10.9086C103.221 11.1659 102.991 11.4231 102.864 11.7061C102.557 12.3751 102.315 13.0697 102.047 13.7515C101.906 14.1117 101.766 14.4847 101.638 14.8449C101.612 14.9092 101.651 15.0121 101.612 15.0379C101.229 15.3466 101.255 15.8226 101.127 16.2213C100.974 16.6973 100.808 17.1604 100.642 17.6364C100.515 17.9965 100.17 18.1123 99.8379 17.8936C99.4932 17.6621 99.1612 17.4177 98.8165 17.199C97.8718 16.5815 96.8121 16.1956 95.7524 15.8612C94.9864 15.6296 94.1566 15.6296 93.4033 15.3723C92.5735 15.0893 91.6798 15.3209 90.901 14.9736C90.1222 14.6262 89.3307 14.8063 88.5519 14.7677C87.9263 14.7291 87.2752 14.8321 86.6496 14.4719C86.79 14.3818 86.9305 14.2275 87.0581 14.2403C87.6071 14.266 87.9646 13.8673 88.3987 13.6486C88.8072 13.4556 89.2541 13.3399 89.6626 13.1469C90.352 12.8253 91.0287 12.4908 91.7053 12.1564C91.8713 12.0792 92.05 12.002 92.2287 11.9377C92.3054 11.912 92.4458 11.9506 92.4841 11.8991C92.8671 11.4103 93.5182 11.5904 93.9651 11.2816C94.3991 10.9858 94.7949 10.6513 95.2545 10.394C95.8929 10.0339 96.5695 9.73798 97.2334 9.40353C97.4377 9.30061 97.6547 9.17198 97.8335 9.00475C98.0122 8.87611 98.1782 8.74747 98.4335 8.69602C98.7144 8.6317 99.0846 8.43874 99.1612 8.22006C99.2761 7.91132 99.5442 7.94992 99.6974 7.78269C99.7996 7.67978 99.9528 7.64118 100.08 7.55114C100.566 7.22954 101 6.86936 101.498 6.59922ZM75.3764 59.7782C75.0189 59.9583 74.6231 60.0998 74.2529 60.2541C73.8699 59.9326 73.4485 59.7525 72.9251 59.6495C72.2612 59.5338 71.6101 59.4823 70.959 59.508C70.41 59.5338 69.861 59.5981 69.3248 59.701C69.0312 59.7653 68.7375 59.9068 68.5077 60.0998C68.1119 60.4342 67.6013 60.4986 67.18 60.7558C66.682 61.0774 66.2224 61.4376 65.7501 61.7721C65.6096 61.875 65.4819 61.9908 65.3287 62.0808C64.6138 62.5696 63.8861 63.0585 63.1711 63.5473C62.6477 63.9075 62.1115 64.1776 61.4476 64.049C61.3455 64.0232 61.2433 63.9718 61.1795 63.8946C60.9114 63.573 60.7071 63.2385 60.6816 62.7755C60.6433 62.0294 60.8731 61.3476 61.0135 60.6401C61.1412 60.0355 61.3199 59.4566 61.4604 58.8777C61.5625 58.4532 61.8817 58.2217 62.0221 57.8615C62.4562 56.7809 62.9924 55.7261 63.3371 54.6069C63.4648 54.1953 63.7456 53.8351 63.9499 53.4492C64.0648 53.2434 64.2819 53.0247 64.2691 52.8189C64.2436 52.3172 64.5117 51.9184 64.7287 51.5325C65.1883 50.6963 65.1628 49.8087 65.0606 48.9469C64.9968 48.3294 64.3202 47.8277 63.5158 47.7505C63.286 47.7248 63.0307 47.8277 62.8392 47.5833C62.8009 47.5318 62.6094 47.5576 62.5455 47.609C62.2902 47.8277 62.0221 47.7763 61.7412 47.6733C61.7285 47.6733 61.0646 47.6862 61.039 47.6862C60.7071 47.7891 60.4007 47.7763 60.1581 47.5061C60.1454 47.5061 60.1454 47.5061 60.1326 47.5061C60.056 47.6733 59.9794 47.8277 59.6985 47.5962C59.8772 47.5576 60.0049 47.5318 60.1326 47.5061C60.1326 47.4933 60.1454 47.4933 60.1454 47.4804L60.1581 47.4933C60.3113 47.4161 60.4773 47.326 60.6305 47.2746C61.1922 47.0687 61.7157 46.7986 62.3285 46.6571C62.9669 46.5156 63.5669 46.1683 64.1925 45.9367C64.4734 45.8338 64.7798 45.7824 65.0734 45.7052C65.2011 45.6795 65.3543 45.7052 65.4564 45.6409C66.0692 45.2678 66.7459 45.1392 67.4353 45.0749C67.4736 45.0749 67.5247 45.0749 67.563 45.062C68.1502 44.8433 68.7375 44.6118 69.3248 44.4059C69.6312 44.303 69.9376 44.1615 70.244 44.1358C70.959 44.0715 71.6229 43.647 72.3761 43.8013C72.4272 43.8142 72.491 43.7113 72.5549 43.6598C72.6315 43.5955 72.7081 43.4926 72.7847 43.4797C73.7166 43.2868 74.6486 43.1324 75.5168 42.6951C75.8487 42.5278 76.2828 42.5664 76.6658 42.4764C76.9595 42.4121 77.2403 42.1934 77.5212 42.2062C78.3255 42.2577 78.9894 41.7689 79.7682 41.7174C80.5597 41.6531 81.3385 41.2929 82.1173 41.0614C82.2195 41.0356 82.3344 41.0485 82.4493 41.0356C82.5642 41.0356 82.7174 41.0742 82.7812 41.0099C83.4323 40.3924 84.3898 40.7012 85.092 40.2638C85.2069 40.1866 85.3984 40.2509 85.5516 40.2252C85.7048 40.1995 85.8836 40.1995 85.9729 40.1094C86.4453 39.6335 86.9943 39.865 87.505 39.865C87.5305 39.9551 87.556 40.0065 87.5433 40.0451C87.2624 40.6111 87.1475 41.2414 86.9688 41.846C86.8539 42.232 86.6241 42.5793 86.4198 42.9266C86.0751 43.5055 85.8197 44.1229 85.5389 44.7404C85.1048 45.6923 84.6196 46.6057 84.326 47.6219C83.8409 48.0207 83.9941 48.7282 83.56 49.1784C83.3812 49.3585 83.3046 49.6801 83.2536 49.9631C83.1514 50.5291 82.6918 50.8893 82.5514 51.4296C82.4876 51.6611 82.4109 51.8798 82.3344 52.0985C82.3088 52.1757 82.3216 52.3043 82.2578 52.3429C81.8237 52.6774 81.913 53.2691 81.5939 53.6807C81.3002 54.0409 81.147 54.5169 80.9172 54.9414C80.5342 55.636 80.1767 56.3564 79.7427 57.0253C79.3724 57.5785 78.7979 57.9258 78.2234 58.2345C77.2914 58.7877 76.3339 59.2894 75.3764 59.7782ZM76.5254 60.8973C75.9764 61.7463 75.9253 61.6177 75.504 61.1289C75.887 61.0388 76.1807 60.9745 76.5254 60.8973ZM48.9232 49.1656C48.9104 49.1656 48.9104 49.1656 48.8976 49.1656C48.821 49.3328 48.7444 49.4871 48.4636 49.2556C48.6423 49.217 48.77 49.1913 48.8976 49.1656C48.8976 49.1527 48.9104 49.1527 48.9104 49.1398C48.9104 49.1527 48.9232 49.1527 48.9232 49.1656C49.0636 48.8054 49.37 48.6767 49.6637 48.5224C49.7658 48.4709 49.8552 48.4194 49.9445 48.3551C50.1616 48.2008 50.4808 48.1622 50.5574 47.8148C50.5829 47.7119 50.7489 47.5704 50.851 47.5833C51.2212 47.609 51.3872 47.326 51.6298 47.1331C51.8085 46.9787 52.0128 46.8501 52.2043 46.7214C52.8809 46.2841 53.647 45.9239 54.1321 45.3193C54.7832 44.496 55.7535 44.1873 56.4812 43.5055C56.8642 43.1453 57.4132 42.9652 57.809 42.5664C58.0771 42.3091 58.4346 42.1162 58.8431 41.8203C58.8687 42.0905 58.9325 42.2834 58.907 42.4506C58.8431 42.8108 58.7155 43.1582 58.6133 43.5183C58.5878 43.6213 58.5367 43.7242 58.5239 43.8399C58.3835 44.7919 58.2558 45.7438 58.1282 46.6314C57.2983 47.0687 56.4174 47.043 55.6769 47.4933C55.6386 47.519 55.6003 47.5447 55.562 47.5447C54.6683 47.4804 53.9917 48.1236 53.1363 48.2522C52.3958 48.3551 51.7064 48.6896 50.9531 48.8311C50.4808 48.9211 49.9701 49.1012 49.5105 49.2942C49.1785 49.41 49.0892 49.2813 48.9232 49.1656C48.9232 49.1527 48.9232 49.1527 48.9232 49.1656L48.9104 49.1527C48.9104 49.1398 48.9232 49.1656 48.9232 49.1656ZM57.8856 55.2501C58.0899 54.4397 58.1409 53.6036 58.3324 52.806C58.4601 52.24 58.4856 51.6225 58.7155 51.0951C58.907 50.6577 58.8814 50.2332 58.9325 49.8087C58.9836 49.3456 59.341 49.0369 59.8134 48.9983C60.273 48.9597 60.7199 49.0498 61.1667 48.7925C61.3327 48.7024 61.6519 48.7153 61.8051 48.8182C62.1115 49.024 62.3285 48.9083 62.6349 48.844C62.9796 48.7796 63.4265 48.9597 63.7201 49.2685C63.9882 49.5386 63.8605 49.783 63.7712 50.1175C63.5669 50.8378 63.286 51.5325 63.0945 52.2529C62.9541 52.7931 62.7626 53.372 62.4179 53.7965C62.0604 54.2467 61.9455 54.7742 61.7285 55.263C61.6646 55.4174 61.6263 55.5975 61.537 55.7261C61.1156 56.3821 60.8475 57.1282 60.3624 57.7586C60.1198 58.0673 60.0177 58.5047 59.9155 58.9035C59.6985 59.6753 59.4687 60.46 59.3666 61.2447C59.29 61.875 59.3793 62.531 59.4432 63.1614C59.4815 63.483 59.6857 63.7788 59.6985 64.0876C59.724 64.6536 60.1837 64.8594 60.4773 65.1938C60.5667 65.2839 60.7454 65.3096 60.8986 65.3354C61.1284 65.3739 61.3965 65.2582 61.5753 65.5154C61.6008 65.554 61.7285 65.5798 61.754 65.554C62.1242 65.2324 62.6604 65.5926 63.0307 65.2582C63.2222 65.1553 63.4265 65.0781 63.6052 64.9623C63.9371 64.7308 64.1287 64.2677 64.6393 64.3191C64.6776 64.3191 64.7287 64.2291 64.7798 64.1905C65.1372 63.9075 65.4692 63.5859 65.8522 63.3286C66.6182 62.8398 67.2693 62.1709 68.1375 61.8364C68.7886 61.5791 69.4142 61.2318 70.0525 60.9488C70.1419 60.9102 70.2696 60.9102 70.3845 60.9102C70.9845 60.9102 71.5846 60.8973 72.1846 60.9102C72.3123 60.9102 72.4527 60.9874 72.7464 61.0646C72.2229 61.309 71.9037 61.5663 71.5207 61.7721C70.959 62.0551 70.3845 62.2995 69.8227 62.5568C68.9163 62.9684 68.0353 63.4186 67.1034 63.766C66.0565 64.1519 65.0606 64.6793 64.0393 65.1424C63.7201 65.2839 63.4009 65.4897 63.0435 65.271C63.0307 65.3739 63.0307 65.5283 62.9924 65.554C62.1881 65.9014 61.5242 66.596 60.5667 66.5831C60.4645 66.5831 60.3496 66.7246 60.2475 66.7761C60.1198 66.8533 59.9794 66.9562 59.8389 66.9562C59.5708 66.9562 59.4049 67.0848 59.1878 67.2006C58.8559 67.3807 58.4729 67.4579 58.1026 67.5865C57.3494 67.8567 56.5961 68.1139 55.8684 68.4227C55.562 68.5513 55.2939 68.6156 54.9237 68.4998C55.0896 68.0496 55.2684 67.6122 55.4216 67.162C55.4726 67.0205 55.5109 66.8661 55.5109 66.7118C55.5109 65.9528 55.8301 65.271 56.0089 64.5507C56.0472 64.3834 56.1365 64.2162 56.1365 64.0618C56.1238 63.3286 56.3408 62.6468 56.494 61.9393C56.6472 61.2189 56.9919 60.55 56.9919 59.7653C56.9919 59.328 57.1196 58.852 57.1323 58.3889C57.1323 58.286 57.1706 58.1702 57.2217 58.0673C57.4898 57.3984 57.6558 56.7037 57.7579 55.9962C57.7452 55.7647 57.8218 55.5074 57.8856 55.2501ZM87.4156 38.4757C86.8794 38.6301 86.3432 38.7973 85.807 38.9646C85.7048 38.9903 85.6027 39.0546 85.4878 39.0546C84.6962 39.016 84.0196 39.3633 83.3174 39.6335C83.2408 39.6592 83.1514 39.6721 83.0621 39.6849C82.5131 39.7492 81.9641 39.7621 81.4279 39.8779C80.8406 40.0065 80.2916 40.3281 79.7171 40.4053C78.7979 40.5211 78.0191 41.0871 77.0744 41.0871C76.9339 41.0871 76.8063 41.2157 76.6658 41.2543C76.3466 41.3444 76.0275 41.3958 75.7211 41.4859C75.4913 41.5373 75.2742 41.6145 75.0444 41.6788C74.5976 41.8203 74.1507 41.9875 73.6911 42.1033C73.04 42.2705 72.3761 42.3863 71.725 42.5278C71.6484 42.5407 71.5335 42.5921 71.4952 42.6565C71.3292 42.9395 71.0483 42.888 70.793 42.9395C70.3462 43.0167 69.9121 43.1581 69.478 43.2739C69.3886 43.2997 69.312 43.3382 69.2227 43.3382C68.7375 43.3125 68.3928 43.5698 68.0609 43.8785C67.6651 43.6727 67.3076 43.737 66.9246 43.9171C66.5416 44.0972 66.1075 44.2001 65.699 44.3288C65.4181 44.4188 65.1245 44.496 64.8308 44.5732C64.1925 44.7661 63.5414 44.9334 62.9158 45.1392C62.303 45.345 61.6774 45.4608 61.1029 45.7952C60.7326 46.0139 60.2603 46.0654 59.7751 46.2069C59.7751 45.7566 59.7623 45.3707 59.7751 44.9848C59.7879 44.7919 59.89 44.5989 59.8772 44.4059C59.8262 43.5827 60.056 42.798 60.2475 42.0133C60.2986 41.8203 60.2475 41.6145 60.2858 41.4087C60.3752 40.8941 60.4645 40.3924 60.8858 40.0065C61.754 39.2218 62.5455 38.3471 63.4775 37.6396C64.3457 36.9707 65.0351 36.1474 65.8394 35.427C66.0182 35.2726 66.2352 35.1569 66.4139 35.0025C66.5671 34.8739 66.7459 34.7581 66.848 34.5909C67.3459 33.7676 68.0609 33.1501 68.8014 32.5712C69.0439 32.3783 69.1971 32.0567 69.4269 31.838C69.5929 31.6708 69.8483 31.5936 69.9887 31.4135C70.3845 30.9247 70.7547 30.4101 71.1377 29.9084C71.2143 29.8055 71.3037 29.6897 71.4058 29.6126C71.9293 29.2524 72.274 28.7121 72.7081 28.2619C73.1804 27.773 73.64 27.2842 73.972 26.6539C74.2018 26.2165 74.5848 25.8692 74.9167 25.4833C75.3891 24.9301 75.8743 24.3899 76.3211 23.8239C76.6403 23.4122 76.9084 22.962 77.202 22.5375C77.5212 22.0744 77.8659 21.6241 78.1723 21.1482C78.6319 20.4664 79.0788 19.7718 79.5256 19.0771C79.832 18.6011 80.1512 18.1381 80.4193 17.6364C80.6108 17.2762 80.7002 16.8517 81.0704 16.6073C81.147 16.5558 81.1981 16.4658 81.2747 16.44C81.7981 16.2342 82.3216 16.0412 82.8578 15.8612C82.9855 15.8226 83.1259 15.8226 83.2536 15.8354C84.0579 15.9126 84.8622 15.7968 85.6665 15.8354C87.0581 15.8997 88.4497 15.9512 89.8413 16.0155C89.9435 16.0155 90.0839 16.0284 90.1605 16.0927C90.569 16.4272 91.0542 16.4272 91.5393 16.4272C92.0372 16.4272 92.5479 16.3243 93.0203 16.633C93.1352 16.7102 93.3267 16.633 93.4799 16.6587C93.7608 16.6973 94.0289 16.7874 94.3098 16.8002C95.2801 16.8774 96.1227 17.3405 97.0164 17.6621C97.2334 17.7393 97.4121 17.9322 97.6164 18.048C98.1909 18.3953 98.7782 18.7298 99.3527 19.0642C99.6847 19.2572 99.9272 19.6817 99.8251 20.0419C99.723 20.3892 99.5442 20.7108 99.391 21.0453C99.2761 21.3154 99.1485 21.5984 99.0335 21.8814C98.9569 22.0615 98.9186 22.2545 98.8293 22.4217C98.5612 22.9877 98.2931 23.5537 97.9994 24.1069C97.7696 24.5442 97.476 24.9559 97.2589 25.4061C97.0164 25.8949 96.8121 26.3966 96.6334 26.9112C96.3908 27.6058 95.9695 28.2104 95.612 28.8536C95.4716 29.1237 95.2928 29.381 95.1907 29.664C94.897 30.4616 94.6289 31.272 94.0161 31.8895C93.9523 31.9538 93.8757 32.0181 93.8502 32.0953C93.7225 32.687 93.1863 33.0086 92.9182 33.536C92.6884 33.9991 92.1394 34.2821 91.7308 34.6552C91.5138 34.8481 91.3351 35.0668 91.1053 35.234C90.8627 35.4141 90.6712 35.6714 90.2754 35.4913C89.9435 35.3498 89.3689 35.8386 89.4072 36.2374C89.4838 37.0478 88.9732 37.5367 88.5136 38.0512C88.3859 38.1927 88.0667 38.1799 87.9774 38.3214C87.8369 38.5786 87.6071 38.4243 87.4156 38.4757ZM61.1156 36.0959C61.1284 35.7743 61.2688 35.4656 61.3199 35.144C61.3837 34.8224 61.4093 34.4879 61.4476 34.1664C61.4604 34.012 61.4986 33.8576 61.4986 33.7033C61.5369 33.2659 61.3838 32.8028 61.7157 32.4169C61.7412 32.3911 61.7285 32.3268 61.7285 32.2882C61.7923 31.272 61.8434 30.2429 61.9072 29.2266C61.92 28.9694 61.8434 28.6864 62.0859 28.4677C62.1242 28.4291 62.1242 28.339 62.1242 28.2747C62.1881 27.4257 62.2519 26.5638 62.303 25.7148C62.3285 25.3289 62.2264 24.9301 62.4945 24.5571C62.5966 24.4027 62.5072 24.1197 62.5328 23.901C62.5838 23.5537 62.5966 23.1807 62.737 22.8719C62.8136 22.6918 63.0945 22.5889 63.3116 22.486C63.5797 22.3574 63.8733 22.2545 64.1542 22.1516C64.2563 22.113 64.3585 22.0744 64.4606 22.0744C64.8691 22.0486 65.3287 22.1773 65.5969 21.7142C66.3501 21.83 66.7842 21.0324 67.5374 21.0324C68.0226 21.0324 68.4949 20.6979 68.9801 20.5179C69.0567 20.4921 69.1461 20.4535 69.2354 20.4535C69.8993 20.5179 70.3845 20.1191 70.9079 19.8103C71.0611 19.7203 71.2654 19.6431 71.4441 19.656C71.8399 19.6817 72.1718 19.5531 72.5165 19.3858C72.7847 19.2572 73.0783 19.1543 73.3592 19.0642C74.1252 18.8327 74.955 18.7298 75.6317 18.3567C76.1934 18.048 76.768 17.9837 77.3425 17.8165C77.8531 17.675 78.3383 17.4305 78.8362 17.2504C78.9128 17.2247 78.9894 17.2504 79.1937 17.2504C78.4277 18.0995 78.0319 19.09 77.2914 19.8489C77.0105 20.1448 76.819 20.5179 76.6403 20.8909C76.1296 21.92 75.3253 22.7304 74.6997 23.6695C74.0741 24.5828 73.3592 25.4061 72.5932 26.1908C72.2484 26.5381 72.0442 27.0269 71.7761 27.4386C71.6356 27.6573 71.508 27.9274 71.3037 28.056C70.7547 28.442 70.41 29.0337 69.8483 29.4067C69.4142 29.7026 69.095 30.1914 68.7886 30.6417C68.6737 30.8089 68.5716 30.9247 68.3928 31.0147C68.0481 31.1948 67.8949 31.5807 67.614 31.8509C66.9629 32.4683 66.299 33.0601 65.699 33.729C65.2011 34.2693 64.6776 34.7838 64.1542 35.2855C63.9371 35.4913 63.669 35.6586 63.4265 35.8386C63.3626 35.8901 63.2733 35.9544 63.235 36.0187C62.9286 36.8292 62.0732 37.0478 61.5625 37.6524C61.4348 37.8068 61.1922 37.8711 60.9624 38.0126C60.9624 37.7682 60.8731 37.4981 60.9752 37.3566C61.2688 36.9449 61.0901 36.5204 61.1156 36.0959ZM96.9398 37.3051C97.3994 37.2151 97.8207 36.8549 98.3697 37.1122C97.9228 37.5624 97.91 38.2184 97.527 38.7459C97.1823 39.2218 96.9398 39.7878 96.4802 40.2252C96.378 39.9937 96.3014 39.8136 96.378 39.5177C96.5184 38.926 96.544 38.3085 96.6461 37.7039C96.6844 37.5495 96.8249 37.3308 96.9398 37.3051ZM97.0547 35.903C97.0036 34.951 96.9525 33.9863 97.4121 33.0729C97.3483 32.3526 97.8079 31.748 97.8718 31.0276C97.9484 30.2686 98.2803 29.5225 98.4973 28.7764C98.5867 28.4677 98.6888 28.159 98.7782 27.8502C99.0208 27.0784 99.2634 26.3194 99.4932 25.5476C99.6847 24.8787 99.8379 24.1969 100.029 23.5408C100.132 23.2064 100.297 22.8977 100.412 22.5761C100.629 21.9457 100.834 21.3154 101.089 20.5436C101.178 20.788 101.191 20.9038 101.242 20.9424C102.008 21.354 102.238 22.1773 102.608 22.8591C103.004 23.618 103.387 24.4413 103.221 25.3804C103.208 25.4704 103.247 25.5733 103.208 25.6505C102.979 26.1908 102.889 26.7825 102.698 27.3228C102.264 28.5191 101.727 29.6897 101.255 30.8732C100.961 31.6065 100.719 32.3654 100.438 33.0987C100.285 33.4717 100.068 33.8062 99.7357 34.0763C99.557 34.2178 99.4932 34.5265 99.4421 34.7838C99.34 35.3241 99.2889 35.3498 98.791 35.4399C98.2165 35.5428 97.6547 35.7357 97.0547 35.903ZM103.591 29.0337C103.349 30.9375 103.055 32.8157 102.187 34.5523C101.83 34.6037 101.472 34.8224 101.115 34.5394C102.085 32.7771 102.557 30.7832 103.591 29.0337ZM53.864 19.0771C54.3108 19.4244 54.6045 18.9227 54.8471 18.6912C55.1662 18.3953 55.4982 18.1638 55.8684 17.9451C56.1493 17.7779 56.4046 17.5463 56.6983 17.4434C57.2983 17.2376 57.7835 16.6973 58.4856 16.7873C58.5878 16.8002 58.7282 16.6844 58.8176 16.5944C59.341 16.0798 60.0304 15.8483 60.6816 15.5782C61.1156 15.3981 61.4986 15.0893 61.9583 14.8063C62.0349 14.8578 62.1881 14.935 62.3157 15.0121C62.8264 14.6648 63.2988 14.3304 63.7967 14.0088C63.8861 13.9573 64.0137 13.9702 64.1159 13.9702C64.3585 13.9444 64.6521 14.0602 64.7542 13.6743C64.767 13.61 65.0223 13.5714 65.1755 13.5714C65.4436 13.5714 65.6735 13.5199 65.8905 13.3141C66.1458 13.0697 66.5799 13.1083 66.848 12.7867C66.9118 12.7095 67.1927 12.851 67.3459 12.8124C67.9715 12.6838 68.4566 12.2593 68.9929 11.9506C69.0822 11.8991 69.1716 11.7962 69.261 11.7705C69.7461 11.6804 70.244 11.6032 70.7292 11.5261C70.8185 11.5132 70.9207 11.5389 70.9845 11.4875C71.6995 10.9858 72.5804 10.9986 73.3464 10.677C74.189 10.3169 75.0955 10.2139 75.9253 9.84089C76.6275 9.5193 77.3935 9.33921 78.134 9.12052C78.3255 9.06907 78.5298 9.10766 78.7341 9.10766C78.9128 9.10766 79.066 9.10766 79.1554 8.87611C79.1937 8.78606 79.3979 8.70888 79.5384 8.70888C80.1384 8.70888 80.6874 8.58024 81.2492 8.34869C81.8875 8.09142 82.5897 8.03996 83.2663 7.8856C83.4706 7.83414 83.6877 7.76982 83.8919 7.71837C84.3771 7.61546 84.8367 7.39677 85.3601 7.46109C85.5389 7.48682 85.7304 7.35818 85.9219 7.30673C86.6751 7.11377 87.4284 6.89508 88.2199 6.88222C88.3476 6.88222 88.4625 6.80504 88.5902 6.76645C89.0242 6.62494 89.4456 6.44485 89.9307 6.48344C90.569 6.54776 91.1563 6.22617 91.7819 6.17471C91.9351 6.16185 92.0755 6.09753 92.2287 6.08466C92.5352 6.05894 92.8288 6.12326 93.1097 5.90457C93.2246 5.81452 93.4544 5.87884 93.6331 5.86598C94.0672 5.82739 94.514 5.95603 94.9353 5.71161C95.0375 5.64729 95.229 5.75021 95.3822 5.76307C95.5226 5.77593 95.6631 5.77593 95.8035 5.76307C95.8673 5.76307 95.9439 5.68589 95.9822 5.69875C96.5823 6.05894 97.1696 5.55725 97.7824 5.66016C98.5484 5.7888 99.34 5.82739 100.195 5.91743C100.068 6.14898 99.9655 6.32908 99.8123 6.43199C99.1612 6.90795 98.4973 7.35818 97.8462 7.80841C97.7952 7.84701 97.7313 7.8856 97.6675 7.8856C97.3483 7.8856 97.0547 7.89846 96.9398 8.27151C96.4546 8.25865 96.1865 8.67029 95.8035 8.86325C95.2545 9.15911 94.7438 9.53216 94.1949 9.84089C93.9778 9.96953 93.7225 10.0339 93.4799 10.1496C92.982 10.3812 92.433 10.5227 92.0245 10.8571C91.5776 11.2302 91.0542 11.3202 90.5563 11.5389C90.3775 11.6161 90.186 11.6676 90.0584 11.7962C89.4455 12.4137 88.6923 12.6838 87.8369 12.7481C87.7092 12.761 87.556 12.7481 87.4539 12.8124C86.8283 13.1469 86.2027 13.5071 85.5772 13.8544C85.5006 13.893 85.3984 13.9573 85.3474 13.9444C84.8877 13.7644 84.5303 14.0345 84.1345 14.1889C83.5983 14.3947 83.0748 14.742 82.3599 14.5105C82.411 14.3175 82.4237 14.1117 82.5003 13.9444C82.7301 13.4814 83.011 13.0311 83.2536 12.5809C83.3046 12.478 83.3812 12.285 83.3302 12.2336C83.1642 12.0663 83.2791 11.9892 83.3685 11.8476C83.56 11.5389 83.7387 11.2302 83.5855 10.8185C83.4706 10.5098 83.3429 10.2911 82.9855 10.3297C82.7557 10.3554 82.3854 10.7671 82.3599 11.0244C82.2705 11.8476 81.9896 12.5809 81.5811 13.2884C81.2619 13.8544 80.764 14.2146 80.3427 14.652C80.2533 14.742 80.0618 14.742 79.9086 14.7549C79.4618 14.7935 78.9766 14.6391 78.5681 14.9736C78.5426 14.9993 78.4787 14.9864 78.4404 14.9864C77.5212 15.0507 76.5892 15.0893 75.67 15.1794C75.3125 15.218 74.955 15.3595 74.6103 15.4367C74.4061 15.4881 74.189 15.5782 73.972 15.5653C73.0783 15.5138 72.2357 15.7068 71.3931 15.9512C71.3292 15.9641 71.2654 15.9641 71.1888 15.9769C70.4483 16.0541 69.7078 16.0927 68.9801 16.2213C68.3673 16.3243 67.7672 16.5172 67.1544 16.6587C66.4267 16.8388 65.6862 17.0189 64.9585 17.1861C64.5372 17.289 64.1287 17.3919 63.7073 17.4949C63.5541 17.5335 63.4137 17.5463 63.2605 17.5849C63.0179 17.6492 62.7626 17.7264 62.52 17.8036C62.354 17.855 62.1881 17.9965 62.0349 17.9708C61.4604 17.8936 61.0518 18.2796 60.5539 18.4468C60.3752 18.5111 60.1964 18.6011 60.0049 18.614C59.6474 18.6269 59.3027 18.6011 59.0346 18.9227C58.9453 19.0257 58.7027 18.9999 58.5495 19.0642C58.1154 19.2443 57.6047 19.2315 57.2217 19.5531C57.0174 19.7203 56.7621 19.3344 56.5068 19.6431C56.3536 19.8361 56.0216 19.9133 55.7535 19.9647C55.4982 20.029 55.2173 19.9904 54.962 20.0033C54.9237 20.0033 54.8726 20.0033 54.8343 20.0162C54.1193 20.312 53.3916 20.6079 52.6767 20.9038C52.2554 21.0839 51.8468 21.2897 51.2468 21.161C52.1532 20.4407 53.1107 19.9261 53.864 19.0771ZM47.1613 25.7663C47.6976 25.5733 47.8635 25.0845 48.0423 24.6857C48.2721 24.2098 48.6551 23.9525 49.0381 23.7081C49.4722 23.4379 49.9828 23.2964 50.468 23.1035C50.6723 23.0263 50.8893 22.9748 51.068 22.8719C51.4383 22.6404 51.783 22.3574 52.2681 22.4603C52.332 22.4732 52.4596 22.4217 52.4979 22.3574C52.7022 22.0486 53.0214 22.0615 53.3278 22.0615C53.4555 22.0615 53.6214 22.0358 53.698 21.9586C54.0555 21.5984 54.5151 21.5856 54.9492 21.4826C55.2556 21.4055 55.6131 21.354 55.8557 21.161C56.1365 20.9295 56.4046 20.8266 56.7493 20.8523C56.8387 20.8523 56.9408 20.8523 57.0047 20.8137C58.0133 20.2606 59.2261 20.3249 60.2347 19.6946C60.605 19.463 61.1667 19.5273 61.6519 19.463C61.8434 19.4373 62.0349 19.4887 62.137 19.2186C62.1753 19.1157 62.4306 19.0642 62.5838 19.0642C62.9158 19.0642 63.2222 19.0128 63.5286 18.8456C63.7456 18.7169 64.0265 18.7169 64.2818 18.6526C64.8308 18.524 65.367 18.3825 65.916 18.2538C66.2097 18.1766 66.4905 18.0609 66.7842 18.0351C67.3715 17.9965 67.9332 17.8422 68.495 17.6492C68.9418 17.4949 69.4652 17.572 69.9121 17.4177C70.7547 17.1347 71.6612 17.3276 72.4782 17.006C73.206 16.723 74.0103 16.9031 74.7125 16.5944C75.4913 16.2599 76.27 16.4658 77.0616 16.44C76.5764 17.0189 75.8743 17.006 75.2615 17.2247C74.3295 17.5463 73.3209 17.6364 72.4527 18.1766C72.0825 18.4082 71.6101 18.5111 71.176 18.6011C70.9207 18.6526 70.7164 18.7041 70.5504 18.9099C70.4866 18.9871 70.3589 19.0257 70.2568 19.0128C69.4908 18.9742 68.8907 19.3858 68.2268 19.656C68.0864 19.7074 67.9587 19.7846 67.8183 19.8232C66.9629 20.0548 66.0948 20.1448 65.2777 20.5564C64.6904 20.8523 64.0137 21.0067 63.3754 21.1996C63.2094 21.2511 63.0307 21.2125 62.8903 21.2125C62.903 20.8137 62.9413 20.4535 62.9413 20.0933C62.9413 19.8103 62.737 19.656 62.4817 19.6174C62.1881 19.5659 61.9966 19.7718 61.9455 20.0033C61.8944 20.2348 61.8689 20.4278 61.5497 20.4921C61.9838 20.9038 61.5625 21.354 61.6519 21.7785C61.6646 21.8428 61.4859 21.9715 61.371 22.0101C60.9624 22.1644 60.5539 22.2802 60.1454 22.4217C59.0729 22.7947 58.0005 23.1678 56.9153 23.5537C56.3663 23.7467 55.7663 23.7595 55.2556 24.0425C55.1024 24.1197 54.9492 24.1969 54.796 24.2741C54.6811 24.3384 54.5662 24.4413 54.4513 24.4413C53.8002 24.4413 53.2384 24.7115 52.6639 24.9816C52.5362 25.0459 52.3703 25.0459 52.2298 25.0845C51.9362 25.1488 51.6425 25.2003 51.4766 25.509C51.4383 25.5733 51.3617 25.6376 51.2851 25.6505C50.9021 25.7406 50.5318 25.8177 50.1488 25.8949C50.1105 25.9078 50.0467 25.8949 50.0211 25.9207C49.5743 26.3323 49.0764 26.5381 48.4636 26.5124C48.3742 26.5124 48.2848 26.8211 48.1955 26.8211C47.672 26.8211 47.2762 27.2328 46.7783 27.2714C46.4464 27.2971 46.2677 27.4129 46.1655 27.7473C45.9868 27.6315 45.8591 27.5544 45.7187 27.4643C45.7825 27.3871 45.808 27.3357 45.8591 27.2971C46.1144 27.1427 46.4719 27.0655 46.357 26.6282C46.357 26.6153 46.357 26.5638 46.357 26.5638C46.8039 26.5124 46.8039 25.8949 47.1613 25.7663ZM46.2804 24.9816C46.5741 24.7758 46.6507 25.033 46.7783 25.1746C46.4209 25.3804 46.0634 25.5733 45.7187 25.792C45.6931 25.8049 45.7314 25.9335 45.7442 26.0236C45.7442 26.0236 45.7442 26.0236 45.757 26.0236V26.0364C45.8719 26.1522 46.1655 26.1265 46.0123 26.4738C45.9612 26.4481 45.9102 26.4352 45.8719 26.4095C45.7442 26.3323 45.6804 26.2422 45.757 26.0364C45.3612 26.1779 45.5016 25.7277 45.3484 25.6505C45.6548 25.419 45.974 25.2131 46.2804 24.9816ZM45.0676 38.8102C45.2463 38.5143 45.3229 38.2184 45.374 37.8583C45.5016 36.8163 45.7059 35.7743 45.6931 34.7066C45.6676 33.7547 45.7953 32.8028 45.8591 31.8509C45.8719 31.748 45.974 31.6579 45.9868 31.555C45.9995 31.2334 46.0634 30.8861 45.974 30.5902C45.757 29.9084 45.7953 29.4067 46.2932 28.8279C46.4081 28.6864 46.6124 28.6349 46.7783 28.532C46.8677 28.4805 47.0081 28.4548 47.0337 28.3776C47.1613 27.9531 47.4805 27.9403 47.8252 27.9403C48.0933 27.9403 48.438 28.0689 48.5274 27.6315C48.5274 27.6187 48.6423 27.6444 48.6934 27.6444C48.987 27.6187 49.2424 27.5415 49.3445 27.1942C49.6637 27.3228 49.9701 27.4 50.2254 27.0784C50.2637 27.0269 50.3276 26.9498 50.3659 26.9498C51.1957 27.0655 51.783 26.2808 52.5873 26.3194C52.6767 26.3194 52.7916 26.2551 52.8554 26.1779C53.1235 25.9207 53.4044 25.8692 53.7491 25.8563C54.0555 25.8563 54.3747 25.7534 54.6556 25.6119C55.4471 25.2131 56.3025 24.9687 57.1323 24.6471C57.5792 24.4799 58.1665 24.5314 58.4856 24.0297C58.5112 23.9911 58.6644 24.0297 58.7538 24.0168C58.8942 23.9911 59.0729 23.9911 59.1623 23.901C59.4687 23.6052 59.8645 23.5794 60.2347 23.4894C60.5411 23.4122 60.8603 23.3736 61.2305 23.3093C61.3582 23.528 61.3965 23.7981 61.2178 24.0554C61.0901 24.2355 61.1539 24.3384 61.2178 24.5185C61.3071 24.7372 61.2944 25.0459 61.205 25.2646C61.039 25.7277 60.8986 26.1779 60.8986 26.6668C60.9114 26.9883 60.988 27.3357 60.7326 27.6315C60.656 27.7087 60.6816 27.8888 60.6943 28.0175C60.7199 28.815 60.6816 29.6126 60.4007 30.3715C60.6816 30.7832 60.2475 31.1176 60.2858 31.5164C60.3496 32.4169 60.273 33.3173 59.9155 34.1792C59.8517 34.3336 59.9028 34.5394 59.89 34.7195C59.8645 35.2212 59.9666 35.7357 59.724 36.2374C59.6474 36.3789 59.6857 36.5976 59.7113 36.7648C59.8134 37.2537 59.7623 37.7039 59.5198 38.1284C59.4687 38.2184 59.4815 38.3471 59.4687 38.45C59.4049 39.016 59.341 39.5949 58.7538 39.8907C58.3963 40.7012 57.5026 40.9842 57.0047 41.6531C56.9536 41.7174 56.8642 41.8203 56.8004 41.8203C56.4174 41.7946 56.2004 42.0519 55.9578 42.2834C55.728 42.5021 55.5237 42.7594 55.2684 42.9266C54.7577 43.2739 54.3236 43.7499 53.6853 43.8914C53.5831 43.9171 53.481 43.9814 53.4172 44.0586C52.8937 44.6761 52.1405 44.9719 51.5404 45.4736C51.5276 45.4865 51.4893 45.4736 51.4766 45.4994C51.0425 46.1683 50.2382 46.3226 49.702 46.8243C49.37 47.1331 48.9998 47.3646 48.6806 47.6605C48.4636 47.8534 48.1061 47.6733 47.9784 48.0593C47.9146 48.2651 47.5316 48.3809 47.3018 48.5481C47.1103 48.6896 46.9188 48.8311 46.7273 48.9726C46.5102 49.1398 46.3698 49.4357 46.0123 49.3842C45.9485 49.3714 45.8463 49.4486 45.7825 49.5129C45.1442 50.1175 44.3398 50.4648 43.5866 50.9022C43.4462 50.9922 43.2291 50.9536 42.9482 50.9922C43.1653 50.4262 43.4334 50.066 43.2547 49.6029C43.2291 49.5257 43.3312 49.41 43.3568 49.3071C43.4334 48.8697 43.5355 48.4066 43.0376 48.085C43.3695 47.6605 43.893 47.3003 43.7909 46.7343C43.7015 46.2455 44.2632 45.7952 43.7909 45.2935C43.9058 45.1649 44.0334 45.0491 44.1356 44.9076C44.276 44.7147 44.4292 44.6118 44.3398 44.2516C44.2377 43.7628 44.442 43.1839 44.5441 42.6565C44.6335 42.232 44.5824 41.7946 44.8122 41.3829C44.8888 41.2414 44.7612 40.9713 44.7228 40.7398C44.825 40.5597 44.9654 40.3281 45.0931 40.0966C45.3229 39.6592 45.3101 39.6206 44.825 39.3247C44.9271 39.1704 44.9654 38.9774 45.0676 38.8102ZM40.8672 29.1623C40.9821 29.1109 41.097 29.0208 41.1736 28.9179C41.5566 28.3519 42.1312 27.9917 42.6035 27.5158C42.9099 27.1942 43.3057 26.9755 43.7398 26.6539C43.8164 26.9369 43.8675 27.1041 43.9185 27.3099C44.0207 27.2971 44.11 27.3099 44.1866 27.2714C44.493 27.1556 44.493 27.1556 44.7995 27.3871C44.5313 27.7473 44.3143 28.1718 43.9696 28.4548C43.6632 28.6992 43.2291 28.7764 42.8461 28.9308C42.6674 29.008 42.5014 29.0851 42.3227 29.1623C42.1822 29.2267 42.0546 29.291 41.9141 29.3424C41.4417 29.5097 40.9566 29.664 40.4714 29.8184C40.5098 29.5868 40.5608 29.3167 40.8672 29.1623ZM34.9178 46.6957C34.8667 45.8596 35.1349 45.0363 35.02 44.2001C34.9944 44.0458 35.0966 43.8657 35.1349 43.6984C35.1604 43.5955 35.2115 43.4926 35.2242 43.3768C35.2881 42.605 35.3391 41.8332 35.4157 41.0614C35.4285 40.9198 35.5051 40.7783 35.5562 40.6368C35.5817 40.5725 35.6455 40.4953 35.6328 40.4568C35.3647 39.9165 35.8115 39.4791 35.837 38.9774C35.8626 38.643 35.9264 38.2828 36.0796 37.974C36.4882 37.125 36.6414 36.186 37.1393 35.3755C37.3946 34.9639 37.5989 34.5137 37.6882 33.9863C37.7649 33.5489 38.1351 33.163 38.3777 32.7513C38.4287 32.6741 38.5181 32.6227 38.5436 32.5455C38.799 31.5807 39.6416 31.4392 40.3948 31.1562C40.7523 31.0276 41.0843 30.8218 41.429 30.6674C41.5311 30.6159 41.6332 30.5388 41.7226 30.5516C42.0673 30.5773 42.3227 30.4487 42.5142 30.1657C42.5397 30.1271 42.578 30.0757 42.6163 30.0757C43.3057 30.0628 43.8675 29.5225 44.6462 29.5354C44.6462 29.8441 44.6462 30.0885 44.6462 30.3329C44.6462 31.2977 44.6462 32.2625 44.6462 33.2273C44.6462 33.253 44.6462 33.2787 44.6462 33.2916C44.5313 33.8962 44.6973 34.5137 44.6079 35.0925C44.5441 35.5942 44.4803 36.0959 44.4547 36.6105C44.442 36.9578 44.4803 37.2794 44.8122 37.4723C44.5569 37.691 44.3271 37.8711 44.1356 38.0255C44.1739 38.2956 44.276 38.54 44.2122 38.6687C43.9951 39.0803 44.1228 39.5048 44.059 39.9165C43.9313 40.624 43.7526 41.3186 43.5994 42.0261C43.5483 42.232 43.4462 42.4378 43.4462 42.6436C43.4589 43.2482 43.2929 43.8013 43.1142 44.3674C42.9482 44.9205 42.8206 45.5251 42.9482 46.1297C42.9738 46.2583 42.9738 46.477 42.8972 46.5413C42.578 46.7729 42.6291 47.0816 42.6291 47.3903C42.6291 47.4804 42.6674 47.5962 42.6163 47.6605C42.1056 48.4323 42.3354 49.4228 41.8886 50.2204C41.7864 50.4133 41.8247 50.6963 41.812 50.9408C41.7864 51.4296 41.7098 51.4682 41.2247 51.5711C40.8289 51.6611 40.4331 51.7898 40.0629 51.9699C39.5012 52.24 38.9522 52.4715 38.3138 52.4587C38.1223 52.4587 37.9436 52.6516 37.7393 52.7288C37.2669 52.9346 36.7946 53.1405 36.2711 53.2048C35.9519 53.2434 35.6455 53.4621 35.2753 53.6293C35.1604 53.2048 35.0966 52.8189 34.9433 52.4844C34.7646 52.0856 34.854 51.7383 34.8923 51.3395C34.9561 50.7221 34.8029 50.0917 34.8157 49.4743C34.8412 48.5609 34.9817 47.6219 34.9178 46.6957ZM33.3602 57.4884L33.373 57.5013C33.373 57.5142 33.3602 57.4884 33.3602 57.4884C33.373 57.4884 33.373 57.4884 33.3858 57.4884C33.5007 57.244 33.6411 57.0511 33.9731 57.1025C33.9475 57.1797 33.9092 57.244 33.8709 57.2955C33.756 57.4498 33.59 57.4884 33.3858 57.4884C33.3858 57.4884 33.3858 57.5013 33.373 57.5013C33.373 57.5013 33.3602 57.5013 33.3602 57.4884C33.3092 57.7972 33.1432 57.8872 32.9134 57.8743C32.8368 57.8743 32.7474 57.8615 32.6581 57.8358C32.824 57.6557 32.9772 57.4884 33.1432 57.3212C33.207 57.3727 33.2836 57.437 33.3602 57.4884ZM38.9522 71.2141C38.9139 71.3685 38.8628 71.51 38.85 71.6643C38.8245 72.3204 38.9394 73.0022 38.467 73.6454C37.7521 74.0699 36.8839 74.2371 35.9902 74.2628C35.8626 74.2628 35.7477 74.34 35.6328 74.3786C35.2115 74.4815 34.7901 74.5716 34.3688 74.6616C34.1646 74.7131 33.9603 74.7902 33.756 74.8288C33.3475 74.9189 32.9389 74.9832 32.5432 75.0604C32.3517 75.099 32.1729 75.1633 31.9942 75.2019C31.5856 75.2919 31.1899 75.382 30.7813 75.4592C30.2323 75.5621 29.6706 75.6264 29.1088 75.7164C28.8535 75.755 28.5982 75.8194 28.3428 75.8579C27.8066 75.948 27.2704 76.0252 26.7342 76.1024C26.3895 76.1538 26.0448 76.2181 25.7001 76.2567C25.266 76.2953 24.8064 76.1538 24.4234 76.4754C24.3978 76.5011 24.334 76.4883 24.2957 76.4883C23.1084 76.5526 21.9083 76.604 20.7209 76.6684C20.3507 76.6941 19.9677 76.5655 19.6357 76.8613C19.5719 76.9256 19.4187 76.887 19.3166 76.8999C18.7931 76.9514 18.2697 76.7584 17.7335 76.887C17.6313 76.9128 17.4909 76.8227 17.3632 76.7841C17.2611 76.7584 17.1334 76.6684 17.0696 76.707C16.5206 77.0028 15.9972 77.0028 15.4609 76.707C15.3971 76.6684 15.2694 76.7713 15.1673 76.7841C14.8609 76.8227 14.5034 76.9642 14.2864 76.8356C13.9544 76.6426 13.648 76.707 13.3289 76.6684C12.8948 76.604 12.4352 76.5912 12.0522 76.424C11.7968 76.3082 11.5543 76.2567 11.2989 76.2696C10.0861 76.3468 8.98809 75.948 7.89013 75.5235C7.43052 75.3434 6.91984 75.2662 6.49853 75.0218C5.96232 74.7131 5.37504 74.4172 4.95373 73.9284C4.51965 73.4267 4.12388 72.9121 3.86854 72.2818C3.6132 71.6515 3.71533 71.227 4.23878 70.7767C4.72392 70.3522 5.05587 69.7991 5.36227 69.1945C5.59208 68.7443 6.01339 68.3326 6.4347 68.0496C7.43052 67.355 8.52848 66.8147 9.486 66.0943C10.4308 65.3739 11.4904 64.898 12.5118 64.3062C13.1118 63.9589 13.7119 63.6245 14.3375 63.3415C15.295 62.9041 16.2908 62.531 17.2483 62.0808C17.5547 61.9393 17.8228 61.7206 18.1675 61.6177C18.6782 61.4505 19.1506 61.1803 19.6485 60.9745C19.7634 60.9231 19.9039 60.9359 20.0315 60.8973C20.172 60.8587 20.3762 60.8459 20.4528 60.7558C20.8103 60.3056 21.3338 60.2413 21.8189 60.0741C22.2657 59.9197 22.6871 59.6881 23.1211 59.4695C23.951 59.0578 24.7681 58.6462 25.649 58.3632C26.0192 58.2474 26.4022 58.1702 26.7725 58.0544C26.8746 58.0287 26.9895 57.9901 27.0534 57.9129C27.2449 57.6943 27.4874 57.6557 27.7683 57.6428C28.0236 57.6299 28.2918 57.5656 28.5216 57.437C29.0578 57.1411 29.6068 56.9353 30.2196 56.8195C30.6409 56.7423 31.0239 56.5108 31.4324 56.3693C31.7899 56.2406 32.1729 56.1377 32.5432 56.0477C32.6198 56.022 32.7091 56.0605 32.8368 56.0863C32.4538 56.3821 32.1601 56.6394 31.841 56.8581C30.9728 57.4112 30.1302 58.003 29.4408 58.7877C29.3003 58.942 29.0833 59.0321 28.9173 59.1479C28.6492 59.3408 28.3811 59.5209 28.1258 59.7267C27.7045 60.0741 27.2704 60.4085 26.8874 60.7944C26.5937 61.0774 26.3639 61.4376 26.0958 61.7592C25.6745 62.2738 25.1255 62.6468 24.6149 63.0713C24.334 63.3029 24.1425 63.4444 24.0787 63.6116C24.0148 63.7788 24.0914 63.9718 24.3212 64.3191C24.6021 64.4092 24.8447 64.3834 25.0872 64.2934C25.3171 64.2162 25.5469 64.0747 25.7767 63.9332C26.5427 63.483 27.1938 62.8655 28.0237 62.5182C28.1003 62.4796 28.1896 62.4539 28.2535 62.3895C29.2365 61.5277 30.36 60.8845 31.5218 60.267C32.058 59.984 32.5049 59.5466 33.1432 59.4695C33.2326 59.4566 33.3092 59.328 33.3858 59.2508C33.5134 59.135 33.6283 58.9806 33.7816 58.8906C34.3944 58.5047 34.7646 58.6204 34.9816 59.3151C35.1221 59.7653 35.2753 60.2156 35.3136 60.7044C35.3519 61.1675 35.4796 61.6434 35.7221 62.1194C36.0413 62.724 36.4882 63.3286 36.5009 64.0876C36.5137 64.3191 36.718 64.5507 36.8329 64.7822C37.0499 65.2067 37.2542 65.6312 37.4712 66.0686C37.5606 66.2487 37.5989 66.4416 37.701 66.596C38.0968 67.2392 38.5181 67.8695 38.9266 68.5256C39.0032 68.6542 39.0415 68.8086 39.0671 68.9501C39.1437 69.3746 39.016 69.812 39.182 70.2622C39.2331 70.5323 39.016 70.9054 38.9522 71.2141ZM32.3644 58.1573C32.058 58.3632 31.7133 58.5304 31.4452 58.7619C31.1643 59.0064 30.8962 59.2379 30.4749 59.1865C31.0877 58.8263 31.4707 58.0673 32.3644 58.1573ZM41.9396 72.8092C41.2375 72.8478 40.6374 73.4781 39.8076 73.1565C40.1012 72.6934 39.5778 72.166 39.9735 71.7029C39.8331 71.1755 40.2799 70.7896 40.3182 70.2622C40.5991 71.317 41.6332 71.7158 42.2716 72.642C42.1822 72.7063 42.0673 72.8092 41.9396 72.8092ZM43.9441 72.2561C43.893 72.2561 43.8419 72.3333 43.7526 72.3976C43.5866 72.2432 43.4206 72.076 43.2547 71.9088C42.6418 71.3299 42.0035 70.7639 41.4034 70.1721C41.0843 69.8505 40.7651 69.5161 40.5225 69.1302C40.4204 68.9629 40.1395 68.7185 40.4331 68.4355C40.5098 68.3583 40.4714 68.1268 40.4459 67.9724C40.3438 67.355 40.3948 66.7375 40.6247 66.1458C40.6502 66.0815 40.6374 66.0171 40.6374 65.9399C40.6502 65.5026 40.6502 65.0781 40.8417 64.6536C41.0077 64.2934 40.9694 63.8303 41.046 63.4315C41.1353 62.917 41.2758 62.4153 41.3651 61.9007C41.4673 61.3218 41.7354 60.7816 41.6843 60.1641C41.6588 59.894 41.812 59.611 41.8375 59.328C41.9141 58.6976 41.7481 58.1188 41.5183 57.527C41.6715 57.5013 41.8247 57.4627 41.978 57.437C42.3737 56.8066 42.3099 56.1377 42.1312 55.4559L42.1184 55.4688C42.1056 55.4688 42.1056 55.4559 42.0929 55.4559C41.863 55.4559 41.6332 55.4559 41.3907 55.4559C40.9821 56.202 41.0204 56.9996 41.0204 57.7972C41.0204 58.0287 40.9311 58.2603 40.8672 58.4918C40.7523 58.9806 40.6247 59.4566 40.5225 59.9454C40.4842 60.1384 40.4842 60.3442 40.4587 60.5372C40.4076 60.8973 40.5991 61.309 40.2672 61.6177C40.5736 61.9908 39.9991 62.3124 40.2161 62.6983C40.2544 62.7626 40.1267 62.9298 40.0501 63.0327C39.7948 63.3929 39.7948 63.3929 39.9225 63.7145C39.8076 64.1133 39.8076 64.4478 39.6416 64.6664C39.2586 65.1553 39.5778 65.7599 39.3097 66.2615C39.1948 66.4802 39.4246 66.8404 39.1181 67.1363C39.0032 66.8147 39.0288 66.3902 38.5692 66.3516C38.5309 66.3516 38.467 66.2487 38.467 66.1972C38.5181 65.837 38.2372 65.6955 38.0585 65.4769C38.0074 65.4125 37.8798 65.3482 37.8798 65.2839C37.867 64.8465 37.6882 64.4992 37.4457 64.139C37.2542 63.856 37.152 63.5087 37.0371 63.1871C36.9222 62.8655 36.6541 62.5439 36.9988 62.2094C36.4754 61.9908 36.5775 61.5019 36.4371 61.1418C36.3477 60.8973 36.2966 60.6401 36.2456 60.3956C36.0924 59.7396 35.9519 59.0835 35.8115 58.4275C35.7987 58.3889 35.8115 58.3374 35.8115 58.2988C35.6966 57.6685 35.7094 57.6814 36.22 57.3727C37.2286 56.7809 38.2245 56.1763 39.2203 55.5589C39.3352 55.4945 39.399 55.353 39.5012 55.2759C39.7565 55.07 39.9352 54.787 40.331 54.787C40.5353 54.787 40.7396 54.5555 40.9438 54.4397C41.0715 54.3625 41.1992 54.2982 41.4162 54.1696C41.3907 54.3883 41.3907 54.5169 41.3779 54.6327C41.3396 54.9285 41.48 55.1343 41.7609 55.2373C41.8886 55.2759 41.978 55.3788 42.0929 55.4559C42.1056 55.4559 42.1056 55.4559 42.1184 55.4559C42.2844 55.0958 42.4503 54.7227 42.6163 54.3625C42.744 54.0795 42.5142 54.0281 42.2971 53.938C42.7567 53.4106 43.2036 52.9861 43.9058 52.7417C44.4547 52.5487 45.1186 52.5487 45.5527 52.047C45.6165 51.9699 45.808 51.9827 45.9357 51.9956C46.4336 52.0213 46.8677 51.8412 47.3273 51.674C47.672 51.5453 48.055 51.5454 48.3997 51.4296C49.153 51.1723 49.9956 51.2109 50.6978 50.7864C51.6298 50.825 52.4086 50.1432 53.3533 50.1818C53.6853 49.8602 54.1066 50.0146 54.4896 49.9631C54.8981 49.9245 55.3067 49.8345 55.728 49.7959C56.111 49.7573 56.5068 49.8731 56.877 49.6029C57.0047 49.5129 57.26 49.5901 57.4898 49.5901C57.4005 50.2718 57.426 50.915 57.1579 51.5454C56.9664 51.9699 56.9408 52.4973 56.9536 52.9732C56.9664 53.6679 56.7493 54.3111 56.5706 54.9543C56.5323 55.0958 56.5451 55.263 56.5451 55.4174C56.5323 55.7904 56.5578 56.1249 56.2514 56.4593C56.0216 56.7166 56.0089 57.1797 55.9195 57.5656C55.8046 58.1188 55.9578 58.7234 55.5365 59.2122C55.4726 59.2765 55.5109 59.4309 55.5109 59.5466C55.5237 60.1898 55.396 60.7944 55.1535 61.399C55.0003 61.7721 55.013 62.2223 54.9364 62.6339C54.8598 63.0199 54.7705 63.3929 54.6939 63.7788C54.5023 64.6793 54.4257 65.6055 54.0938 66.4545C53.8129 67.2006 53.7746 67.9724 53.5576 68.7314C53.4172 69.2331 53.0469 69.4775 52.7405 69.5547C51.6042 69.812 50.5574 70.3522 49.4083 70.6095C48.8083 70.7382 48.2338 71.0211 47.6465 71.227C47.4422 71.3042 47.2379 71.3428 47.0209 71.3942C46.5868 71.4971 46.1144 71.5486 45.7059 71.7158C45.1186 71.9731 44.5696 72.2303 43.9441 72.2561ZM86.3559 55.7647C85.5772 56.6394 84.7728 57.4884 83.9941 58.3503C83.6621 58.7234 83.3685 59.1607 83.0238 59.5209C82.7684 59.791 82.3982 59.9454 82.1812 60.2284C81.8875 60.6143 81.5173 60.9102 81.147 61.1932C80.3938 61.7721 79.7937 62.5568 78.8873 62.9555C78.5809 63.097 78.2617 63.3543 78.0319 63.7016C77.8276 64.0104 77.4446 64.2162 77.1254 64.4477C76.0658 65.1938 74.9933 65.9271 73.9209 66.6732C73.4358 67.0076 73.0145 67.4836 72.491 67.6766C71.8144 67.9081 71.3165 68.3969 70.7164 68.7185C69.5801 69.336 68.4949 70.0564 67.3459 70.6738C66.8352 70.944 66.4012 71.3428 65.8011 71.4714C65.5841 71.5228 65.4436 71.883 65.2138 71.9988C64.7415 72.2432 64.2308 72.4104 63.7456 72.642C63.2477 72.8735 62.737 73.1308 62.2647 73.401C61.8051 73.6711 61.4476 74.1471 60.8348 74.0956C60.1326 74.5587 59.2772 74.5587 58.5239 74.9317C57.975 75.2019 57.3366 75.3048 56.7366 75.4849C56.5578 75.5363 56.3791 75.6521 56.2004 75.6907C55.8173 75.7679 55.4088 75.7808 55.0386 75.8837C53.7746 76.2439 52.4979 76.0895 51.2212 76.0895C50.7361 76.0895 50.2382 75.9609 49.753 75.8322C49.1658 75.6778 48.604 75.472 48.0295 75.2919C47.4805 75.1247 46.9698 74.906 46.5613 74.4815C46.4847 74.4043 46.4081 74.3143 46.3187 74.2757C45.9229 74.0956 45.3612 73.6711 45.0548 73.2723C45.4506 73.1951 45.7953 73.1308 46.1528 73.0408C46.3187 73.0022 46.4847 72.925 46.6379 72.8607C47.3018 72.5905 47.9401 72.2304 48.6168 72.0889C49.8041 71.8444 50.8893 71.2784 52.0511 70.944C52.3575 70.8539 52.6767 70.7896 53.0852 70.6996C53.0342 71.2913 52.8937 71.8316 52.9575 72.3461C52.9958 72.6163 52.5235 72.6934 52.8299 73.015C52.9703 73.1565 52.8426 73.5296 52.8682 73.7997C52.8937 74.0699 52.932 74.34 52.9703 74.6359C53.1618 74.6359 53.3661 74.6359 53.5959 74.6359C53.7363 73.8641 54.0683 73.1437 54.081 72.3333C54.081 71.9345 54.2981 71.5486 54.413 71.1498C54.4257 71.0855 54.4641 71.0212 54.4513 70.9568C54.247 70.0821 54.9492 70.0049 55.4726 69.812C56.0727 69.5804 56.7621 69.5032 57.2983 69.1688C58.2431 68.577 59.3666 68.4227 60.3113 67.8438C60.5284 67.7152 60.8092 67.5994 61.0518 67.6122C61.4987 67.6251 61.8306 67.3678 62.2136 67.2006C62.7626 66.9691 63.3371 66.7632 63.8988 66.5445C64.0137 66.4931 64.1159 66.403 64.2308 66.3387C64.4734 66.2101 64.7159 66.0557 64.984 65.9785C65.4436 65.8242 65.9288 65.7984 66.3501 65.4383C66.6693 65.1681 67.1672 65.0781 67.5757 64.9108C67.7417 64.8465 67.9587 64.8079 68.0481 64.6922C68.4439 64.1004 69.095 64.1262 69.6567 63.9461C69.8227 63.8946 69.9632 63.7917 70.1164 63.7274C70.9334 63.3929 71.7633 63.0842 72.5676 62.7111C73.0272 62.4925 73.4485 62.158 73.9337 61.8493C74.0997 62.0165 74.2656 62.1323 74.3805 62.2866C74.6997 62.7111 75.1593 62.8912 75.6189 63.0842C75.7338 63.1356 75.8998 63.1485 76.0019 63.097C76.7807 62.7369 77.4829 62.2609 77.9425 61.4891C78.0574 61.309 78.1851 61.0774 78.3638 60.9874C78.7596 60.7816 78.9128 60.4085 79.1426 60.0741C79.7554 59.1865 80.4065 58.3503 81.4279 57.9001C81.53 57.8615 81.6577 57.8486 81.7343 57.7843C82.5769 57.0511 83.5983 56.6266 84.5175 56.0348C85.1175 55.6489 85.6793 55.1987 86.3559 54.9414C86.5474 54.8642 86.7262 54.7613 86.9177 54.6713C86.956 54.7098 86.9815 54.7356 87.0198 54.7742C86.8028 55.1215 86.624 55.4817 86.3559 55.7647ZM94.846 39.3505C94.7949 39.4148 94.8077 39.5177 94.8077 39.6077C94.7439 40.7783 94.7055 41.9618 94.6162 43.1324C94.5906 43.5183 94.4885 43.9171 94.3353 44.2644C93.9778 45.1006 93.582 45.9625 92.9565 46.6056C92.6118 46.953 92.4713 47.3518 92.2287 47.7119C91.8074 48.3165 91.3861 48.9211 90.952 49.5257C90.7988 49.7444 90.6712 49.976 90.5052 50.1689C90.352 50.3362 90.1605 50.4648 89.9818 50.6192C89.4328 51.0823 88.8966 51.5582 88.3348 51.9956C87.5305 52.6259 86.7134 53.2305 85.8708 53.8222C85.5899 54.0152 85.2452 54.0924 84.9388 54.2467C84.6324 54.414 84.3643 54.6327 84.0707 54.8128C83.611 55.0958 83.1387 55.3659 82.6918 55.6489C82.4365 55.8033 82.2833 56.1635 81.8364 55.9576C82.0152 55.546 82.1812 55.1215 82.3982 54.7098C82.8578 53.8222 83.3557 52.9604 83.5855 51.957C83.6749 51.5711 83.9941 51.2366 84.1728 50.8764C84.3515 50.5291 84.492 50.1689 84.6452 49.8087C85.1048 48.7282 85.5772 47.6605 86.0368 46.5799C86.1772 46.2326 86.4453 45.9496 86.573 45.628C86.7134 45.2678 86.9305 44.9848 87.0964 44.6632C87.3901 44.0843 87.505 43.4154 87.8369 42.8623C88.1433 42.3606 88.271 41.8332 88.4753 41.3058C88.7051 40.7269 88.9987 40.1737 89.2285 39.5949C89.3307 39.3247 89.5732 39.0289 89.9818 39.0417C90.3775 39.0546 90.7733 39.1061 91.0797 38.7201C91.1563 38.6172 91.4117 38.643 91.5904 38.643C92.3181 38.643 92.9309 38.3342 93.5565 37.884C93.8246 38.3214 94.0289 37.8325 94.2842 37.8325C94.5651 37.8325 94.846 37.7939 95.1779 37.7811C95.0886 38.2828 95.229 38.8616 94.846 39.3505ZM95.4716 34.4879C95.8035 35.0797 95.4971 35.6071 95.3822 36.1345C95.3694 36.2117 95.2673 36.4561 94.9864 36.3403C94.7438 36.2374 94.7438 36.8163 94.3864 36.6491C93.8629 36.9449 93.3012 37.0864 92.6884 37.0478C92.599 37.0478 92.4969 37.0607 92.433 37.1122C91.7947 37.5753 90.9776 37.4723 90.3009 37.8454C90.518 37.3694 90.7222 36.9192 91.2329 36.7005C91.4883 36.5847 91.7053 36.3918 91.9223 36.2117C92.5607 35.6843 93.199 35.1569 93.8246 34.6166C94.0161 34.4494 94.1693 34.2307 94.297 34.0248C94.5396 33.6389 94.7694 33.2402 94.9992 32.8542C95.0375 32.8028 95.0247 32.687 95.063 32.6741C95.6886 32.3526 95.7269 31.6579 96.0078 31.1305C96.0716 31.0147 96.1354 30.8989 96.1993 30.7832C96.2503 30.8218 96.3142 30.8604 96.3653 30.8989C96.3142 31.1305 96.2631 31.3749 96.212 31.6065C96.161 31.838 96.0844 32.0567 96.0461 32.2882C95.9567 32.8285 95.8801 33.3688 95.8163 33.9219C95.8163 34.1664 95.8673 34.4622 95.4716 34.4879ZM96.0333 44.1101C96.0588 43.9043 96.0588 43.647 96.1737 43.4926C96.378 43.2096 96.5951 42.9781 96.6972 42.605C96.7993 42.2577 97.1313 41.9747 97.3738 41.6531C97.6036 41.3572 97.7313 41.0228 97.8718 40.6754C98.1143 40.0708 98.3697 39.4791 98.791 38.9646C99.1357 38.5272 99.391 37.9998 99.5953 37.4852C99.7357 37.125 99.7996 36.752 100.183 36.5462C100.31 36.4818 100.349 36.2503 100.4 36.1602C100.821 36.1602 101.102 36.1602 101.421 36.1602C101.447 36.4304 101.536 36.7262 101.217 36.9707C101.127 37.035 101.102 37.2022 101.038 37.3051C100.68 37.9612 100.349 38.643 99.7102 39.0932C99.6719 39.1189 99.6464 39.1704 99.6464 39.209C99.5698 40.0322 98.842 40.5468 98.625 41.3058C98.5739 41.4987 98.3569 41.6531 98.2165 41.8074C97.9611 42.0905 97.5653 42.2834 97.5909 42.7722C97.5909 42.8623 97.476 42.9523 97.3994 43.0424C97.0674 43.4283 96.7355 43.8013 96.3908 44.1873C96.3397 44.2387 96.2376 44.2902 96.1737 44.2773C96.1227 44.2773 96.0205 44.1615 96.0333 44.1101ZM133.696 28.4677C133.683 28.5706 133.581 28.6606 133.568 28.7636C133.479 29.664 133.389 30.5645 133.338 31.465C133.3 32.1339 133.338 32.8157 133.326 33.4846C133.326 33.6904 133.249 33.9091 133.172 34.1149C132.955 34.668 132.662 35.1826 132.521 35.7486C132.33 36.4947 131.96 37.1508 131.717 37.8711C131.411 38.7587 131.015 39.6077 130.67 40.4696C130.632 40.5725 130.568 40.6626 130.542 40.7655C130.415 41.2029 130.274 41.6145 130.006 42.0133C129.7 42.4764 129.547 43.0295 129.342 43.5569C129.061 44.303 128.806 45.0749 128.512 45.821C128.27 46.4256 128.002 47.0173 127.721 47.5962C127.568 47.9049 127.338 48.175 127.159 48.4709C127.07 48.6124 127.006 48.7668 126.929 48.9211C126.891 48.9983 126.891 49.1012 126.84 49.1656C126.125 49.8859 125.793 50.8636 125.206 51.6869C124.874 52.15 124.695 52.7417 124.542 53.3077C124.414 53.7965 124.095 54.1953 124.07 54.7356C124.057 55.1215 123.546 55.2759 123.125 55.1601C122.755 55.0572 122.461 54.8899 122.167 54.6327C121.886 54.3883 121.503 54.2596 121.184 54.0409C120.342 53.4621 119.512 52.8703 118.682 52.2786C118.337 52.0342 118.146 51.5453 117.609 51.5839C117.546 51.2623 117.239 51.198 117.022 51.0437C116.333 50.542 115.618 50.0917 114.979 49.5515C114.405 49.0626 113.728 48.5738 113.422 47.9306C113.09 47.2617 112.541 46.7086 112.375 45.9367C112.196 45.152 111.915 44.4059 111.686 43.6341C111.52 43.0681 111.073 42.7594 110.486 42.7079C109.681 42.6436 109.005 42.9781 108.366 43.3897C107.907 43.6856 107.46 43.9814 107.013 44.303C106.655 44.5603 106.323 44.8562 105.992 45.1392C105.506 45.538 105.072 45.9882 104.689 46.4899C104.37 46.9015 103.732 46.9787 103.566 47.5447C103.093 47.4804 103.093 47.9949 102.813 48.1493C102.11 48.5224 101.6 49.1656 100.936 49.5772C100.234 50.0146 99.4676 50.3233 98.7271 50.6835C98.1526 50.9536 97.8462 50.8764 97.3738 50.4391C96.7993 49.9116 96.4546 49.2813 96.4291 48.4838C96.4163 48.2008 96.3142 47.9306 96.2631 47.6476C96.1354 46.8758 96.5057 46.3098 96.9781 45.7438C97.5143 45.0877 97.9739 44.3673 98.4718 43.6856C98.7271 43.3382 98.9952 42.9909 99.2634 42.6436C99.4421 42.3992 99.6591 42.1676 99.7868 41.8975C100.285 40.9198 100.923 40.0451 101.536 39.1575C102.098 38.3471 102.583 37.5109 103.017 36.6362C103.055 36.559 103.068 36.469 103.081 36.3789C103.247 35.7486 103.706 35.3884 104.345 35.2598C104.664 35.1955 105.047 35.2726 105.302 34.951C105.353 34.8867 105.506 34.8867 105.609 34.8739C106.081 34.8353 106.336 34.7581 106.643 34.5651C106.745 34.5008 106.847 34.4236 106.962 34.3207C107.038 34.3593 107.128 34.3979 107.204 34.4236C107.434 34.5008 107.677 34.4751 107.945 34.3464C108.277 34.1792 108.698 34.1664 109.081 34.0763C109.605 33.9348 110.115 33.7804 110.639 33.6261C110.817 33.5746 110.996 33.4588 111.175 33.4588C111.673 33.4588 112.12 33.3431 112.554 33.1115C112.63 33.0729 112.72 33.0343 112.809 33.0472C113.562 33.1372 114.201 32.7256 114.89 32.5712C115.082 32.5326 115.273 32.4683 115.465 32.4683C116.001 32.4683 116.473 32.2625 116.907 31.9795C117.061 31.8766 117.278 31.8637 117.456 31.838C117.929 31.7994 118.376 31.8895 118.822 31.5164C119.103 31.2849 119.665 31.3878 120.022 31.079C120.546 31.555 120.929 30.9247 121.389 30.8989C121.452 30.8989 121.542 30.8475 121.58 30.8732C121.976 31.1562 122.257 30.8732 122.589 30.706C122.831 30.5774 123.125 30.5259 123.393 30.4487C123.482 30.423 123.597 30.4487 123.648 30.3973C124.121 29.947 124.721 30.0757 125.282 30.0242C125.64 29.9985 125.997 29.8827 126.355 29.7927C127.108 29.6126 127.874 29.4582 128.615 29.2009C129.304 28.9565 130.083 29.0337 130.721 28.6092C130.823 28.5449 130.977 28.5835 131.117 28.5835C131.768 28.5577 132.406 28.532 132.981 28.1204C133.147 27.9917 133.453 28.056 133.734 28.0303C133.709 28.159 133.721 28.3133 133.696 28.4677ZM135.573 24.2612C135.739 23.7981 135.854 23.3093 135.968 22.8205C136.16 21.9586 136.262 21.071 136.671 20.2606C136.76 20.0676 136.785 19.8232 136.773 19.6174C136.722 18.9099 137.079 18.3053 137.271 17.6621C137.449 17.0575 137.832 16.5172 137.935 15.9126C138.1 14.9607 138.662 14.1503 138.815 13.1855C138.854 12.9025 139.071 12.6323 139.198 12.3622C139.467 11.7962 139.709 11.2173 139.99 10.6513C140.36 9.86662 140.82 9.12052 141.101 8.3101C141.279 7.80841 141.599 7.35818 141.637 6.77931C141.65 6.52203 141.931 6.26476 142.122 5.95603C142.263 6.40626 142.224 6.74072 141.867 6.98513C141.918 7.15236 142.033 7.33245 142.007 7.46109C141.854 8.11715 141.662 8.74747 141.484 9.39066C141.394 9.72512 141.318 10.0724 141.216 10.4069C141.024 11.0501 140.705 11.6804 140.654 12.3236C140.59 13.0183 140.296 13.5071 139.913 14.0216C139.798 14.176 139.798 14.4461 139.798 14.652C139.811 15.1665 139.53 15.6296 139.467 16.0927C139.377 16.6973 138.956 17.1733 138.981 17.7907C138.981 17.8293 138.981 17.8936 138.956 17.9194C138.318 18.6783 138.381 19.7332 137.845 20.5436C137.705 20.7623 137.705 21.0839 137.628 21.3669C137.373 22.2673 137.092 23.1421 136.645 23.9782C136.377 24.4799 136.326 25.0974 136.16 25.6634C136.096 25.8949 135.994 26.1136 135.905 26.3452C135.726 26.3323 135.585 26.3194 135.407 26.3066C135.279 25.5862 135.343 24.9173 135.573 24.2612ZM170.924 22.4217C170.809 22.7947 170.899 23.2193 170.886 23.6309C170.873 23.8882 170.937 24.1583 170.72 24.3899C170.631 24.4928 170.669 24.7372 170.669 24.9173C170.669 25.702 170.682 26.4867 170.669 27.2714C170.656 27.683 170.656 28.0946 170.541 28.5191C170.414 28.9822 170.516 29.5097 170.503 29.9985C170.478 30.7832 170.452 31.5807 170.516 32.3526C170.58 33.1501 170.733 33.9348 170.682 34.7452C170.682 34.7838 170.682 34.8481 170.695 34.8739C171.167 35.5556 170.733 36.0187 170.324 36.4947C169.903 36.9707 169.507 37.4595 169.099 37.9483C168.856 38.2442 168.652 38.5529 168.409 38.8359C168.103 39.209 167.758 39.5563 167.503 39.9551C167.018 40.7398 166.341 41.3186 165.639 41.8975C165.345 42.1419 165.115 42.4764 164.847 42.7594C164.681 42.9395 164.541 43.1581 164.349 43.2739C163.89 43.5441 163.481 43.8785 163.137 44.2902C162.868 44.5989 162.524 44.8819 162.166 45.0491C161.349 45.435 160.736 46.1168 159.945 46.5156C159.243 46.8887 158.502 47.2102 157.774 47.519C157.174 47.7634 156.549 47.9435 155.961 48.175C155.361 48.4194 154.978 48.3937 154.532 47.9178C153.714 47.043 153.408 46.0268 153.766 44.8304C153.944 44.2644 154.187 43.7499 154.519 43.2482C154.685 43.0038 154.889 42.7208 154.966 42.4764C155.068 42.1548 155.31 41.9747 155.425 41.6917C155.515 41.4987 155.681 41.3444 155.808 41.1643C155.885 41.0614 156.013 40.9584 156.025 40.8427C156.038 40.5211 156.14 40.1737 155.808 39.9165C155.489 39.6721 155.247 39.8907 155.042 40.058C154.557 40.4696 153.944 40.7012 153.574 41.3186C153.344 41.7045 152.834 41.9361 152.463 42.2448C152.17 42.5021 151.889 42.7722 151.621 43.0552C151.391 43.2868 151.238 43.6341 150.97 43.7756C150.599 43.9686 150.357 44.2644 150.063 44.5346C149.514 45.0363 148.952 45.538 148.378 46.0139C148.25 46.1168 148.046 46.1168 147.842 46.1811C147.778 46.5928 147.586 46.9272 147.127 47.1588C146.833 47.3132 146.68 47.7505 146.412 47.9821C145.837 48.4838 145.224 48.934 144.624 49.41C144.484 49.5129 144.369 49.6415 144.241 49.7573C143.705 49.4486 143.654 49.1784 143.692 48.6767C143.756 47.8792 144.318 47.2874 144.471 46.5413C144.561 46.104 144.816 45.6923 144.893 45.2421C144.944 44.9462 144.829 44.6246 144.79 44.3674C143.961 44.0843 143.309 44.3931 142.799 44.8176C142.263 45.255 141.65 45.5251 141.101 45.911C141.062 45.9367 141.011 45.9367 140.986 45.9753C140.284 46.8758 139.122 47.1845 138.356 48.0207C137.615 48.2394 137.207 48.9469 136.517 49.2427C136.237 49.3714 135.905 49.5 135.611 49.4743C135.19 49.4228 134.947 48.9597 134.922 48.5609C134.87 47.7891 134.832 47.0173 134.73 46.2455C134.653 45.6923 134.487 45.152 134.36 44.5989C134.347 44.5346 134.309 44.4445 134.347 44.4059C134.653 44.02 134.219 43.5569 134.487 43.171C134.526 43.1196 134.475 43.0038 134.449 42.9266C134.283 42.2963 134.283 41.6659 134.449 41.0228C134.5 40.8169 134.513 40.5854 134.513 40.3667C134.513 38.3857 134.513 36.4175 134.513 34.4365C134.513 33.7418 134.628 33.0987 135.062 32.5326C135.164 32.404 135.151 32.1982 135.202 32.031C135.279 31.748 135.407 31.4778 135.432 31.1819C135.458 30.8989 135.905 30.8475 135.739 30.513C136.134 29.7283 136.288 28.8665 136.53 28.0432C136.645 27.6701 136.76 27.3614 137.258 27.2585C137.909 27.1299 138.496 26.7697 139.186 26.7053C139.518 26.6796 139.85 26.4995 140.13 26.3194C140.603 26.0236 141.113 26.1136 141.611 26.1136C142.02 26.1265 142.403 26.0622 142.748 25.8435C142.837 25.792 142.939 25.7277 143.041 25.7148C143.578 25.6376 144.139 25.6248 144.675 25.509C145.173 25.4061 145.659 25.2003 146.156 25.033C146.322 24.9816 146.476 24.9173 146.642 24.8915C147.05 24.8144 147.497 24.8272 147.854 24.66C148.161 24.5185 148.442 24.5314 148.735 24.4799C149.246 24.3899 149.744 24.2484 150.242 24.1454C150.663 24.0554 151.11 24.0297 151.467 23.7467C152.195 24.0039 152.834 23.5666 153.51 23.4894C153.612 23.4765 153.702 23.3993 153.804 23.3736C154.123 23.2836 154.429 23.1163 154.787 23.2578C155.119 23.3865 155.425 23.1549 155.732 23.0392C155.885 22.9748 156.051 22.8591 156.204 22.8719C157.085 22.9491 157.877 22.6404 158.706 22.4346C159.179 22.3188 159.651 22.1516 160.136 22.0615C160.647 21.9715 161.209 22.0229 161.694 21.8428C162.281 21.6241 162.971 21.7656 163.481 21.3154C163.558 21.2382 163.775 21.2125 163.851 21.264C164.388 21.6113 164.822 21.1996 165.281 21.0967C165.46 21.0581 165.613 20.8652 165.856 20.6722C166.367 21.0324 166.928 20.8394 167.541 20.6979C168.422 20.4921 169.303 20.1834 170.235 20.2348C170.363 20.2477 170.49 20.1834 170.605 20.1448C170.835 20.0933 171.052 20.029 171.32 19.9518C171.295 20.878 171.167 21.6627 170.924 22.4217ZM172.086 33.6132C172.086 33.2916 172.099 33.0858 172.086 32.8671C172.073 32.6098 172.15 32.3397 171.92 32.1081C171.831 32.0181 171.882 31.8123 171.856 31.6579C171.793 31.1948 171.959 30.7446 171.882 30.2686C171.805 29.8055 171.78 29.3038 171.882 28.8665C172.01 28.3519 171.78 27.8502 172.035 27.3228C172.227 26.924 172.061 26.358 172.086 25.8563C172.099 25.5991 172.176 25.3418 172.214 25.0845C172.239 24.9559 172.29 24.8015 172.252 24.6857C172.124 24.3127 172.265 23.9525 172.265 23.5923C172.252 22.6147 172.533 21.7142 172.814 20.788C172.954 20.3635 173.018 19.9647 173.363 19.6303C173.478 19.5273 173.516 19.1929 173.439 19.0771C173.095 18.5626 173.491 18.0866 173.503 17.5978C173.516 17.2504 173.784 16.9031 173.822 16.5558C173.899 15.7068 174.371 14.9993 174.589 14.2146C174.691 13.8158 174.793 13.417 174.908 13.0183C174.933 12.9282 174.959 12.851 175.01 12.7738C175.214 12.4394 175.482 12.1307 175.597 11.7705C175.827 11.0372 176.35 10.4584 176.542 9.71226C176.618 9.41639 176.887 9.15911 177.053 8.88897C177.589 8.00137 178.023 7.02372 178.814 6.30335C178.929 6.20044 178.993 6.04607 179.095 5.94316C179.261 5.77593 179.427 5.62157 179.606 5.48007C179.836 5.31284 180.104 5.19706 180.295 5.0041C180.576 4.73396 180.87 4.60533 181.253 4.75969C181.687 5.89171 181.495 7.08804 181.47 8.25865C181.444 9.00475 181.138 9.75085 181.074 10.5098C180.985 11.3717 180.576 12.1564 180.563 12.9925C180.538 13.893 180.117 14.6905 180.091 15.5782C180.078 16.0412 179.836 16.4915 179.695 16.9417C179.631 17.1347 179.619 17.3662 179.491 17.5206C179.223 17.8808 178.712 18.0094 178.227 17.9065C178.125 17.8808 178.01 17.9065 177.908 17.9194C177.716 17.9451 177.512 18.048 177.333 18.0223C176.695 17.9194 176.133 18.2667 175.533 18.3053C175.316 18.3181 175.112 18.3953 174.895 18.4339C174.448 18.4982 174.065 18.6526 173.835 19.1028C174.295 19.3858 174.703 19.7203 175.201 19.2701C175.533 19.4759 175.852 19.2572 176.172 19.2443C176.44 19.2315 176.695 19.1028 177.053 18.9999C177.295 19.2443 177.589 18.9871 177.921 18.8584C178.214 18.7555 178.648 19.0514 178.776 18.4211C178.891 18.6783 178.968 18.8327 179.044 18.9999C178.942 19.0385 178.865 19.0771 178.712 19.1286C178.827 19.3087 179.019 19.5145 178.738 19.7074C178.712 19.7332 178.687 19.7846 178.687 19.8232C178.763 20.4664 178.534 21.0324 178.265 21.5984C178.138 21.8686 177.997 22.1387 177.857 22.4088C177.602 22.9234 177.359 23.4508 177.116 23.9782C176.899 24.4413 176.721 24.9301 176.516 25.4061C175.827 26.9112 175.163 28.4291 174.423 29.9084C173.822 31.1048 173.133 32.2496 172.405 33.3688C172.38 33.4331 172.265 33.4846 172.086 33.6132ZM199.076 42.0776C198.693 42.1805 198.31 42.2577 197.927 42.2834C197.378 42.322 196.841 42.2448 196.343 42.5921C196.139 42.7336 195.782 42.7079 195.514 42.6822C195.092 42.6436 194.684 42.5278 194.173 42.4249C194.709 42.1676 195.118 41.949 195.654 41.846C196.356 41.7174 197.058 41.7303 197.761 41.7045C197.914 41.6917 198.054 41.6531 198.195 41.5888C198.744 41.3701 199.254 41.4344 199.714 41.7817C199.484 41.8846 199.293 42.0133 199.076 42.0776Z" fill="#BC8565"/>
</svg>
