<svg width="247" height="182" viewBox="0 0 247 182" fill="none" xmlns="http://www.w3.org/2000/svg">
<path d="M237.227 7.26758C237.24 7.27996 237.24 7.29234 237.24 7.30472H237.252L237.227 7.26758Z" fill="#BC8565"/>
<path d="M237.24 7.30461C237.054 7.31699 236.819 7.26747 236.683 7.35413C235.78 7.94842 234.951 8.62937 233.875 8.91413C233.603 9.38461 232.972 9.37223 232.7 9.74366C232.143 10.4989 231.314 10.8084 230.584 11.3037C229.817 11.8237 229.112 12.4179 228.197 12.6903C228.11 12.7151 228.061 12.8265 227.974 12.8884C226.403 13.9903 224.82 15.0922 223.261 16.2065C222.469 16.776 221.69 17.3703 220.935 17.977C220.131 18.6208 219.327 19.2522 218.412 19.7475C217.633 20.1684 216.878 20.6265 216.185 21.1837C215.233 21.9513 214.181 22.5827 213.167 23.2389C211.917 24.056 210.779 24.997 209.703 25.9875C208.887 26.7303 207.934 27.1884 207.019 27.7208C206.413 28.0675 205.856 28.4018 205.386 28.9341C204.396 30.036 203.332 31.0389 201.947 31.6332C201.588 31.7817 201.254 32.017 200.97 32.2646C199.621 33.416 198.52 34.8522 196.962 35.7684C196.875 35.8179 196.813 35.9046 196.751 35.9665C195.601 37.0932 194.302 38.0465 192.991 38.9751C192.756 39.1484 192.484 39.2722 192.261 39.4579C191.049 40.5351 189.849 41.637 188.649 42.7265C188.463 42.8875 188.253 43.0113 188.043 43.1475C187.337 43.5932 186.682 44.076 186.1 44.7075C185.111 45.7846 185.086 45.7722 183.527 46.2922C182.501 46.6389 181.585 47.2579 180.509 47.4808C180.336 47.5179 180.187 47.7037 180.014 47.7903C179.754 47.9265 179.495 48.1122 179.21 48.1494C178.641 48.2237 178.208 48.5456 177.763 48.8427C177.243 49.177 176.736 49.5608 176.056 49.7217C176.291 48.917 177.478 48.6941 177.033 47.617C176.464 47.357 175.895 47.4437 175.425 47.8522C174.868 48.3227 174.361 48.8675 173.841 49.3875C173.668 49.5608 173.557 49.8332 173.359 49.9198C172.604 50.2417 172.134 50.8979 171.528 51.4056C170.217 52.5198 168.893 53.6094 167.557 54.6989C167.211 54.9713 166.827 55.2065 166.431 55.3922C165.293 55.937 164.205 56.5808 163.215 57.3484C162.696 57.7446 162.188 58.1037 161.607 58.3884C161.038 58.6732 160.469 58.9456 159.937 59.2922C159.121 59.8122 158.329 60.4065 157.525 60.9389C157.079 61.236 156.449 60.9884 156.374 60.456C156.312 59.9856 156.275 59.4284 156.449 59.0075C156.844 58.0541 157.29 57.0884 157.896 56.2837C158.873 54.996 159.838 53.696 160.84 52.4208C161.978 50.9846 162.992 49.4741 164.081 48.0132C165.12 46.6265 166.382 45.4503 167.495 44.1256C167.619 43.977 167.805 43.8903 167.953 43.7541C168.695 43.1103 169.45 42.4665 170.192 41.8103C170.439 41.5875 170.551 41.117 170.365 41.0303C170.118 40.9189 169.809 40.8694 169.536 40.8941C169.363 40.9065 169.215 41.0922 169.054 41.216C168.225 41.8227 167.334 42.3427 166.543 43.0113C165.974 43.4941 165.429 43.9646 165.021 44.596C164.836 44.8808 164.613 45.1532 164.403 45.4132C163.376 46.7132 162.213 47.877 160.976 48.9789C160.556 49.3503 160.308 49.9322 159.69 50.0932C159.566 50.1179 159.467 50.2665 159.356 50.3779C158.923 50.836 158.44 51.2694 158.057 51.777C157.599 52.3713 156.931 52.7179 156.436 53.2503C156.04 53.6837 155.657 54.1418 155.249 54.5627C154.84 54.9837 154.222 55.3056 154.024 55.8008C153.752 56.4694 153.121 56.4941 152.75 56.8903C152.416 57.2617 151.884 57.4846 151.686 57.8437C151.401 58.3884 150.845 58.4998 150.511 58.9084C149.113 60.617 147.307 61.917 145.859 63.576C145.476 64.0094 144.994 64.356 144.548 64.7275C143.385 65.7179 142.272 66.7579 141.493 67.9465C140.961 68.2065 140.491 68.3551 140.107 68.6398C139.872 68.8132 139.86 69.3456 139.625 69.4446C139.241 69.6056 138.969 69.7789 138.709 70.1256C138.45 70.4722 137.967 70.6703 137.769 71.0418C137.509 71.5122 137.138 71.7722 136.73 72.0446C136.285 72.3418 135.753 72.6265 135.481 73.0598C134.973 73.8646 134.194 74.3722 133.551 75.016C132.252 76.2913 130.78 77.3808 129.53 78.7056C128.825 79.4484 128.256 80.3275 127.267 80.7856C127.069 80.8846 126.957 81.157 126.797 81.3427C126.277 81.9246 125.782 82.5437 125.213 83.0884C124.038 84.2027 122.838 85.2798 121.638 86.3694C121.527 86.4684 121.44 86.5922 121.341 86.7037C120.414 87.7189 119.498 88.7465 118.57 89.7617C118.335 90.0218 118.051 90.1827 117.692 90.2446C117.21 90.3189 116.975 90.7275 116.727 91.1113C116.517 91.4332 116.715 91.7798 117.098 91.9037C117.506 92.0151 117.766 91.817 118.001 91.557C118.546 90.9751 119.127 90.4427 119.981 90.356C120.117 90.3437 120.228 90.1951 120.364 90.1456C122.294 89.3532 123.964 88.1151 125.671 86.976C127.143 85.9979 128.603 84.9951 130.062 84.0046C131.287 83.1751 132.524 82.3827 133.712 81.5037C135.332 80.3027 136.99 79.1637 138.66 78.0617C139.637 77.4179 140.664 76.8237 141.654 76.1922C142.767 75.4865 143.843 74.7189 144.969 74.0379C146.057 73.3694 147.022 72.5151 148.247 72.0817C148.977 71.2522 150.09 71.017 150.931 70.336C151.995 69.4818 153.319 68.9618 154.37 68.0951C155.682 67.0303 157.314 66.5103 158.576 65.396C158.675 65.3094 158.848 65.297 158.972 65.2227C159.479 64.9256 159.986 64.6408 160.469 64.3189C161.001 63.9598 161.508 63.576 162.176 63.0808C162.102 63.4646 162.114 63.7122 162.003 63.8856C161.496 64.6532 160.927 65.3589 160.543 66.2256C159.69 68.157 158.638 70.0017 157.785 71.9332C157.129 73.4313 156.436 74.8675 155.187 75.9941C154.543 76.576 154.086 77.356 153.517 78.037C152.44 79.2998 151.327 80.5503 150.251 81.8132C149.459 82.7418 148.717 83.7075 147.95 84.6608C147.826 84.8094 147.703 84.9579 147.579 85.1189C147.022 85.9113 146.49 86.7284 145.897 87.496C144.845 88.8456 143.695 90.1084 142.742 91.5322C142.383 92.0646 142.049 92.6094 141.654 93.0922C141.233 93.6122 140.961 94.2189 140.503 94.7141C139.031 96.3113 137.967 98.2179 136.631 99.9141C136.297 100.335 136.037 100.806 135.74 101.251C135.233 102.031 134.8 102.873 134.207 103.567C133.464 104.433 132.895 105.399 132.326 106.377C131.782 107.318 131.386 108.333 130.594 109.113C130.52 109.646 129.939 109.658 129.667 110.005C128.516 111.428 127.638 113.038 126.76 114.623C126.512 115.081 126.45 115.65 126.351 116.17C126.289 116.492 126.574 116.752 126.896 116.703C127.131 116.666 127.403 116.604 127.564 116.455C127.935 116.133 128.269 115.762 128.578 115.378C129.617 114.066 130.644 112.741 131.757 111.503C132.871 110.252 133.712 108.828 134.751 107.541C135.456 106.674 136.025 105.696 136.841 104.904C137.015 104.73 137.163 104.532 137.324 104.347C138.375 103.183 139.019 101.697 140.317 100.731C140.392 100.669 140.441 100.583 140.503 100.508C141.418 99.4932 142.235 98.416 143.002 97.277C143.41 96.6827 143.93 96.1379 144.449 95.6303C146.428 93.6617 146.899 92.0646 147.826 91.4208C148.098 91.2351 148.136 90.7151 148.284 90.3313C148.853 90.1208 149.434 89.8732 149.608 89.2541C149.756 88.7094 149.966 88.2513 150.436 87.9294C150.325 87.3103 151.03 87.3598 151.191 86.9884C151.599 86.1094 152.502 85.4903 152.601 84.4379C152.614 84.3389 152.651 84.2398 152.725 84.1656C153.566 83.3113 154.024 82.197 154.655 81.2065C155.31 80.1789 156.077 79.1884 156.325 77.9379C156.374 77.7027 156.486 77.4551 156.646 77.2694C157.067 76.7741 157.327 76.1922 157.587 75.6103C157.686 75.3875 157.797 75.1522 157.958 74.9789C159.17 73.7037 160.036 72.1437 161.397 71.0046C161.941 70.5465 162.213 69.9275 162.337 69.3084C162.634 69.197 162.869 69.1351 163.091 69.036C163.698 68.776 164.118 68.4417 164.291 67.6865C164.415 67.1417 164.799 66.5475 165.442 66.2875C165.751 66.1637 165.986 65.9532 166.209 65.656C166.765 64.9132 167.396 64.2198 168.077 63.5884C168.51 63.1922 169.054 62.9198 169.141 62.2513C169.153 62.1398 169.314 62.0284 169.425 61.9541C171.145 60.6665 171.837 59.9856 173.037 58.376C173.124 58.2646 173.223 58.1284 173.347 58.0541C174.979 57.076 176.105 55.5532 177.515 54.3275C177.998 53.9065 178.542 53.5227 178.864 52.9903C179.26 52.3589 179.977 52.2351 180.422 51.7151C180.608 51.5046 181.053 51.4551 181.14 51.2446C181.499 50.3284 182.377 50.0313 183.008 49.437C184.146 48.3598 185.63 47.6789 186.484 46.2798C186.632 46.0446 186.892 45.8217 187.152 45.7103C187.77 45.4503 188.203 45.0417 188.451 44.4227C188.513 44.2865 188.748 44.1998 188.921 44.1132C189.675 43.7541 190.381 43.3703 190.789 42.5408C190.937 42.2313 191.358 42.0332 191.692 41.8351C192.248 41.5132 192.768 41.1789 193.226 40.7084C193.881 40.0522 194.562 39.4208 195.329 38.8884C195.972 38.4427 196.628 38.0341 197.209 37.477C197.766 36.9446 198.421 36.5113 198.953 35.917C199.04 35.8179 199.201 35.6941 199.324 35.7065C200.19 35.7808 200.524 35.2237 200.834 34.5551C200.97 34.2579 201.229 33.9732 201.489 33.7751C202.454 33.0198 203.419 32.2646 204.433 31.5837C205.002 31.1998 205.485 30.7418 205.967 30.2589C206.474 29.7637 207.229 29.5037 207.872 29.1446C207.909 29.1198 207.947 29.0827 207.984 29.0456C208.59 28.1789 209.629 27.857 210.371 27.1141C210.903 26.5817 211.633 26.1856 212.276 25.7646C212.969 25.3189 213.39 24.4894 214.293 24.3408C214.49 24.3037 214.651 24.0189 214.849 23.8579C215.418 23.3875 215.975 22.9046 216.581 22.4837C217.905 21.5427 219.241 20.6513 220.564 19.7227C221.331 19.1903 222.074 18.6208 222.841 18.0884C223.447 17.6675 224.09 17.3208 224.622 16.7884C225.179 16.2437 225.859 15.8227 226.44 15.3027C226.935 14.8694 227.554 14.6713 228.061 14.3122C228.531 13.9779 228.939 13.5694 229.496 13.3589C229.657 12.517 230.436 12.8265 230.918 12.5913C231.092 12.5046 231.252 12.3684 231.376 12.2198C232.143 11.3037 233.133 10.6351 234.135 10.0532C235.186 9.43413 236.089 8.64175 237.091 7.98556C237.326 7.84937 237.413 7.60175 237.24 7.30461ZM128.244 81.9494C128.071 82.1475 127.873 82.3208 127.663 82.5189C127.428 82.0608 127.724 81.9122 127.935 81.7265C127.984 81.677 128.133 81.677 128.182 81.7141C128.232 81.7513 128.281 81.9122 128.244 81.9494ZM153.764 80.5503C153.22 81.3675 152.898 82.3208 152.205 83.0389C152.168 83.076 152.106 83.1008 152.106 83.1379C151.896 84.5741 150.597 85.4037 150.127 86.716C149.929 87.2732 149.348 87.6941 148.878 88.2265C149.002 88.7837 148.89 89.2541 148.247 89.6132C147.839 89.836 147.529 90.2694 147.257 90.6656C146.701 91.4456 146.008 92.1513 145.649 93.0798C145.229 93.476 144.82 93.8722 144.4 94.256C144.264 94.3922 144.078 94.4913 143.979 94.6522C143.521 95.3951 143.126 96.1875 142.383 96.7075C141.851 97.7846 140.862 98.4408 140.021 99.2456C139.674 99.5798 139.353 99.9637 139.093 100.385C138.363 101.573 137.311 102.452 136.359 103.43C136.309 103.48 136.112 103.467 136.099 103.43C136.05 103.319 135.975 103.133 136.025 103.047C136.619 102.217 137.188 101.35 137.856 100.583C138.289 100.087 138.301 99.3941 138.833 98.9608C139.637 98.317 140.107 97.3636 140.788 96.596C141.047 96.3113 141.295 95.977 141.418 95.6179C141.604 95.0856 141.876 94.6522 142.247 94.2437C142.433 94.0456 142.495 93.736 142.606 93.4637C142.656 93.3275 142.705 93.0798 142.754 93.0798C143.707 93.117 143.521 91.8789 144.288 91.7179C144.486 90.9627 145.154 90.5417 145.55 89.9351C145.847 89.477 146.144 89.0437 146.614 88.7218C146.886 88.536 147.109 88.2141 147.245 87.917C147.641 87.0379 148.346 86.4313 148.952 85.7379C149.793 84.797 150.511 83.7322 151.241 82.7046C151.488 82.3456 151.612 81.8998 152.119 81.776C152.23 81.7513 152.342 81.5779 152.379 81.4417C152.601 80.6741 153.344 80.3894 153.913 79.8694C153.863 80.1046 153.888 80.377 153.764 80.5503ZM159.281 52.1608C159.071 52.6313 158.947 52.916 158.824 53.2008C158.787 52.9408 158.725 52.6684 158.725 52.4084C158.725 52.3589 158.972 52.297 159.281 52.1608ZM130.186 80.6246C129.827 80.9589 129.394 81.1199 128.887 81.3798C128.887 81.1199 128.838 80.897 128.9 80.8722C130.013 80.2779 130.57 79.077 131.621 78.4084C131.992 78.1732 132.314 77.8265 132.561 77.4675C133.056 76.7122 133.798 76.217 134.454 75.6351C135.617 74.5827 136.742 73.5056 137.856 72.4037C138.647 71.6236 139.513 70.9427 140.305 70.1751C140.726 69.7665 141.245 69.4818 141.579 68.9618C141.728 68.7265 142.012 68.5532 142.272 68.417C142.965 68.0703 143.484 67.5751 143.744 66.8322C143.781 66.7456 143.818 66.5846 143.868 66.5722C145.031 66.3494 145.179 64.9256 146.255 64.5665C146.602 64.4551 146.874 64.0837 147.134 63.7989C147.641 63.217 148.111 62.6103 148.606 62.016C148.717 61.8798 148.915 61.8179 149.051 61.7065C149.558 61.2608 150.177 60.877 150.523 60.3322C150.832 59.8494 151.179 59.5398 151.661 59.2798C152.527 58.8218 153.195 58.1037 153.851 57.3979C154.506 56.6922 155.174 56.0237 155.941 55.4417C156.56 54.9713 157.03 54.3151 157.537 53.7084C157.883 53.2998 158.267 53.077 158.799 53.2627C157.735 54.476 156.684 55.7017 155.83 57.076C155.15 58.1532 155.001 59.3665 154.828 60.5798C154.741 61.2237 155.211 61.6694 155.471 62.2884C155.273 62.4494 155.113 62.6103 154.915 62.7341C153.999 63.2913 153.071 63.836 152.156 64.3932C151.488 64.8017 150.783 65.1732 150.263 65.7922C150.14 65.9408 149.979 66.0894 149.806 66.1637C148.222 66.7827 147.171 68.2189 145.624 68.8875C144.82 69.9027 143.447 70.2122 142.656 71.2398C141.715 71.5741 141.122 72.4037 140.293 72.9113C139.501 73.3941 138.759 73.976 138.004 74.5332C137.621 74.8179 137.299 75.2141 136.879 75.4617C136.458 75.7217 136 75.8703 135.703 76.3037C135.543 76.5389 135.246 76.6627 135.011 76.836C133.91 77.6656 132.796 78.4703 131.708 79.3122C131.188 79.7208 130.669 80.1665 130.186 80.6246ZM132.574 80.5751C132.537 80.5503 132.512 80.5132 132.475 80.4884C132.549 80.4513 132.623 80.4141 132.697 80.3894C132.71 80.3894 132.747 80.4513 132.772 80.4884C132.71 80.5132 132.635 80.5503 132.574 80.5751ZM161.298 62.5237C160.469 62.8579 159.838 63.7246 158.787 63.4894C158.44 64.0837 158.069 64.6037 157.352 64.8637C156.226 65.2722 155.323 66.0646 154.383 66.7703C153.715 67.2779 152.985 67.6617 152.218 68.0208C151.302 68.4541 150.498 69.1351 149.632 69.6798C148.395 70.4598 147.257 71.4132 145.847 71.9084C145.575 72.0075 145.34 72.2056 145.105 72.3665C144.672 72.6637 144.288 73.0227 143.744 73.1713C143.385 73.2703 143.064 73.5551 142.767 73.8151C142.371 74.1741 142.074 74.657 141.641 74.9541C141.208 75.2513 140.639 75.3379 140.194 75.6227C138.375 76.7741 136.52 77.8637 134.813 79.2008C134.429 79.4979 133.971 79.6837 133.402 79.9932C133.39 79.3246 133.835 79.176 134.095 78.9656C134.776 78.4208 135.604 78.037 136.26 77.4551C137.547 76.2789 139.179 75.5237 140.317 74.1618C140.565 73.8646 141.208 74.0256 141.369 73.4932C142.891 72.4284 144.4 71.3389 145.934 70.2865C147.356 69.3208 148.841 68.4541 150.214 67.4141C150.907 66.8818 151.587 66.337 152.354 65.9037C153.109 65.4703 153.9 65.0246 154.543 64.4798C155.978 63.3037 157.686 62.6722 159.269 61.7932C159.751 61.5208 160.11 61.0503 160.778 60.976C161.31 60.9141 161.793 60.4189 162.3 60.1217C162.386 60.0722 162.498 60.0475 162.56 59.9856C163.364 59.1808 164.353 58.636 165.293 58.017C165.491 57.8932 165.627 57.6579 165.825 57.5341C166.184 57.3113 166.568 57.1379 167.211 56.816C166.84 57.336 166.605 57.6332 166.419 57.9427C166.221 58.277 166.085 58.6608 165.862 58.9827C165.702 59.2179 165.491 59.4779 165.244 59.6141C164.601 59.9608 164.229 60.5303 163.957 61.2113C163.401 61.236 162.968 61.5332 162.498 61.7437C162.052 61.9789 161.706 62.3627 161.298 62.5237ZM160.679 69.7294C160.63 69.8037 160.469 69.8037 160.345 69.8408C160.358 69.7294 160.333 69.5808 160.395 69.5189C160.469 69.4446 160.593 69.4322 160.704 69.3951C160.716 69.5065 160.741 69.6427 160.679 69.7294ZM175.87 53.8818C175.957 53.7084 176.031 53.5227 176.117 53.3494C176.216 53.6589 176.179 53.8694 175.87 53.8818ZM179.977 50.056C179.457 50.7122 178.814 51.1827 178.06 51.5665C177.144 52.0246 176.254 52.557 175.375 53.0894C175.202 53.1884 175.128 53.4484 175.004 53.6465C175.264 53.7332 175.536 53.8322 175.796 53.9189C175.66 54.5008 175.128 54.6989 174.732 55.0456C174.361 55.3675 173.903 55.6398 173.668 56.036C173.458 56.3951 173.186 56.6179 172.889 56.8656C171.578 57.8932 170.674 59.3294 169.388 60.3941C169.351 60.4313 169.289 60.4437 169.264 60.4808C168.732 61.4465 167.767 61.9913 167.038 62.7713C166.271 63.5884 165.442 64.356 164.848 65.3217C164.774 65.4456 164.687 65.5817 164.576 65.6684C163.116 66.696 162.164 68.2684 160.741 69.3332C160.84 68.4541 161.248 67.6989 161.731 66.9932C162.832 65.3713 163.957 63.7494 165.046 62.1151C165.541 61.3722 166.209 60.8027 166.852 60.1837C167.743 59.3418 168.881 58.8218 169.771 57.9551C169.796 57.7075 169.821 57.4227 169.846 57.1503C169.512 57.1503 169.19 57.1503 168.844 57.1503C169.957 55.5284 171.281 54.1789 172.852 53.0646C173.124 52.8665 173.421 52.6437 173.742 52.557C174.67 52.3218 175.449 51.777 176.192 51.2446C176.872 50.7494 177.676 50.576 178.344 50.0932C178.789 49.7837 179.42 49.7465 179.965 49.5732C180.237 49.7465 180.088 49.9198 179.977 50.056Z" fill="#BC8565"/>
<path d="M169.883 57.0886C169.883 57.101 169.883 57.1134 169.883 57.1258C169.895 57.1258 169.895 57.1258 169.908 57.1258L169.883 57.0886Z" fill="#BC8565"/>
<path d="M175.004 53.659C175.004 53.659 175.017 53.6466 175.017 53.6342C175.004 53.6342 174.992 53.6218 174.979 53.6218L175.004 53.659Z" fill="#BC8565"/>
<path d="M40.4388 136.265C40.3398 135.324 41.0325 134.841 41.7005 134.321C42.1954 133.949 42.95 133.9 43.1355 133.169C43.6674 133.033 44.0386 132.526 44.5086 132.377C45.189 132.179 45.5601 131.646 45.9065 131.188C46.3642 130.582 46.8838 130.161 47.5023 129.74C48.8012 128.861 50.0258 127.858 51.1763 126.793C51.9432 126.087 52.8463 125.592 53.6627 124.973C53.9349 124.763 54.1823 124.602 54.405 124.317C54.9245 123.648 55.5554 123.116 56.4337 122.943C56.9285 122.844 57.3244 122.546 57.5842 122.088C57.8563 121.593 58.2893 121.308 58.8336 121.098C59.2789 120.925 59.6995 120.615 60.0582 120.281C61.0974 119.327 62.322 118.609 63.4354 117.767C64.2518 117.148 65.1301 116.616 65.9589 116.022C66.3177 115.762 66.5774 115.403 67.0723 115.341C67.2826 115.316 67.4681 115.068 67.6537 114.907C68.668 114.078 69.5711 113.1 70.8823 112.716C71.0184 112.679 71.2163 112.629 71.2658 112.53C71.6864 111.75 72.4163 111.379 73.1585 111.007C73.3193 110.438 74.1605 110.76 74.2718 110.178C74.3955 109.571 75.0017 109.769 75.3233 109.497C75.7687 109.126 76.3006 108.841 76.6964 108.42C77.1913 107.9 77.8593 107.726 78.3664 107.293C78.8489 107.751 78.8984 107.887 78.7004 108.135C78.6015 108.246 78.5149 108.383 78.3912 108.457C77.9706 108.705 77.5005 108.878 77.117 109.175C76.783 109.423 76.5975 109.992 76.2511 110.079C75.5212 110.265 75.1996 110.921 74.5687 111.206C74.1852 111.379 73.9131 111.874 73.542 111.961C73.109 112.047 72.8369 112.258 72.5524 112.53C72.2431 112.84 72.008 113.261 71.6493 113.459C71.2658 113.669 70.9318 113.892 70.5978 114.202C70.103 114.672 69.5463 115.143 68.9402 115.415C67.7526 115.935 66.8743 116.864 65.8352 117.582C65.4394 117.854 65.1425 118.287 64.5858 118.337C64.425 118.349 64.2642 118.535 64.1405 118.671C63.8436 119.006 63.5467 119.315 63.1014 119.476C62.8911 119.55 62.6437 119.736 62.5447 119.934C62.2725 120.528 61.7035 120.751 61.2582 121.135C60.7015 121.606 59.9716 121.791 59.4768 122.398C59.2294 122.695 58.6851 122.757 58.1656 122.967C57.8439 123.586 57.2502 124.057 56.5574 124.466C55.2461 125.233 54.1328 126.286 53.0071 127.301C52.8215 127.462 52.6731 127.709 52.4628 127.784C51.3247 128.18 50.533 129.096 49.5186 129.678C49.0609 129.938 48.7146 130.384 48.294 130.718C47.527 131.337 46.7477 131.931 45.9683 132.538C45.7333 132.711 45.4983 132.897 45.2385 133.021C44.6818 133.293 43.9396 133.318 43.8654 134.172C43.1974 134.308 42.8881 134.94 42.3562 135.286C41.5026 135.844 40.9212 136.772 39.9068 137.119C39.1028 138.283 37.7915 138.926 36.9503 140.053C36.8761 140.165 36.7276 140.239 36.5916 140.276C36.0225 140.474 35.6143 140.858 35.2184 141.316C34.5876 142.046 33.7959 142.628 33.1031 143.309C31.6805 144.671 30.2332 146.008 28.7364 147.271C27.7591 148.101 27.0416 149.203 25.8664 149.809C25.5077 150.763 24.382 151.072 24.0356 152.063C23.9366 152.347 23.5408 152.521 23.3057 152.768C22.514 153.573 21.7223 154.39 20.943 155.207C20.8069 155.344 20.708 155.542 20.5471 155.641C19.5328 156.297 18.9142 157.337 18.0978 158.179C17.6648 158.637 17.2319 159.12 16.9102 159.652C16.1556 160.878 15.0423 161.794 14.164 162.921C13.2239 164.122 12.1971 165.248 11.2693 166.449C10.7003 167.18 10.2426 168.009 9.7354 168.789C9.62407 168.95 9.52511 169.136 9.38903 169.26C8.96844 169.668 8.48599 170.003 8.43651 170.684C8.42414 170.857 8.27569 171.055 8.13962 171.179C6.74176 172.491 6.25932 174.361 5.20783 175.896C4.9728 176.243 4.78724 176.688 4.99754 177.233C5.24494 177.233 5.56657 177.32 5.78924 177.221C7.00154 176.701 8.20147 176.131 9.42614 175.636C9.68592 175.537 9.88385 175.289 10.1189 175.116C10.9106 174.534 11.6899 173.94 12.6053 173.544C13.1744 173.296 13.7063 172.887 14.1764 172.466C14.8691 171.835 15.5619 171.204 16.3659 170.721C16.6381 170.56 16.8113 170.238 17.1824 169.817C16.6381 169.904 16.3041 169.904 15.9948 170.015C15.2279 170.287 14.5475 170.027 13.8919 169.706C13.4836 169.507 13.4094 169.049 13.7187 168.715C14.164 168.245 14.6836 167.799 15.3392 167.762C16.0814 167.725 16.6505 167.378 17.3061 167.068C18.6545 167.539 19.9286 167.378 21.2028 166.598C22.6254 165.731 23.9737 164.753 25.285 163.738C28.3158 161.386 31.3218 159.008 34.2907 156.582C34.8968 156.086 35.6638 155.901 36.171 155.245C36.6039 154.675 37.2967 154.304 37.7791 153.759C38.3605 153.09 39.2265 152.793 39.7955 152.087C40.3522 151.406 41.082 150.886 41.7377 150.292C41.8861 150.156 42.0345 150.02 42.2077 149.933C43.5066 149.203 44.5581 148.163 45.6962 147.222C45.9931 146.974 46.4137 146.85 46.6611 146.553C47.0569 146.083 47.9847 146.318 48.0466 145.464C48.4795 145.08 48.9249 144.684 49.3578 144.3C49.4321 144.238 49.4692 144.126 49.5558 144.077C51.1887 143.235 52.3391 141.749 53.8607 140.746C54.9245 140.041 55.9141 139.236 56.8296 138.332C57.5223 137.651 58.3016 137.02 59.1428 136.512C60.5283 135.658 61.7282 134.606 62.9034 133.504C63.6085 132.835 64.4126 132.29 65.1796 131.684C65.9466 131.077 66.8249 130.582 67.4805 129.876C68.334 128.96 69.4474 128.427 70.3999 127.66C71.1298 127.078 71.8472 126.471 72.5647 125.877C73.0843 125.444 73.5544 124.924 74.2718 124.8C74.3955 124.775 74.544 124.676 74.6182 124.565C75.2615 123.624 76.2016 123.005 77.0428 122.274C77.5253 121.853 78.2427 121.63 78.552 121.123C78.8984 120.541 79.4179 120.194 79.8633 119.761C80.321 119.315 80.89 118.993 81.3601 118.56C82.0652 117.916 82.7456 117.235 83.4383 116.554C84.2795 115.725 85.2444 115.031 86.1474 114.264C87.2608 113.323 88.3865 112.382 89.4874 111.404C90.6255 110.388 91.6646 109.249 92.8646 108.321C93.8295 107.566 94.584 106.587 95.5861 105.919C96.6128 105.226 97.5282 104.421 98.3323 103.529C99.4209 102.328 100.769 101.437 101.895 100.273C102.922 99.2208 104.023 98.2303 105.087 97.215C105.235 97.0788 105.359 96.9303 105.507 96.8065C107.239 95.2093 108.996 93.637 110.678 91.9903C111.915 90.7893 113.053 89.5017 114.204 88.2141C114.748 87.595 115.218 86.9017 115.787 86.1712C115.589 86.1217 115.366 85.9979 115.267 86.0598C114.822 86.3446 114.538 86.0103 114.166 85.8246C113.016 86.3322 111.853 86.8769 110.591 87.0998C110.319 87.1493 110.109 87.0998 110.059 86.7408C111.198 85.8122 112.534 85.1931 113.832 84.4998C114.636 84.0789 115.478 84.3017 116.306 84.2398C116.937 84.1903 117.469 84.4008 117.939 84.7969C118.051 84.8836 118.113 85.0322 118.187 85.1436C118.187 85.8493 117.593 86.1589 117.247 86.6169C116.962 87.0008 116.517 87.2731 116.43 87.8055C116.405 87.9912 116.282 88.1893 116.133 88.3131C115.107 89.1674 114.451 90.356 113.399 91.2103C112.274 92.1265 111.321 93.2779 110.294 94.3303C110.158 94.4665 110.072 94.6893 109.911 94.776C109.144 95.1598 108.649 95.8408 108.068 96.4103C107.511 96.955 106.942 97.4998 106.373 98.0322C104.988 99.3322 103.59 100.62 102.192 101.907C102.142 101.957 102.142 102.068 102.118 102.155C102.711 102.006 103.021 101.883 103.355 101.561C103.961 100.979 104.579 100.459 105.284 99.9884C105.928 99.5674 106.509 99.0227 107.115 98.5274C107.87 97.896 108.662 97.3389 109.478 96.7817C110.158 96.3112 110.74 95.6922 111.383 95.1722C112.645 94.157 113.919 93.1665 115.206 92.176C115.836 91.6931 116.022 91.7798 116.48 92.6712C115.725 93.2903 114.983 93.9093 114.216 94.516C113.536 95.0608 112.818 95.556 112.138 96.1008C111.445 96.6455 110.777 97.2398 110.084 97.7846C109.701 98.0817 109.268 98.2922 108.884 98.5893C108.241 99.0846 107.449 99.4189 107.041 100.199C106.212 100.409 105.804 101.115 105.26 101.66C104.703 102.217 103.936 102.489 103.466 103.17C103.144 103.628 102.34 103.554 102.105 104.21C101.153 104.223 100.967 105.201 100.324 105.634C99.7301 106.03 98.9755 106.29 98.6539 107.021C97.2189 107.454 96.5386 109.051 95.0294 109.398C94.6212 109.806 94.25 110.277 93.7923 110.624C92.778 111.404 91.7141 112.109 90.6874 112.877C90.1431 113.286 89.6483 113.768 89.1163 114.214C88.8937 114.4 88.6462 114.561 88.436 114.759C87.8545 115.266 87.236 115.725 86.7165 116.319C86.1351 117 85.566 117.805 84.5764 118.027C84.4032 118.065 84.2424 118.238 84.1187 118.386C83.3517 119.365 82.2136 119.872 81.2611 120.615C80.4942 121.209 79.7767 121.878 79.0716 122.559C78.6139 122.992 78.0201 123.314 77.7974 123.97C76.8449 124.354 76.5233 125.642 75.3357 125.704C75.2491 125.704 75.1254 125.766 75.0883 125.84C74.5192 127.004 73.2451 127.425 72.4781 128.378C71.9709 129.009 71.3153 129.393 70.6597 129.814C70.4246 129.975 70.202 130.186 70.0288 130.408C69.1752 131.448 68.1732 132.315 67.0228 133.008C66.3919 133.392 65.7363 133.702 65.3404 134.37C65.2538 134.519 65.0311 134.63 64.858 134.68C64.2642 134.866 63.8312 135.348 63.5219 135.782C62.8168 136.76 61.9633 137.54 60.9736 138.184C60.1077 138.741 59.415 139.496 58.6356 140.14C57.8439 140.796 56.978 141.366 56.3347 142.183C56.2729 142.257 56.1987 142.344 56.1121 142.368C55.0111 142.703 54.4297 143.681 53.6133 144.362C53.205 144.708 52.6978 144.968 52.3267 145.34C51.1639 146.541 49.5929 147.246 48.4548 148.472C48.2569 148.683 47.9971 148.844 47.7373 148.98C47.292 149.203 46.9456 149.525 46.5992 149.871C46.092 150.391 45.5354 150.899 44.9292 151.283C44.3726 151.629 44.0262 152.298 43.2963 152.385C42.9376 153.078 42.282 153.474 41.6758 153.87C41.1191 154.242 40.6985 154.762 40.1666 155.133C39.8574 155.356 39.4739 155.455 39.177 155.69C38.8677 155.926 38.6574 156.285 38.3605 156.545C38.1873 156.706 37.9276 156.767 37.7173 156.879C37.5193 156.99 37.2719 157.102 37.1482 157.275C36.8761 157.659 36.5173 157.894 36.0967 158.055C35.9607 158.105 35.7751 158.142 35.7133 158.253C34.8473 159.652 33.2392 160.098 32.0764 161.113C31.1857 161.881 30.3074 162.661 29.2064 163.144C29.0332 163.218 28.8848 163.379 28.7611 163.527C28.3405 164.035 27.7962 164.369 27.1901 164.605C26.4973 164.877 26.0025 165.471 25.3592 165.806C23.9985 166.511 22.8604 167.526 21.6852 168.48C20.51 169.433 19.273 170.3 18.0731 171.241C16.9226 172.145 15.7845 173.086 14.5722 173.915C13.8053 174.435 13.0012 174.943 12.1724 175.376C10.5642 176.23 9.07977 177.307 7.40977 178.026C6.67991 178.335 5.96243 178.645 5.13361 178.595C4.13161 178.533 3.36464 177.654 3.58731 176.688C3.72338 176.069 3.99553 175.487 4.25531 174.906C4.99754 173.185 6.07376 171.674 7.26132 170.238C7.37265 170.102 7.3974 169.891 7.49636 169.743C7.74377 169.322 8.00355 168.901 8.28807 168.505C8.51073 168.183 8.79525 167.898 8.99318 167.564C9.57459 166.598 10.3539 165.768 10.9724 164.84C11.7023 163.738 12.6177 162.809 13.397 161.745C14.2382 160.618 14.9681 159.38 16.0567 158.439C16.2794 158.253 16.4773 158.006 16.6257 157.758C17.1576 156.842 17.9246 156.186 18.8029 155.641C18.9266 155.566 19.1493 155.492 19.1617 155.406C19.3101 154.514 20.1637 154.254 20.6461 153.685C21.1162 153.127 21.6481 152.62 22.0934 152.038C22.6254 151.345 23.2934 150.701 24.0232 150.23C24.5057 149.921 24.8892 149.599 25.1242 149.104C25.4953 148.311 26.3241 147.977 26.8932 147.395C27.8086 146.454 29.0209 145.81 29.7136 144.634C29.7384 144.597 29.7878 144.547 29.825 144.535C30.5795 144.523 30.8393 143.854 31.2847 143.446C31.7547 143.012 32.2001 142.529 32.7073 142.146C33.9319 141.205 34.9587 140.016 36.2823 139.174C37.1359 138.629 37.8286 137.812 38.5956 137.131C38.8925 136.871 39.1646 136.574 39.4986 136.376C39.6594 136.265 39.9687 136.314 40.4388 136.265ZM99.5075 104.805C99.6064 104.582 99.693 104.408 99.7796 104.223C99.693 104.21 99.5817 104.148 99.5322 104.173C99.2972 104.309 99.2353 104.495 99.5075 104.805Z" fill="#BC8565"/>
<path d="M84.1063 103.604C84.5269 103.901 84.5392 104.223 84.2918 104.421C83.6362 104.978 82.9682 105.56 81.9662 105.535C81.793 105.882 81.9043 106.476 81.224 106.538C81.0508 106.55 80.9023 106.885 80.7292 107.046C80.0983 107.615 79.7643 107.467 79.4797 106.439C79.6158 106.352 79.7766 106.204 79.9374 106.179C80.3457 106.129 80.6426 105.944 80.9518 105.671C81.6446 105.077 82.3992 104.52 83.1537 104C83.4506 103.814 83.8217 103.728 84.1063 103.604Z" fill="#BC8565"/>
<path d="M95.0171 97.5369C95.2398 97.5617 95.3882 97.4998 95.314 97.2274C95.1903 96.8064 95.4006 96.596 95.7222 96.2988C96.2665 95.8036 96.7861 95.3455 97.4912 95.0855C97.8375 94.9617 98.221 94.8255 98.4066 94.4045C98.5921 93.9836 99.0622 93.996 99.4333 93.9217C99.5694 93.8969 99.7302 94.1074 99.99 94.2807C99.7921 94.4664 99.6684 94.6026 99.5323 94.7017C98.6045 95.3207 97.6644 95.9398 96.7366 96.5588C96.6129 96.6331 96.4644 96.7198 96.415 96.8436C96.1923 97.3017 95.8335 97.3141 95.4253 97.2274C95.1779 97.1779 95.0295 97.2893 95.0171 97.5369Z" fill="#BC8565"/>
<path d="M90.1801 100.843C89.7719 101.078 89.3142 101.35 88.8565 101.61C88.4606 101.833 88.0648 102.068 87.6689 102.291C87.5081 102.378 87.3596 102.539 87.1988 102.564C87.038 102.588 86.8153 102.527 86.6793 102.428C86.5185 102.304 86.5679 101.858 86.7659 101.784C87.7555 101.35 88.5348 100.62 89.4008 100.026C89.809 99.7408 90.0317 99.877 90.1925 100.459C90.1925 100.546 90.1801 100.645 90.1801 100.843Z" fill="#BC8565"/>
<path d="M95.0171 97.5246C94.4233 97.8589 93.8048 98.1436 93.3471 98.7503C93.1121 98.6141 92.9142 98.5027 92.6296 98.3417C93.1368 97.7227 93.644 97.1655 94.4481 96.9055C94.6336 97.116 94.8192 97.3265 95.0171 97.5246Z" fill="#BC8565"/>
<path d="M104.827 91.2103C104.542 91.656 103.985 91.4579 103.664 91.6931C103.33 91.9284 103.169 92.3989 102.86 92.696C102.6 92.9436 102.254 92.9931 102.019 92.597C102.884 91.0989 103.095 90.9998 104.864 91.2351L104.827 91.2103Z" fill="#BC8565"/>
<path d="M104.851 91.2228C104.765 90.9504 104.678 90.6904 104.567 90.3438C104.839 90.2323 105.037 90.1209 105.26 90.059C105.631 89.9352 105.952 89.7866 106.2 89.4276C106.46 89.0685 106.509 89.1057 107.288 89.0562C107.066 89.3657 106.917 89.6876 106.682 89.8733C106.076 90.3438 105.433 90.7647 104.814 91.2104C104.827 91.2104 104.851 91.2228 104.851 91.2228Z" fill="#BC8565"/>
<path d="M90.3782 100.224C90.3782 99.5303 90.6627 99.1836 91.0462 99.2084C91.541 99.2455 91.6152 98.8493 91.9245 98.4531C92.0111 98.7998 92.1348 99.0103 92.0729 99.1341C91.9368 99.4312 91.776 99.7779 91.5286 99.9388C91.2441 100.125 90.8359 100.125 90.3782 100.224Z" fill="#BC8565"/>
<path d="M238.959 6.41321C239.714 5.03892 239.726 5.02654 241.396 5.01416C241.31 5.15035 241.211 5.37321 241.174 5.36083C240.53 5.21226 240.172 5.62083 239.813 6.0294C239.652 6.21511 239.504 6.41321 239.306 6.5494C239.268 6.59892 239.083 6.47511 238.959 6.41321Z" fill="#BC8565"/>
<path d="M86.1968 103.418C85.8876 103.616 85.5536 103.802 85.2443 104C84.8237 103.864 84.6876 103.579 84.8732 103.207C84.9969 102.96 85.1825 102.712 85.3927 102.551C85.5536 102.44 85.8381 102.403 86.0484 102.452C86.135 102.477 86.1845 102.774 86.2092 102.947C86.2339 103.096 86.1968 103.245 86.1968 103.418Z" fill="#BC8565"/>
<path d="M100.114 93.6617C100.262 93.3893 100.349 93.1789 100.485 93.0179C100.67 92.7827 100.918 92.6341 101.214 92.8198C101.301 92.8693 101.313 93.0798 101.301 93.216C101.264 93.5255 101.103 93.7608 100.769 93.7731C100.596 93.7731 100.41 93.7112 100.114 93.6617Z" fill="#BC8565"/>
<path d="M237.252 7.30474C237.425 7.08189 237.574 6.82189 237.771 6.63617C237.833 6.57427 238.143 6.61141 238.155 6.63617C238.192 6.80951 238.217 7.0076 238.155 7.15617C238.118 7.25522 237.932 7.32951 237.809 7.34189C237.623 7.35427 237.425 7.30474 237.24 7.27998C237.227 7.2676 237.252 7.30474 237.252 7.30474Z" fill="#BC8565"/>
<path d="M109.49 87.8551C109.255 88.0036 109.119 88.0903 108.983 88.1522C108.971 88.1522 108.847 88.0036 108.86 87.9417C108.897 87.8303 108.971 87.6817 109.057 87.6446C109.132 87.6198 109.255 87.7313 109.49 87.8551Z" fill="#BC8565"/>
<path d="M242.225 4.35797C242.114 4.39511 242.002 4.44464 241.891 4.44464C241.866 4.44464 241.829 4.29607 241.792 4.22178C241.903 4.18464 242.015 4.13511 242.126 4.11035C242.138 4.12273 242.188 4.24654 242.225 4.35797Z" fill="#BC8565"/>
<path d="M244.489 3.09512C244.439 3.1694 244.377 3.23131 244.328 3.30559C244.266 3.20655 244.192 3.11988 244.13 3.02083C244.204 2.98369 244.278 2.89702 244.353 2.9094C244.402 2.9094 244.452 3.03321 244.489 3.09512Z" fill="#BC8565"/>
<path d="M171.738 56.3332C171.738 56.098 171.738 55.8627 171.738 55.5903C172.221 55.3675 172.679 55.157 173.136 54.9465C173.297 55.1075 173.272 55.2313 173.136 55.417C172.778 55.9122 172.27 56.1227 171.726 56.2837C171.701 56.2961 171.738 56.3332 171.738 56.3332Z" fill="#BC8565"/>
<path d="M174.967 53.6218C174.695 54.3894 174.695 54.3894 173.779 54.8723C173.631 54.0675 173.903 53.7952 175.004 53.659L174.967 53.6218Z" fill="#BC8565"/>
<path d="M169.907 57.1256C170.031 56.9894 170.18 56.7046 170.291 56.7294C170.848 56.8037 171.157 56.0856 171.738 56.3332L171.714 56.296C171.59 56.977 170.897 57.0513 170.476 57.4103C170.415 57.4599 170.105 57.2122 169.895 57.0884C169.883 57.0884 169.907 57.1256 169.907 57.1256Z" fill="#BC8565"/>
</svg>
