<svg width="152" height="46" viewBox="0 0 152 46" fill="none" xmlns="http://www.w3.org/2000/svg">
<path d="M2.4 31.22H7.8L7.98 32.6C8.82 38.04 11.74 40.76 16.74 40.76C19.94 40.76 22.32 39.98 23.88 38.42C25.48 36.82 26.28 34.64 26.28 31.88C26.28 29.56 25.58 27.72 24.18 26.36C22.82 25 20.96 24.32 18.6 24.32H14.28V19.76H15.96C17.28 19.76 18.6 19.6 19.92 19.28C23.4 18.32 25.14 16.06 25.14 12.5C25.14 10.34 24.46 8.6 23.1 7.28C21.78 5.92 19.7 5.24 16.86 5.24C11.42 5.24 8.7 8.42 8.7 14.78H3.48C3.48 12.5 3.84 10.34 4.56 8.3C6.16 3.42 10.32 0.899999 17.04 0.739999C21.44 0.739999 24.68 1.78 26.76 3.86C29.16 6.06 30.36 8.86 30.36 12.26C30.36 14.54 29.72 16.52 28.44 18.2C27.2 19.88 25.54 21 23.46 21.56V21.68C25.82 22.04 27.76 23.16 29.28 25.04C30.8 26.92 31.56 29.34 31.56 32.3C31.56 36.34 30.22 39.52 27.54 41.84C24.86 44.12 21.38 45.26 17.1 45.26C12.62 45.26 9.14 44.16 6.66 41.96C3.82 39.08 2.4 35.5 2.4 31.22ZM36.3647 33.26H41.8847C42.0847 35.14 42.8647 36.86 44.2247 38.42C45.5847 39.98 47.6847 40.76 50.5247 40.76C57.0447 40.76 60.3047 37.3 60.3047 30.38C60.3047 26.94 59.4047 24.44 57.6047 22.88C55.8847 21.28 53.7047 20.48 51.0647 20.48C49.5847 20.48 48.0047 20.82 46.3247 21.5C44.6047 22.18 43.4447 23.06 42.8447 24.14H37.5647L40.5047 2H63.1847V6.74H44.6447L42.9647 19.16C45.4047 17.04 48.5647 15.98 52.4447 15.98C56.3647 15.98 59.5247 17.28 61.9247 19.88C64.3647 22.44 65.5847 25.92 65.5847 30.32C65.5847 34.88 64.2847 38.52 61.6847 41.24C59.0847 43.92 55.3647 45.26 50.5247 45.26C45.3647 45.26 41.7047 43.84 39.5447 41C37.6647 38.56 36.6047 35.98 36.3647 33.26ZM87.3694 45.02C85.5694 45.34 83.7094 45.34 81.7894 45.02C80.9094 44.9 79.6894 44.42 78.1294 43.58C76.4894 42.7 75.1294 41.52 74.0494 40.04C72.9694 38.56 72.0094 36.4 71.1694 33.56C70.3294 30.56 69.9094 27.04 69.9094 23C69.9094 18.92 70.3294 15.42 71.1694 12.5C72.0894 9.46 73.0694 7.24 74.1094 5.84C75.1094 4.52 76.3694 3.42 77.8894 2.54C79.4494 1.66 80.7494 1.14 81.7894 0.98C83.7094 0.659999 85.5694 0.659999 87.3694 0.98C88.2894 1.1 89.5294 1.58 91.0894 2.42C92.7694 3.3 94.1294 4.48 95.1694 5.96C96.2494 7.44 97.1894 9.62 97.9894 12.5C98.8694 15.38 99.3094 18.88 99.3094 23C99.3094 27.12 98.8694 30.64 97.9894 33.56C97.1094 36.56 96.1294 38.76 95.0494 40.16C93.9694 41.6 92.6494 42.74 91.0894 43.58C89.5294 44.42 88.2894 44.9 87.3694 45.02ZM77.6494 35.66C79.1694 38.9 81.4894 40.52 84.6094 40.52C87.7694 40.52 90.0694 38.9 91.5094 35.66C92.9894 32.46 93.7294 28.24 93.7294 23C93.7294 17.76 92.9894 13.54 91.5094 10.34C90.0694 7.1 87.7694 5.48 84.6094 5.48C81.4894 5.48 79.1694 7.1 77.6494 10.34C76.2094 13.58 75.4894 17.8 75.4894 23C75.4894 28.2 76.2094 32.42 77.6494 35.66Z" fill="#2C2C2C"/>
<line x1="130" y1="1" x2="130" y2="45" stroke="#2C2C2C"/>
<line x1="152" y1="23" x2="108" y2="23" stroke="#2C2C2C"/>
</svg>
