<svg width="137" height="46" viewBox="0 0 137 46" fill="none" xmlns="http://www.w3.org/2000/svg">
<path d="M2.4 31.22H7.8L7.98 32.6C8.82 38.04 11.74 40.76 16.74 40.76C19.94 40.76 22.32 39.98 23.88 38.42C25.48 36.82 26.28 34.64 26.28 31.88C26.28 29.56 25.58 27.72 24.18 26.36C22.82 25 20.96 24.32 18.6 24.32H14.28V19.76H15.96C17.28 19.76 18.6 19.6 19.92 19.28C23.4 18.32 25.14 16.06 25.14 12.5C25.14 10.34 24.46 8.6 23.1 7.28C21.78 5.92 19.7 5.24 16.86 5.24C11.42 5.24 8.7 8.42 8.7 14.78H3.48C3.48 12.5 3.84 10.34 4.56 8.3C6.16 3.42 10.32 0.899999 17.04 0.739999C21.44 0.739999 24.68 1.78 26.76 3.86C29.16 6.06 30.36 8.86 30.36 12.26C30.36 14.54 29.72 16.52 28.44 18.2C27.2 19.88 25.54 21 23.46 21.56V21.68C25.82 22.04 27.76 23.16 29.28 25.04C30.8 26.92 31.56 29.34 31.56 32.3C31.56 36.34 30.22 39.52 27.54 41.84C24.86 44.12 21.38 45.26 17.1 45.26C12.62 45.26 9.14 44.16 6.66 41.96C3.82 39.08 2.4 35.5 2.4 31.22ZM50.7286 44V13.52H56.0086V17.66L55.9486 18.02C56.7486 16.34 58.0286 14.98 59.7886 13.94C61.5486 12.86 63.4086 12.32 65.3686 12.32C67.6886 12.32 69.5886 12.94 71.0686 14.18C72.5886 15.38 73.5886 16.94 74.0686 18.86C74.8286 17.26 76.0686 15.78 77.7886 14.42C79.5486 13.02 81.8286 12.32 84.6286 12.32C91.1486 12.32 94.4086 16.32 94.4086 24.32V44H89.1286V24.68C89.1286 18.92 87.1686 16.04 83.2486 16.04C81.0486 16.04 79.1486 16.78 77.5486 18.26C75.9886 19.74 75.2086 22.26 75.2086 25.82V44H69.9286V24.74C69.9286 18.94 67.9686 16.04 64.0486 16.04C61.8086 16.04 59.9086 16.94 58.3486 18.74C56.7886 20.54 56.0086 22.9 56.0086 25.82V44H50.7286ZM101.733 44V13.52H107.013V44H101.733ZM107.013 7.52H101.733V2H107.013V7.52ZM114.305 44V2H119.585V44H114.305ZM127.05 44V2H132.33V44H127.05Z" fill="#2C2C2C"/>
</svg>
