<svg width="100" height="100" viewBox="0 0 100 100" fill="none" xmlns="http://www.w3.org/2000/svg">
<circle cx="50" cy="50" r="41" fill="white"/>
<path d="M70.1246 72.6719L72.3157 80.5251L71.1091 81.3618L64.4375 76.6604L65.4716 75.9464L69.1398 78.5801L70.1739 79.3687L71.5277 80.4758L71.3555 80.6237L70.74 78.9492C70.5923 78.4814 70.4692 78.0635 70.3461 77.7435L69.0905 73.41L70.1246 72.6719ZM70.1246 75.1338L70.6908 75.9464L67.4163 78.2351L66.8501 77.4237L70.1246 75.1338Z" fill="#7D942E"/>
<path d="M60.0014 78.4082L60.9613 81.3124L65.0973 84.8334L63.7925 85.2517L61.6507 83.3812L61.0105 82.7898C60.8136 82.5929 60.6166 82.3219 60.3704 82.0265H60.7151C60.7151 82.4204 60.7151 82.7654 60.7151 83.0362C60.7151 83.307 60.7153 83.6021 60.5429 83.8729L59.9521 86.6557L58.6719 87.0741L59.9028 81.8053L58.9426 78.8999L60.0014 78.4082Z" fill="#7D942E"/>
<path d="M50.7449 79.9802C51.3711 79.9512 51.9931 80.0959 52.542 80.3985C53.0675 80.7269 53.4998 81.1847 53.7976 81.728C54.136 82.3816 54.3051 83.1091 54.2899 83.8449C54.3357 84.5724 54.2003 85.2995 53.8959 85.9618C53.632 86.526 53.2138 87.0041 52.6896 87.3406C52.1643 87.6874 51.5465 87.8675 50.9171 87.8575C50.2909 87.8864 49.669 87.7418 49.12 87.4392C48.5946 87.1108 48.1622 86.653 47.8644 86.1096C47.5372 85.452 47.3687 84.7273 47.3722 83.9928C47.3388 83.2661 47.4734 82.5407 47.7659 81.8747C48.0297 81.3105 48.4479 80.8335 48.9721 80.4971C49.5023 80.1608 50.1171 79.9816 50.7449 79.9802ZM50.7449 81.038C50.3324 81.0509 49.9314 81.1786 49.5876 81.4071C49.224 81.6463 48.9411 81.9904 48.7753 82.3928C48.5755 82.8932 48.4833 83.4291 48.5045 83.9675C48.5027 84.5116 48.6204 85.0498 48.8492 85.5435C49.0392 85.9314 49.3278 86.2629 49.6862 86.5039C50.0491 86.6998 50.4554 86.8005 50.8678 86.7984C51.2893 86.7929 51.6999 86.6648 52.0495 86.4294C52.405 86.1876 52.6796 85.8448 52.8375 85.4449C53.0509 84.9484 53.1436 84.4082 53.1082 83.869C53.1186 83.324 53.0005 82.7851 52.7635 82.2942C52.5868 81.9041 52.2948 81.5766 51.9266 81.3578C51.5798 81.1417 51.1781 81.0308 50.7696 81.038H50.7449ZM49.2922 84.4111V83.4999H52.3449V84.3858L49.2922 84.4111Z" fill="#7D942E"/>
<path d="M44.3149 79.6375L42.2467 87.0231L37.5938 85.7429L37.8648 84.7584L41.3851 85.7429L42.0006 83.5275L38.7264 82.6403L38.9972 81.6558L42.2714 82.567L42.9115 80.277L39.3419 79.2925L39.6127 78.332L44.3149 79.6375Z" fill="#7D942E"/>
<path d="M36.9007 77.2272L32.8385 83.7509L31.6815 83.0369V77.0048C31.6815 76.7586 31.6815 76.4888 31.6815 76.1934C31.6815 75.898 31.6815 75.577 31.6815 75.257C31.5651 75.5188 31.4335 75.7737 31.2875 76.0203L30.8935 76.7343L30.5735 77.2765L28.2595 80.9933L27.25 80.3538L31.3122 73.8301L32.4692 74.5429V80.1807C32.4692 80.4515 32.4692 80.7472 32.4692 81.0919C32.4692 81.4366 32.4692 81.8305 32.4692 82.3228H32.297C32.4939 81.9782 32.6662 81.683 32.8139 81.3876C32.9616 81.0922 33.1094 80.8459 33.2571 80.6243L33.5526 80.1074L35.719 76.6358L36.9007 77.2272Z" fill="#7D942E"/>
<path d="M24.4991 76.5333L23.7358 77.198L19.7969 72.7178L20.5602 72.0531L22.1358 73.8502L27.0596 69.4434L27.8473 70.3293L22.9235 74.7362L24.4991 76.5333Z" fill="#7D942E"/>
<path d="M16.8438 67.9179L23.5646 64.1758L24.1308 65.2108L17.4346 68.9517L16.8438 67.9179Z" fill="#7D942E"/>
<path d="M19.8934 61.0771L18.761 61.4221L17.9238 61.1504L17.1361 60.8307L16.3235 60.4616L13.4186 59.0828L13 57.6307L17.3576 59.7476L19.8934 61.0771ZM22.0845 61.2983L14.6989 63.4897L14.3542 62.3573L16.816 61.6673L18.5146 61.1757L19.0564 61.0026L21.8384 60.1659L22.0845 61.2983ZM20.755 56.7688L17.8745 60.3378L16.816 59.8954L20.3363 55.4141L20.755 56.7688Z" fill="#7D942E"/>
<path d="M20.1641 50.0934C20.1997 50.7233 20.0452 51.3493 19.7209 51.8905C19.4203 52.438 18.9555 52.8767 18.3917 53.1455C17.735 53.4753 17.0093 53.6446 16.2745 53.6383C15.5458 53.6648 14.8211 53.5218 14.1573 53.22C13.5931 52.9561 13.115 52.5373 12.7785 52.0131C12.4533 51.4793 12.283 50.8663 12.2863 50.2412C12.2507 49.6113 12.4049 48.9853 12.7292 48.4441C13.0441 47.9078 13.5054 47.4717 14.0587 47.1879C14.719 46.8681 15.4423 46.7006 16.1759 46.6963C16.9035 46.6822 17.6256 46.8248 18.2931 47.1146C18.859 47.3874 19.3369 47.814 19.6719 48.3455C20.004 48.8672 20.1751 49.475 20.1641 50.0934ZM19.1054 50.0934C19.0994 49.6796 18.9711 49.2764 18.7364 48.9357C18.5005 48.5788 18.1672 48.2967 17.7762 48.1231C17.2792 47.9115 16.7397 47.8191 16.2006 47.8527C15.6581 47.8407 15.1197 47.9497 14.6249 48.1724C14.2282 48.3489 13.8937 48.6414 13.6648 49.0103C13.444 49.3641 13.3327 49.7751 13.3447 50.1919C13.3577 50.6087 13.4763 51.0152 13.6894 51.3736C13.9437 51.7172 14.2831 51.9883 14.6742 52.1609C15.1806 52.3719 15.7262 52.4729 16.2745 52.4567C16.8106 52.4581 17.3404 52.34 17.8255 52.1117C18.2183 51.9291 18.5509 51.6392 18.7853 51.275C19.0014 50.9283 19.1126 50.5259 19.1054 50.1174V50.0934Z" fill="#7D942E"/>
<path d="M20.5148 44.0651L19.6779 43.7946L18.2251 41.1609L17.9297 40.5947L17.6836 40.0032L17.4868 39.5597L18.0283 39.7328L17.6097 40.0032L17.0928 40.323L16.5266 40.6427L14.0647 41.8737L13.2031 41.6032L14.9263 36.1133L15.8865 36.409L15.0249 39.1906L14.7541 40.0273C14.7541 40.2981 14.5815 40.545 14.483 40.7666H14.2123L14.6555 40.4709L15.1724 40.1259L15.8126 39.7821L17.7575 38.7963H18.1515L19.2346 40.7173C19.3772 40.9532 19.5007 41.1997 19.6039 41.4554C19.7176 41.6614 19.8163 41.8759 19.8994 42.0961C19.9851 42.2631 20.059 42.4357 20.1208 42.613L19.924 42.4651L20.1455 41.6525C20.1455 41.3571 20.3178 41.0619 20.4163 40.7173L21.3025 37.8864L22.2873 38.1809L20.5148 44.0651Z" fill="#7D942E"/>
<path d="M21.6503 23.9258L27.485 32.2466L26.7956 33.0833L20.9609 24.7624L21.6503 23.9258Z" fill="#7D942E"/>
<path d="M33.2408 25.008L32.1328 16.9083L33.4377 16.2676L39.4199 21.8068L38.2875 22.3982L35.0133 19.2716L34.1024 18.3604L32.8961 17.0802H33.093C33.2454 17.648 33.3687 18.2236 33.4623 18.804C33.4623 19.2964 33.6346 19.7143 33.7084 20.059L34.3732 24.5151L33.2408 25.008ZM33.6345 22.5461L33.1669 21.6842L36.7365 19.8378L37.1798 20.7237L33.6345 22.5461Z" fill="#7D942E"/>
<path d="M44.7975 20.6769C44.2561 20.8134 43.6893 20.8134 43.1479 20.6769C42.6704 20.5517 42.2415 20.2856 41.917 19.9136C41.5957 19.534 41.383 19.0746 41.3015 18.5841L40.3906 13.6603L41.5479 13.4391L42.4342 18.3629C42.4894 18.6791 42.6248 18.9761 42.8279 19.2248C43.0229 19.4716 43.2896 19.6521 43.5912 19.7417C43.9301 19.8303 44.2863 19.8303 44.6253 19.7417C44.9658 19.6781 45.2864 19.5349 45.5608 19.3234C45.8025 19.1338 45.9823 18.876 46.0777 18.5841C46.1653 18.2784 46.1653 17.9545 46.0777 17.6488L45.1915 12.7251L46.3485 12.5039L47.2594 17.4277C47.395 17.9107 47.395 18.422 47.2594 18.905C47.0866 19.364 46.788 19.7644 46.3978 20.0614C45.9223 20.3935 45.373 20.6048 44.7975 20.6769Z" fill="#7D942E"/>
<path d="M50.8359 13.2898V12.2812L56.7691 12.8967V13.9053L54.3073 13.6588L53.6179 20.3064L52.4609 20.1838L53.1256 13.5362L50.8359 13.2898Z" fill="#7D942E"/>
<path d="M58.7344 21.1934L61.6639 14.1035L62.7719 14.5471L61.5163 17.5499L65.0366 19.0032L66.2676 15.9992L67.3756 16.4668L64.4212 23.5567L63.3381 23.0891L64.6426 19.9385L61.1223 18.4851L59.8175 21.637L58.7344 21.1934Z" fill="#7D942E"/>
<path d="M66.9453 25.2289L71.8691 19.2461L75.6358 22.2742L74.9957 23.0627L72.1398 20.7727L70.7121 22.5458L73.3461 24.6867L72.7307 25.4501L70.0719 23.3332L68.5949 25.1796L71.4751 27.4936L70.835 28.2822L66.9453 25.2289Z" fill="#7D942E"/>
<path d="M73.0234 30.4982L79.3506 26.1406L80.1137 27.2477L77.9965 32.1715L77.7257 32.7629C77.7257 32.9845 77.5041 33.2062 77.3564 33.477C77.2087 33.7478 77.0611 33.9942 76.8641 34.2896V34.1658L77.5535 33.6248L78.1933 33.132L78.7105 32.7629L82.3048 30.3011L82.9942 31.2856L76.667 35.6431L75.8793 34.5348L77.775 30.0799C77.8981 29.8337 77.9966 29.5874 78.095 29.3658C78.1935 29.1443 78.341 28.8486 78.5134 28.5532L79.0799 27.4449V27.5927C78.7844 27.8389 78.4888 28.0359 78.2426 28.2575L77.5289 28.7744L77.0363 29.1194L73.6635 31.4575L73.0234 30.4982Z" fill="#7D942E"/>
<path d="M84.1769 36.0867L85.137 35.791L86.9341 41.4781L85.974 41.7738L85.2599 39.5079L78.8838 41.5274L78.5391 40.4191L84.8909 38.3755L84.1769 36.0867Z" fill="#7D942E"/>
<path d="M87.7201 48.0783L80.0391 48.5964V47.4388L87.6958 46.9219L87.7201 48.0783Z" fill="#7D942E"/>
<path d="M79.5191 55.3373C79.6083 54.7178 79.8733 54.1364 80.2824 53.6628C80.6864 53.1951 81.2162 52.8535 81.8088 52.6783C82.5203 52.5031 83.2637 52.5031 83.9753 52.6783C84.7022 52.7727 85.3951 53.0439 85.9939 53.4669C86.4979 53.8375 86.8897 54.3398 87.1262 54.919C87.3487 55.4996 87.4002 56.1313 87.2741 56.7402C87.2231 57.1264 87.1065 57.5015 86.9294 57.8485C86.7479 58.1571 86.5241 58.4385 86.2646 58.6851C85.9867 58.925 85.6705 59.1163 85.3291 59.2513C84.9644 59.3739 84.5814 59.433 84.1967 59.4244L84.3936 58.2668C84.6316 58.2703 84.8673 58.2196 85.083 58.1189C85.2805 58.0333 85.4633 57.9179 85.6245 57.7752C85.7773 57.6113 85.9097 57.4289 86.0185 57.233C86.1245 57.0254 86.1911 56.8 86.2153 56.5683C86.3383 56.1755 86.3383 55.7553 86.2153 55.3626C86.0552 54.9568 85.7709 54.6112 85.403 54.3768C84.9511 54.0781 84.438 53.8846 83.9013 53.8107C83.3753 53.6851 82.8271 53.6851 82.301 53.8107C81.8868 53.9174 81.5113 54.14 81.218 54.4514C80.9327 54.7596 80.7442 55.1441 80.6761 55.5585C80.6515 55.7876 80.6515 56.0194 80.6761 56.2485C80.704 56.4639 80.771 56.6724 80.8733 56.864C80.9649 57.0703 81.0989 57.2542 81.267 57.4049C81.4325 57.5668 81.6357 57.6855 81.8581 57.7499L81.6363 58.9316C81.2865 58.8098 80.9613 58.627 80.6761 58.3906C80.4022 58.1606 80.1694 57.8857 79.987 57.578C79.8053 57.2572 79.6803 56.9076 79.6177 56.5442C79.5213 56.1498 79.488 55.7421 79.5191 55.3373Z" fill="#7D942E"/>
<path d="M81.3405 72.7713L74.5703 65.1885L75.1858 64.2773L81.9313 71.8601L81.3405 72.7713Z" fill="#7D942E"/>
<path d="M66.7943 32.3702C59.0886 24.6645 45.13 26.1419 35.6271 35.6447C26.1243 45.1476 24.647 59.1068 32.3526 66.8125C40.0583 74.5181 54.0173 73.0649 63.5447 63.562C73.0722 54.0592 74.4999 40.0759 66.7943 32.3702ZM59.4086 45.4189H57.4147V43.8177C57.1626 44.3847 56.7297 44.8524 56.1837 45.1472C55.5468 45.4802 54.8341 45.6413 54.1158 45.6148C53.2488 45.6058 52.3996 45.3686 51.654 44.926C50.9026 44.4627 50.2967 43.7978 49.9058 43.0063C49.5003 42.1184 49.2985 41.1501 49.315 40.1742C49.2414 39.4596 49.3252 38.7385 49.5602 38.0597C49.7952 37.3809 50.1758 36.7618 50.6755 36.2458C51.1751 35.7297 51.7816 35.3281 52.4525 35.0713C53.1233 34.8145 53.8423 34.7083 54.5588 34.7588C55.7304 34.6272 56.9065 34.9651 57.8294 35.6988C58.7523 36.4325 59.3466 37.5017 59.4826 38.6728H57.0207C56.9339 38.1398 56.6535 37.6581 56.233 37.3192C55.8013 36.9744 55.2585 36.7988 54.7067 36.8264C54.1945 36.8136 53.6895 36.9509 53.254 37.2207C52.8171 37.5032 52.4812 37.9168 52.2941 38.4023C52.0575 38.9715 51.9401 39.5831 51.9494 40.1994C51.9376 40.8319 52.0549 41.4602 52.2941 42.0458C52.4791 42.5188 52.8059 42.9223 53.2296 43.2022C53.6701 43.484 54.1839 43.6305 54.7067 43.6218C55.1357 43.6323 55.5601 43.5301 55.9376 43.3261C56.2953 43.1528 56.5947 42.8783 56.7992 42.5375C56.9208 42.3595 57.0046 42.159 57.0453 41.9473H54.5835V39.953H59.6551L59.4086 45.4189ZM61.5751 45.4189V34.9559H64.037V43.2515H68.9607V45.4189H61.5751Z" fill="#7D942E"/>
</svg>
